<svg width="554" height="532" viewBox="0 0 554 532" fill="none" xmlns="http://www.w3.org/2000/svg">
<path d="M312.537 528.45C290.916 518.217 282.3 493.887 279.253 471.225C278.739 467.463 277.66 463.55 278.889 459.938C280.118 456.326 283.906 453.379 287.543 454.395C290.565 455.235 292.333 458.27 294.352 460.666C297.038 463.897 300.587 466.298 304.586 467.588C307.195 468.428 310.292 468.692 312.437 466.986C315.371 464.641 314.945 460.101 314.343 456.364C313.114 449.433 311.91 442.502 310.731 435.571C309.881 431.872 309.632 428.061 309.991 424.284C310.543 420.521 312.562 416.759 315.948 415.204C319.334 413.649 324.087 414.916 325.454 418.452C325.858 419.973 326.159 421.519 326.357 423.08C326.721 424.622 327.737 426.215 329.279 426.403C330.822 426.591 332.164 425.274 333.105 423.983C336.315 419.556 338.121 414.251 339.751 408.996C341.382 403.741 342.912 398.386 345.721 393.671C348.53 388.955 352.819 384.892 358.124 383.638C363.429 382.384 369.7 384.767 371.919 389.796C374.139 394.825 371.995 400.706 369.411 405.547C365.488 412.715 360.55 419.279 354.75 425.036C353.594 425.958 352.76 427.222 352.368 428.648C351.979 431.282 354.763 433.363 357.384 433.765C360.319 434.216 363.304 433.414 366.276 433.263C369.248 433.113 372.622 433.865 374.202 436.436C376.371 439.998 373.851 444.55 371.154 447.723C365.739 454.044 359.278 459.389 352.054 463.525C349.471 464.992 346.724 466.372 344.83 468.679C342.937 470.987 342.172 474.574 343.953 476.981C345.733 479.389 349.333 479.653 352.117 478.624C354.901 477.596 357.221 475.602 359.792 474.11C364.608 471.3 371.305 470.523 375.356 474.411C376.619 475.77 377.549 477.404 378.074 479.184C378.598 480.964 378.702 482.842 378.378 484.669C377.711 488.309 376.316 491.777 374.277 494.865C367.782 506.03 358.444 515.273 347.213 521.653C335.989 527.798 325.128 530.795 312.55 528.463" fill="#F5F5F5"/>
<path d="M315.961 513.326C317.624 500.419 320.028 487.618 323.16 474.987L325.567 465.042C326.357 461.769 327.148 458.533 328.076 455.423C329.951 449.454 332.153 443.593 334.672 437.866C337.043 432.373 339.488 427.231 341.808 422.453C344.128 417.675 346.398 413.26 348.631 409.335C352.115 403.109 356.091 397.17 360.52 391.576C362.087 389.595 363.354 388.103 364.219 387.099C364.633 386.623 364.972 386.246 365.21 385.958C365.448 385.67 365.561 385.582 365.574 385.594C365.483 385.739 365.382 385.877 365.273 386.008L364.319 387.187C363.492 388.215 362.263 389.695 360.733 391.739C356.401 397.388 352.498 403.354 349.057 409.585C346.862 413.523 344.63 417.938 342.322 422.716C340.015 427.494 337.607 432.636 335.262 438.129C332.764 443.856 330.587 449.718 328.74 455.687C327.775 458.784 326.997 461.957 326.232 465.268L323.824 475.226C320.699 487.831 318.283 500.601 316.588 513.476" fill="#E0E0E0"/>
<path d="M328.289 455.373C328.017 454.885 327.802 454.368 327.649 453.83C327.273 452.84 326.784 451.322 326.207 449.554C325.053 445.917 323.624 440.838 322.068 435.245C320.513 429.651 319.021 424.597 317.804 420.998C317.203 419.192 316.701 417.725 316.35 416.734C316.139 416.219 315.975 415.686 315.861 415.141C316.163 415.609 316.411 416.11 316.601 416.634C317.039 417.599 317.604 419.041 318.269 420.822C319.61 424.409 321.178 429.438 322.746 435.056C324.313 440.675 325.63 445.591 326.684 449.403C327.173 451.134 327.574 452.589 327.938 453.755C328.102 454.283 328.219 454.825 328.289 455.373V455.373Z" fill="#E0E0E0"/>
<path d="M374.879 438.242C374.273 438.495 373.643 438.684 372.998 438.806C371.744 439.12 370.026 439.571 367.869 440.198C363.542 441.452 357.635 443.309 351.201 445.691C344.768 448.074 339.036 450.495 334.898 452.351C332.841 453.266 331.198 454.056 330.057 454.596C329.484 454.908 328.883 455.168 328.264 455.373C328.782 454.973 329.341 454.629 329.932 454.345C331.035 453.73 332.653 452.877 334.685 451.837C338.735 449.855 344.454 447.359 350.9 444.964C356.402 442.906 362.007 441.135 367.693 439.659C369.875 439.082 371.656 438.706 372.898 438.468C373.55 438.331 374.213 438.255 374.879 438.242V438.242Z" fill="#E0E0E0"/>
<path d="M316.4 512.36C316.239 512.196 316.096 512.015 315.973 511.821L314.857 510.228C313.891 508.823 312.55 506.779 310.932 504.221C307.671 499.104 303.407 491.893 298.805 483.867C294.202 475.84 290.026 468.604 286.853 463.437L283.091 457.304L282.087 455.636C281.955 455.452 281.849 455.249 281.774 455.034C281.774 455.034 281.937 455.198 282.2 455.561C282.463 455.925 282.877 456.514 283.316 457.166C284.282 458.559 285.624 460.603 287.254 463.174C290.502 468.29 294.779 475.489 299.381 483.515C303.984 491.542 308.16 498.778 311.321 503.957L315.083 510.077C315.484 510.742 315.823 511.332 316.086 511.745C316.221 511.933 316.326 512.141 316.4 512.36V512.36Z" fill="#E0E0E0"/>
<path d="M376.823 480.944C376.646 481.099 376.448 481.226 376.233 481.321L374.49 482.249L368.019 485.622C362.551 488.482 355.051 492.507 346.774 496.909C338.497 501.311 330.96 505.337 325.454 508.071C322.695 509.438 320.438 510.579 318.883 511.244L317.002 512.071C316.795 512.181 316.576 512.265 316.35 512.322C316.529 512.172 316.727 512.045 316.939 511.946L318.695 511.018L325.166 507.632C330.621 504.785 338.121 500.759 346.398 496.345C354.675 491.93 362.225 487.93 367.718 485.196C370.477 483.829 372.734 482.688 374.29 482.023L376.095 481.195C376.324 481.075 376.569 480.99 376.823 480.944V480.944Z" fill="#E0E0E0"/>
<path d="M155.723 259.255C155.723 259.255 140.824 261.324 149.189 293.956C157.554 326.588 164.652 343.418 164.652 343.418C164.652 343.418 165.768 350.805 159.811 350.58C153.854 350.354 141.702 345.563 137.576 351.946C133.312 358.618 137.049 366.645 146.355 375.06C155.66 383.475 175.5 402.65 177.281 404.393C179.062 406.137 180.366 409.723 176.278 410.212C172.189 410.702 143.194 407.303 142.417 421.161C141.639 435.019 171.525 454.182 174.748 456.339C177.971 458.496 178.51 460.176 177.758 462.057C177.005 463.939 167.399 461.869 159.109 461.23C150.819 460.59 141.087 461.33 141.301 469.356C141.514 477.383 157.215 497.699 202.99 512.799L224.674 518.405L240.689 502.628C272.92 466.773 276.444 441.352 272.644 434.279C268.844 427.206 260.103 431.407 253.155 436.072C246.207 440.738 238.933 447.359 237.378 446.105C235.823 444.851 235.422 443.12 237.152 439.646C238.883 436.173 255.299 404.694 247.724 393.056C240.15 381.418 216.673 398.75 212.91 400.343C209.148 401.935 208.471 398.148 209.148 395.79C209.825 393.432 217.475 366.946 221.413 354.969C225.351 342.992 224.599 334.188 217.576 330.526C210.803 327.002 202.664 337.236 197.598 340.396C192.531 343.556 189.847 336.634 189.847 336.634C189.847 336.634 187.64 318.512 178.686 286.03C169.731 253.549 155.447 259.368 155.447 259.368" fill="#EBEBEB"/>
<path d="M224.662 523.797C218.178 499.969 207.355 457.329 197.886 420.722C188.418 384.114 179.814 351.106 173.444 327.203C170.258 315.264 167.675 305.607 165.919 298.898C165.041 295.574 164.351 292.978 163.875 291.197L163.348 289.191C163.235 288.739 163.198 288.501 163.198 288.501C163.198 288.501 163.285 288.714 163.423 289.166C163.561 289.617 163.749 290.307 164 291.16C164.514 292.941 165.254 295.511 166.182 298.822C168.063 305.482 170.722 315.126 173.958 327.065C180.442 350.893 189.133 384.014 198.601 420.546C208.07 457.079 218.805 499.756 225.176 523.659" fill="#E0E0E0"/>
<path d="M154.306 359.396C154.807 359.603 155.286 359.859 155.736 360.161C156.626 360.688 157.905 361.49 159.498 362.494C162.621 364.513 166.872 367.41 171.5 370.683L183.314 379.111L186.913 381.619C187.367 381.901 187.787 382.233 188.167 382.61C187.661 382.405 187.178 382.149 186.725 381.845C185.834 381.318 184.555 380.515 182.962 379.499C179.865 377.455 175.651 374.483 171.023 371.222L159.147 362.882L155.535 360.374C155.092 360.093 154.68 359.765 154.306 359.396V359.396Z" fill="#E0E0E0"/>
<path d="M189.985 381.569C189.822 381.468 195.403 372.451 202.439 361.428C209.474 350.404 215.331 341.55 215.494 341.65C215.657 341.751 210.076 350.78 203.028 361.804C195.98 372.828 190.148 381.644 189.985 381.569Z" fill="#E0E0E0"/>
<path d="M202 438.355C202.347 437.922 202.747 437.534 203.191 437.201L206.565 434.241C209.412 431.733 213.337 428.272 217.526 424.284C221.714 420.296 225.401 416.571 228.035 413.849C229.289 412.595 230.318 411.479 231.158 410.626C231.538 410.206 231.958 409.824 232.412 409.485C232.134 409.965 231.797 410.407 231.409 410.802C230.731 411.617 229.716 412.771 228.436 414.176C225.928 416.997 222.266 420.797 218.052 424.785C213.839 428.773 209.876 432.21 206.941 434.618C205.461 435.872 204.257 436.775 203.404 437.414C202.972 437.779 202.501 438.094 202 438.355V438.355Z" fill="#E0E0E0"/>
<path d="M165.317 425.4C165.823 425.46 166.32 425.583 166.797 425.764L170.772 427.018C174.108 428.084 178.711 429.601 183.777 431.307C188.844 433.012 193.422 434.618 196.72 435.809L200.62 437.239C201.106 437.391 201.573 437.597 202.012 437.853C201.506 437.802 201.008 437.684 200.532 437.502L196.557 436.248C193.221 435.182 188.618 433.664 183.552 431.946C178.485 430.228 173.908 428.635 170.609 427.457L166.709 426.014C166.219 425.873 165.751 425.666 165.317 425.4V425.4Z" fill="#E0E0E0"/>
<path d="M169.556 476.881C170.201 476.978 170.836 477.137 171.45 477.358L176.541 478.913C180.83 480.255 186.737 482.148 193.259 484.293C199.78 486.437 205.662 488.394 209.913 489.861L214.93 491.617C215.554 491.817 216.162 492.064 216.748 492.357C216.099 492.261 215.46 492.102 214.842 491.88L209.75 490.325C205.461 488.983 199.554 487.09 193.033 484.945C186.512 482.801 180.63 480.832 176.391 479.377L171.374 477.608C170.748 477.421 170.139 477.178 169.556 476.881Z" fill="#E0E0E0"/>
<path d="M215.72 491.667C216.161 491.125 216.652 490.625 217.187 490.175L221.338 486.274C224.837 482.976 229.653 478.399 234.832 473.194C240.012 467.989 244.589 463.161 247.875 459.65L251.763 455.486C252.221 454.954 252.72 454.459 253.255 454.006C252.89 454.596 252.47 455.15 252.001 455.662C251.148 456.702 249.869 458.17 248.239 459.976C245.041 463.588 240.526 468.479 235.321 473.683C230.117 478.888 225.289 483.428 221.677 486.638C219.871 488.231 218.404 489.523 217.363 490.4C216.851 490.868 216.302 491.291 215.72 491.667V491.667Z" fill="#E0E0E0"/>
<path d="M91.0108 64.6546L78.7707 60.8923C78.7707 60.8923 75.5602 71.176 64.825 68.0282C62.7467 67.4559 60.8976 66.2517 59.5338 64.5823C58.17 62.9129 57.3588 60.8608 57.2125 58.7101C57.0518 56.8965 57.3264 55.0706 58.0136 53.3845C58.7007 51.6984 59.7804 50.2006 61.163 49.0158C64.3108 46.2317 69.8289 44.5387 77.6169 48.5644L86.2327 20.9739L74.1305 17.2116L69.114 33.3771C69.114 33.3771 50.7538 32.4616 44.9222 51.1604C39.3414 69.0565 54.0898 78.2241 60.9623 80.3686C66.1794 81.999 84.502 86.3131 91.0108 64.6546Z" fill="#F5F5F5"/>
<path d="M75.7699 11.469L88.053 15.3018L91.6318 3.83281L79.3487 -7.64989e-07L75.7699 11.469Z" fill="#F5F5F5"/>
<path d="M124.784 33.5025L129.688 32.2484C129.538 31.6915 129.502 31.1102 129.581 30.539C129.661 29.9679 129.854 29.4185 130.15 28.9237C130.446 28.4288 130.839 27.9984 131.304 27.6583C131.77 27.3181 132.299 27.075 132.861 26.9435C133.678 26.6968 134.551 26.7104 135.36 26.9823C136.169 27.2542 136.873 27.7709 137.375 28.461C137.802 29.0339 138.086 29.6996 138.206 30.4036C138.326 31.1076 138.278 31.83 138.065 32.5117C137.601 34.1045 136.109 35.8351 132.647 36.1236L135.569 47.1723L140.41 45.9182L138.705 39.447C140.54 38.3397 141.961 36.6594 142.748 34.665C143.534 32.6707 143.642 30.473 143.056 28.4108C141.175 21.2373 134.278 21.2749 131.556 21.9897C129.449 22.4788 122.414 24.8742 124.784 33.5025Z" fill="#EBEBEB"/>
<path d="M142.118 47.5295L137.179 48.8533L138.415 53.4638L143.354 52.14L142.118 47.5295Z" fill="#EBEBEB"/>
<path d="M529.624 160.431L534.389 162.149C534.589 161.61 534.895 161.115 535.289 160.696C535.683 160.276 536.157 159.94 536.683 159.706C537.208 159.472 537.776 159.346 538.351 159.335C538.927 159.324 539.498 159.428 540.033 159.641C540.836 159.899 541.539 160.399 542.046 161.073C542.554 161.747 542.84 162.56 542.867 163.403C542.897 164.123 542.755 164.839 542.454 165.493C542.154 166.147 541.702 166.72 541.137 167.166C539.882 168.207 537.638 168.771 534.628 167.04L530.727 177.788L535.443 179.494L537.725 173.223C539.866 173.356 541.991 172.782 543.774 171.59C545.556 170.399 546.899 168.655 547.595 166.626C550.103 159.654 544.447 155.778 541.776 154.813C539.732 154.01 532.583 151.991 529.624 160.431Z" fill="#EBEBEB"/>
<path d="M534.738 181.672L529.95 179.938L528.332 184.407L533.119 186.141L534.738 181.672Z" fill="#EBEBEB"/>
<path d="M23.8656 215.01L33.8985 211.122C33.8985 211.122 30.6379 202.657 39.379 199.108C41.052 198.4 42.9033 198.229 44.6778 198.617C46.4523 199.006 48.0625 199.935 49.2865 201.278C50.3279 202.394 51.091 203.74 51.5138 205.206C51.9365 206.673 52.007 208.219 51.7195 209.718C51.0924 213.204 48.3334 217.242 41.0721 218.634L49.8508 241.372L59.8837 237.534L54.7419 224.215C54.7419 224.215 67.283 215.211 61.4012 199.785C55.695 185.037 41.0971 186.717 35.4913 188.887C31.1646 190.555 16.8175 197.289 23.8656 215.01Z" fill="#F5F5F5"/>
<path d="M61.7844 242.162L51.6616 246.062L55.3046 255.518L65.4274 251.618L61.7844 242.162Z" fill="#F5F5F5"/>
<path d="M533.549 253.273L526.401 256.02C526.401 256.02 528.708 262.027 522.513 264.535C521.327 265.031 520.017 265.15 518.76 264.876C517.504 264.602 516.362 263.949 515.49 263.005C514.752 262.214 514.212 261.26 513.913 260.22C513.615 259.18 513.566 258.085 513.772 257.023C514.223 254.515 516.18 251.705 521.296 250.752L515.151 234.587L508.078 237.308L511.715 246.752C509.141 248.721 507.285 251.481 506.433 254.608C505.581 257.735 505.78 261.056 507 264.058C511.025 274.505 521.334 273.326 525.347 271.784C528.382 270.592 538.54 265.827 533.549 253.273Z" fill="#F5F5F5"/>
<path d="M506.679 234.032L513.853 231.268L511.274 224.575L504.1 227.338L506.679 234.032Z" fill="#F5F5F5"/>
<path d="M553.74 530.595C553.74 530.783 429.772 530.921 276.883 530.921C123.994 530.921 0 530.783 0 530.595C0 530.407 123.944 530.269 276.883 530.269C429.822 530.269 553.74 530.419 553.74 530.595Z" fill="#263238"/>
<path d="M79.5232 498.025C80.7773 493.41 77.6797 488.783 74.2936 485.484C70.9075 482.186 66.8567 479.151 65.0884 474.724C62.229 467.551 66.0666 458.27 61.2006 452.288C58.3287 448.776 53.1869 447.598 50.641 443.835C49.4639 441.762 48.6855 439.486 48.346 437.126C45.6399 425.211 39.7792 414.243 31.3779 405.372C30.8115 415.985 33.1117 426.554 38.0372 435.972C40.0061 439.734 42.4391 443.396 43.0536 447.598C44.1196 454.407 40.3071 461.393 41.9876 468.115C43.9064 475.765 52.4971 480.894 52.8984 488.77C53.2496 495.429 47.443 501.311 47.882 507.933C48.2337 510.769 49.2616 513.478 50.8793 515.834C56.0212 524.399 63.596 530.294 75.0586 530.106L89.1046 530.595L79.5232 498.025Z" fill="#1D6ACB"/>
<g opacity="0.3">
<path opacity="0.3" d="M79.5232 498.025C80.7773 493.41 77.6797 488.783 74.2936 485.484C70.9075 482.186 66.8567 479.151 65.0884 474.724C62.229 467.551 66.0666 458.27 61.2006 452.288C58.3287 448.776 53.1869 447.598 50.641 443.835C49.4639 441.762 48.6855 439.486 48.346 437.126C45.6399 425.211 39.7792 414.243 31.3779 405.372C30.8115 415.985 33.1117 426.554 38.0372 435.972C40.0061 439.734 42.4391 443.396 43.0536 447.598C44.1196 454.407 40.3071 461.393 41.9876 468.115C43.9064 475.765 52.4971 480.894 52.8984 488.77C53.2496 495.429 47.443 501.311 47.882 507.933C48.2337 510.769 49.2616 513.478 50.8793 515.834C56.0212 524.399 63.596 530.294 75.0586 530.106L89.1046 530.595L79.5232 498.025Z" fill="black"/>
</g>
<path d="M91.939 530.883C93.2254 531.082 94.5365 531.056 95.8142 530.808C97.3656 530.572 98.8902 530.186 100.367 529.654C102.406 528.945 104.313 527.903 106.01 526.569C107.031 525.748 107.829 524.682 108.33 523.471C108.75 522.114 108.969 520.703 108.982 519.283C109.011 517.764 109.124 516.249 109.321 514.743C109.585 513.14 110.165 511.605 111.027 510.228C112.682 507.318 115.441 504.559 116.319 500.609C117.197 496.658 116.595 492.52 115.943 488.306C115.291 484.092 114.689 479.527 116.269 475.113C117.849 470.698 120.859 466.748 122.401 461.807C123.944 456.866 123.217 451.423 123.543 446.118C123.639 443.423 124.261 440.773 125.374 438.317C126.502 435.809 128.083 433.489 129.312 430.88C131.82 425.588 132.246 419.593 132.923 413.712C133.262 410.752 133.588 407.755 133.927 404.745C134.14 401.702 134.665 398.688 135.494 395.753C136.446 392.793 137.568 389.891 138.855 387.062C139.518 385.598 140.063 384.084 140.486 382.534C140.722 380.93 140.873 379.314 140.937 377.693C141.087 374.449 140.961 371.197 140.561 367.974C140.185 364.738 139.595 361.528 139.244 358.28C139.244 358.079 139.244 357.891 139.244 357.715L139.169 357.076L138.605 357.352C135.639 358.873 133.064 361.058 131.08 363.735C129.133 366.357 127.567 369.241 126.427 372.301C124.082 378.333 123.242 384.654 122.063 390.686C120.884 396.718 119.379 402.65 116.294 407.667C114.751 410.175 112.883 412.457 111.277 414.89C109.534 417.265 108.343 419.998 107.791 422.892C106.951 428.836 110.224 434.053 109.547 439.32C109.241 441.901 108.386 444.385 107.039 446.607C105.784 448.852 104.267 450.934 102.837 453.015C101.388 455.057 100.129 457.228 99.0749 459.499C98.0829 461.722 97.4968 464.105 97.3442 466.535C97.0056 471.275 97.6703 475.765 97.3442 480.004C96.9527 484.044 95.7724 487.968 93.8704 491.554C92.1773 495.003 90.2836 498.126 88.7034 501.161C87.9133 502.666 87.1734 504.146 86.5714 505.638C86.0018 507.071 85.5815 508.558 85.3173 510.077C84.8976 512.73 84.8638 515.429 85.217 518.091C85.5854 521.803 86.9745 525.341 89.2301 528.312C89.575 528.761 89.9567 529.181 90.3714 529.566C90.6483 529.857 90.9552 530.118 91.2869 530.344C91.8136 530.733 92.0895 530.908 92.0895 530.908C91.0869 530.116 90.1743 529.216 89.3681 528.224C87.2149 525.243 85.9143 521.731 85.6058 518.066C85.2864 515.438 85.3455 512.777 85.7813 510.165C86.0454 508.683 86.4658 507.232 87.0354 505.839C87.6709 504.33 88.3868 502.856 89.18 501.424C90.7727 498.414 92.6789 495.304 94.4096 491.83C96.3685 488.188 97.5875 484.194 97.9964 480.079C98.3726 475.752 97.7205 471.238 98.0716 466.623C98.2332 464.271 98.8062 461.966 99.7647 459.813C100.825 457.588 102.084 455.464 103.527 453.467C104.957 451.385 106.474 449.303 107.778 447.008C109.21 444.702 110.125 442.114 110.462 439.421C111.139 433.815 107.891 428.573 108.732 423.042C109.281 420.276 110.433 417.664 112.105 415.392C113.698 412.997 115.579 410.714 117.122 408.143C120.32 402.989 121.862 396.944 123.028 390.887C124.195 384.829 125.06 378.559 127.368 372.639C128.478 369.664 130.002 366.861 131.895 364.312C133.804 361.743 136.28 359.648 139.131 358.192L138.492 357.828C138.492 358.016 138.492 358.205 138.554 358.405C138.906 361.691 139.495 364.901 139.808 368.112C140.204 371.285 140.326 374.487 140.172 377.681C140.109 379.251 139.966 380.816 139.746 382.371C139.34 383.871 138.812 385.335 138.166 386.748C136.871 389.608 135.741 392.539 134.779 395.527C133.944 398.509 133.414 401.568 133.199 404.657C132.873 407.679 132.535 410.677 132.209 413.636C131.531 419.543 131.092 425.437 128.697 430.542C127.443 433.05 125.938 435.445 124.772 438.004C123.624 440.552 122.985 443.3 122.89 446.093C122.577 451.51 123.279 456.815 121.812 461.606C120.345 466.397 117.297 470.385 115.755 474.912C114.212 479.44 114.776 484.23 115.454 488.431C116.131 492.633 116.808 496.771 115.905 500.496C115.002 504.221 112.419 507.005 110.738 509.99C109.852 511.427 109.26 513.025 108.995 514.693C108.805 516.215 108.705 517.748 108.694 519.283C108.696 520.668 108.493 522.045 108.092 523.371C107.627 524.52 106.881 525.533 105.922 526.318C104.27 527.65 102.41 528.701 100.417 529.428C98.9598 529.99 97.4521 530.41 95.9146 530.683C94.9749 530.853 94.0227 530.945 93.0677 530.958C92.2776 530.883 91.939 530.883 91.939 530.883Z" fill="#263238"/>
<path d="M136.309 365.466C136.242 365.6 136.196 365.744 136.171 365.892L135.87 367.146C135.595 368.262 135.256 369.93 134.729 372.012C134.202 374.094 132.911 376.452 131.82 379.349C130.542 382.61 129.428 385.934 128.484 389.306C127.405 393.069 126.465 397.207 125.461 401.672C124.609 406.428 123.098 411.041 120.972 415.379C119.818 417.662 118.463 419.969 117.498 422.503C116.485 425.09 115.807 427.795 115.479 430.554C114.765 436.268 113.752 441.94 112.444 447.547C109.634 459.048 106.951 470.009 104.505 479.991C102.06 489.974 99.752 498.903 97.8458 506.453C95.9395 514.003 94.4973 520.023 93.4438 524.324C92.9547 526.381 92.566 527.999 92.2901 529.19C92.1772 529.704 92.0769 530.118 92.0016 530.444C91.9877 530.59 91.9877 530.737 92.0016 530.883C92.0745 530.753 92.1293 530.614 92.1647 530.469C92.2524 530.131 92.3779 529.729 92.5283 529.215C92.8419 528.049 93.2808 526.431 93.8452 524.387C94.9739 520.123 96.5666 514.066 98.5355 506.604C100.505 499.142 102.8 490.112 105.37 480.192C107.941 470.272 110.55 459.236 113.384 447.723C114.684 442.101 115.673 436.411 116.344 430.68C116.664 427.987 117.322 425.345 118.3 422.816C119.291 420.308 120.558 418.063 121.712 415.756C124.22 411.178 125.211 406.262 126.201 401.835C127.192 397.408 128.07 393.219 129.098 389.482C130.127 385.745 131.205 382.409 132.284 379.524C133.362 376.64 134.554 374.257 135.068 372.1C135.582 369.943 135.82 368.338 136.046 367.184C136.13 366.666 136.205 366.248 136.272 365.93C136.309 365.616 136.334 365.466 136.309 365.466Z" fill="#263238"/>
<path d="M94.4221 530.946C103.59 525.49 106.223 508.936 102.398 498.979C98.5732 489.021 91.8763 479.916 90.8479 469.294C90.0453 461.129 92.7291 452.752 90.8479 444.776C88.277 434.003 77.7675 425.663 77.8929 414.589C77.9556 408.382 81.4922 402.537 81.2038 396.33C80.8652 388.73 75.021 382.685 71.4092 375.988C65.866 365.717 65.5023 353.589 63.6086 342.127C61.7149 330.664 57.338 318.299 47.1296 312.643C45.6246 322.412 43.0537 329.109 43.8563 342.34C44.1573 347.093 49.6754 356.135 50.4279 366.607C50.8794 372.878 51.1803 379.073 51.5691 385.293C51.9579 391.514 52.3341 397.533 54.5037 403.202C56.1717 407.554 58.843 411.504 60.0845 415.994C62.4046 424.434 59.3446 433.552 61.2258 442.13C62.8185 449.378 67.835 455.611 68.8633 462.96C70.293 473.282 63.6211 484.017 67.0323 493.862C68.7379 498.753 72.7511 502.641 73.8923 507.72C74.7827 511.633 73.8171 515.784 74.6197 519.709C75.8738 526.055 87.9885 530.996 94.4472 530.582" fill="#1D6ACB"/>
<path d="M49.6378 322.287C49.6207 322.47 49.6207 322.655 49.6378 322.839C49.6378 323.252 49.7632 323.779 49.8385 324.444C50.0517 325.861 50.29 327.93 50.7665 330.614C51.2431 333.298 52.6728 336.333 53.7764 339.995C54.88 343.657 56.1091 347.846 57.1374 352.536C58.1658 357.226 59.0688 362.456 59.9843 368.062C60.8998 373.668 61.903 379.775 64.6872 385.619C65.9413 388.541 67.4211 391.476 68.4495 394.611C69.5032 397.821 70.152 401.149 70.3808 404.519C70.8936 411.669 71.7937 418.786 73.0772 425.839C75.8864 440.311 78.5577 454.094 80.9906 466.648C83.4236 479.201 85.8691 490.4 87.8255 499.882C89.782 509.363 91.3872 516.937 92.5034 522.28L93.7575 528.362C93.908 529.015 94.0209 529.529 94.1212 529.93C94.1551 530.114 94.2055 530.294 94.2717 530.469C94.2939 530.286 94.2939 530.101 94.2717 529.917C94.1964 529.504 94.1086 528.989 93.9958 528.325C93.7199 526.87 93.3311 524.813 92.842 522.205C91.7885 516.85 90.3338 509.2 88.4401 499.756C86.5463 490.313 84.3015 478.988 81.8058 466.485C79.3101 453.981 76.7894 440.148 73.9676 425.688C72.6833 418.635 71.779 411.518 71.2587 404.368C71.02 400.929 70.3501 397.533 69.2647 394.26C68.1485 391.075 66.6812 388.128 65.3895 385.218C62.6304 379.462 61.6271 373.454 60.674 367.874C59.7209 362.293 58.8054 357.051 57.7143 352.335C56.6232 347.62 55.4318 343.406 54.2028 339.794C52.9738 336.182 51.6068 333.122 51.055 330.501C50.5032 327.88 50.2398 325.773 49.9764 324.381C49.851 323.729 49.7507 323.202 49.6755 322.788C49.6728 322.621 49.6603 322.453 49.6378 322.287V322.287Z" fill="#263238"/>
<path d="M491.913 60.3028H486.896C486.9 60.8718 486.789 61.4357 486.571 61.961C486.352 62.4864 486.031 62.9626 485.625 63.3614C485.219 63.7602 484.737 64.0735 484.208 64.2827C483.679 64.4919 483.113 64.5928 482.544 64.5794C481.704 64.6095 480.876 64.3768 480.175 63.9137C479.473 63.4506 478.934 62.7801 478.632 61.9959C478.367 61.3428 478.261 60.6365 478.322 59.9346C478.384 59.2328 478.61 58.5553 478.983 57.9576C479.836 56.553 481.692 55.2864 485.053 55.8758V44.5888H480.124V51.1854C478.102 51.7808 476.33 53.0234 475.082 54.7225C473.834 56.4216 473.177 58.4833 473.214 60.5913C473.214 67.8902 479.76 69.5833 482.57 69.5833C484.714 69.6334 492.013 69.1192 491.913 60.3028Z" fill="#1D6ACB"/>
<path d="M480.086 42.3063H485.09V37.6285H480.086V42.3063Z" fill="#1D6ACB"/>
<path d="M519.265 53.631C519.282 53.4181 519.282 53.2042 519.265 52.9914C519.265 52.5399 519.265 51.9254 519.265 51.1353C519.265 50.734 519.265 50.2699 519.202 49.7683C519.14 49.2666 519.064 48.7148 518.977 48.1379C518.889 47.5611 518.801 46.8838 518.701 46.2192L518.174 44.0872C517.242 40.4156 515.717 36.9208 513.659 33.7407C510.67 29.0313 506.642 25.0698 501.883 22.1609C497.124 19.252 491.761 17.473 486.207 16.9607C484.539 16.8134 482.863 16.7799 481.19 16.8604C480.35 16.8604 479.485 16.8604 478.682 17.0234L476.098 17.4122C472.554 18.071 469.123 19.2412 465.915 20.8861C462.566 22.6585 459.487 24.901 456.773 27.5454C453.994 30.362 451.671 33.5946 449.888 37.1268C447.969 40.7684 446.712 44.7217 446.175 48.8026C446.019 49.8366 445.931 50.8798 445.912 51.9254C445.828 52.9724 445.807 54.0236 445.849 55.0732C446.122 61.8008 448.225 68.3265 451.932 73.9476V73.5588C450.189 77.9106 448.47 82.1871 446.79 86.3507L446.489 87.1157L447.279 86.89L460.949 83.1277L460.623 83.0524C465.227 86.5377 470.59 88.8842 476.274 89.8999C478.911 90.3914 481.598 90.5556 484.275 90.389C485.566 90.3697 486.854 90.2481 488.125 90.0253L489.994 89.7368C490.609 89.624 491.248 89.4358 491.8 89.2979C500.224 87.1632 507.613 82.0995 512.643 75.0136C514.52 72.4031 516.026 69.546 517.121 66.5232C517.359 65.8585 517.585 65.2691 517.798 64.617C518.011 63.9648 518.124 63.3629 518.262 62.7985C518.4 62.2342 518.55 61.6573 518.676 61.1305C518.801 60.6038 518.839 60.0896 518.914 59.6005C519.027 58.6349 519.202 57.7821 519.24 57.0923C519.278 56.4025 519.24 55.7379 519.24 55.2111C519.24 54.6844 519.24 54.3583 519.24 54.0699C519.24 53.7815 519.24 53.6811 519.24 53.6811C519.221 53.81 519.221 53.941 519.24 54.0699C519.24 54.3583 519.24 54.7346 519.152 55.2111C519.064 55.6877 519.077 56.3524 519.027 57.0798C518.977 57.8071 518.788 58.6599 518.638 59.588C517.442 66.529 514.256 72.9733 509.467 78.1383C504.678 83.3032 498.493 86.9666 491.662 88.6834C491.073 88.8213 490.483 88.9969 489.881 89.1098L488.038 89.3857C486.794 89.5933 485.536 89.7065 484.275 89.7243C481.647 89.8628 479.012 89.6902 476.425 89.2101C470.873 88.1885 465.638 85.8822 461.137 82.4755L460.986 82.3501H460.798L447.116 86.1124L447.593 86.6517L452.747 73.8723L452.822 73.6717L452.709 73.4835C450.24 69.7473 448.487 65.5837 447.542 61.2058C447.109 59.1747 446.849 57.1106 446.765 55.0356C446.723 54.011 446.744 52.9849 446.828 51.963C446.835 50.9423 446.919 49.9237 447.078 48.9155C447.56 44.9302 448.744 41.0619 450.577 37.4905C452.32 34.0385 454.583 30.8747 457.287 28.1098C459.943 25.5137 462.959 23.3132 466.241 21.5759C469.378 19.9443 472.737 18.7823 476.211 18.1271L478.72 17.7383C479.56 17.6129 480.4 17.6254 481.228 17.5627C482.863 17.4849 484.501 17.5143 486.131 17.6505C491.594 18.1287 496.877 19.8455 501.577 22.6704C506.277 25.4954 510.272 29.3542 513.258 33.9539C515.327 37.0785 516.877 40.5174 517.848 44.1373L518.412 46.2442C518.525 46.9089 518.625 47.4983 518.726 48.1254C518.826 48.7525 518.901 49.2541 518.989 49.7558C519.077 50.2574 519.052 50.7089 519.089 51.1102C519.089 51.8877 519.19 52.5023 519.227 52.9537C519.204 53.18 519.216 53.4087 519.265 53.631V53.631Z" fill="#263238"/>
<path d="M145.276 201.528H217.701C217.701 201.528 217.701 140.717 280.896 139.638C313.716 139.061 330.734 160.569 337.657 177.036C345.683 196.161 343.25 217.957 332.49 235.703C320.212 255.957 293.75 276.311 244.94 267.708L244.476 429.074H316.099V333.411C316.099 333.411 416.541 307.451 416.541 196.713C416.541 90.8028 330.897 67.9279 284.859 66.448C259.25 65.6328 249.969 64.5292 218.291 69.0315C177.921 74.8004 144.423 121.679 145.276 201.528Z" fill="#1D6ACB"/>
<path d="M316.964 462.71H244.276V530.595H316.964V462.71Z" fill="#1D6ACB"/>
<path opacity="0.1" d="M316.964 462.71H244.276V530.595H316.964V462.71Z" fill="black"/>
<path opacity="0.1" d="M145.276 201.528H217.701C217.701 201.528 217.701 140.717 280.896 139.638C313.716 139.061 330.734 160.569 337.657 177.036C345.683 196.161 343.25 217.957 332.49 235.703C320.212 255.957 293.75 276.311 244.94 267.708L244.476 429.074H316.099V333.411C316.099 333.411 416.541 307.451 416.541 196.713C416.541 90.8028 330.897 67.9279 284.859 66.448C259.25 65.6328 249.969 64.5292 218.291 69.0315C177.921 74.8004 144.423 121.679 145.276 201.528Z" fill="black"/>
<path d="M115.265 201.528H187.703C187.703 201.528 187.703 140.716 250.897 139.638C283.718 139.061 300.736 160.569 307.646 177.036C315.685 196.161 313.252 217.957 302.492 235.703C290.214 255.957 263.288 274.367 214.478 265.802V429.074H286.1V333.411C286.1 333.411 386.542 307.451 386.542 196.713C386.542 90.8028 291.556 66.2097 250.91 66.2097C219.821 66.2473 113.898 73.7595 115.265 201.528Z" fill="#1D6ACB"/>
<path opacity="0.3" d="M115.265 201.528H187.703C187.703 201.528 187.703 140.716 250.897 139.638C283.718 139.061 300.736 160.569 307.646 177.036C315.685 196.161 313.252 217.957 302.492 235.703C290.214 255.957 263.288 274.367 214.478 265.802V429.074H286.1V333.411C286.1 333.411 386.542 307.451 386.542 196.713C386.542 90.8028 291.556 66.2097 250.91 66.2097C219.821 66.2473 113.898 73.7595 115.265 201.528Z" fill="black"/>
<path d="M286.966 462.71H214.277V530.595H286.966V462.71Z" fill="#1D6ACB"/>
<path opacity="0.3" d="M286.966 462.71H214.277V530.595H286.966V462.71Z" fill="black"/>
<path d="M259.074 139.964C258.715 139.995 258.355 139.995 257.996 139.964C257.281 139.964 256.252 139.726 254.911 139.713C251.117 139.527 247.313 139.686 243.548 140.19C237.965 140.897 232.471 142.187 227.157 144.04C224.024 145.135 220.973 146.451 218.027 147.978C214.842 149.569 211.844 151.508 209.085 153.759C206.346 156.031 203.891 158.625 201.774 161.485C199.767 164.129 197.936 166.902 196.293 169.787C193.551 174.7 191.375 179.908 189.81 185.313C188.748 188.96 188.018 192.696 187.627 196.474C187.477 197.804 187.439 198.857 187.402 199.559C187.403 199.921 187.369 200.282 187.301 200.638C187.269 200.279 187.269 199.918 187.301 199.559C187.301 198.845 187.301 197.791 187.414 196.449C187.703 192.63 188.371 188.849 189.408 185.162C190.917 179.695 193.063 174.425 195.804 169.461C197.45 166.544 199.29 163.742 201.31 161.071C203.445 158.164 205.93 155.531 208.709 153.233C211.501 150.951 214.538 148.986 217.764 147.376C220.728 145.821 223.8 144.48 226.956 143.363C232.319 141.517 237.865 140.255 243.498 139.6C247.288 139.135 251.115 139.046 254.923 139.337C255.958 139.403 256.988 139.529 258.008 139.713C258.369 139.772 258.725 139.856 259.074 139.964Z" fill="#263238"/>
<path d="M368.207 127.059C368.207 127.059 368.119 126.971 367.969 126.783C367.818 126.595 367.593 126.269 367.342 125.905L364.946 122.519C364.432 121.792 363.88 120.952 363.228 120.086L360.971 117.34L358.387 114.167C357.447 113.063 356.343 111.997 355.239 110.831C354.136 109.665 353.007 108.423 351.728 107.232C350.449 106.04 349.082 104.824 347.677 103.57C346.975 102.943 346.285 102.316 345.533 101.651L343.2 99.8074C341.607 98.5533 340.027 97.2991 338.309 96.045C330.82 90.687 322.876 85.9954 314.569 82.0241L307.959 79.0393L301.4 76.5311C299.256 75.6406 297.074 75.0136 294.967 74.3113C292.86 73.609 290.803 72.8941 288.696 72.405L282.702 70.8374C280.758 70.3232 278.826 70.0097 276.983 69.5833C275.139 69.1569 273.359 68.7807 271.615 68.5675L266.599 67.8401C263.426 67.3008 260.516 67.1879 257.983 66.9371C256.729 66.8368 255.475 66.6988 254.434 66.6487L251.449 66.5734L247.311 66.4355H246.232H245.868C245.989 66.4167 246.112 66.4167 246.232 66.4355H247.311H251.449H254.447C255.538 66.4355 256.729 66.586 258.008 66.6737C260.516 66.8869 263.476 66.9747 266.649 67.4889L271.665 68.1661C273.409 68.3668 275.19 68.8183 277.046 69.1569C278.902 69.4955 280.808 69.8466 282.802 70.411L288.822 71.9661C290.904 72.4427 292.96 73.2202 295.092 73.8598C297.224 74.4994 299.394 75.1139 301.538 76.067L308.135 78.5753L314.782 81.5726C323.133 85.553 331.108 90.2793 338.61 95.6939C340.341 96.948 341.921 98.2899 343.514 99.5315L345.846 101.225C346.599 101.852 347.288 102.479 347.991 103.156L352.029 106.918C353.283 108.172 354.412 109.426 355.528 110.568C356.644 111.709 357.71 112.825 358.651 113.941L361.159 117.139L363.391 119.923C364.031 120.801 364.57 121.654 365.072 122.432C366.05 123.899 366.815 125.053 367.354 125.88L367.944 126.796C368.042 126.872 368.131 126.96 368.207 127.059V127.059Z" fill="#263238"/>
<path d="M360.657 282.569C360.508 282.841 360.327 283.093 360.118 283.322L358.387 285.366C357.673 286.281 356.77 287.372 355.653 288.589C354.537 289.805 353.346 291.235 351.891 292.715C350.436 294.195 348.881 295.85 347.113 297.518C345.345 299.186 343.426 300.942 341.382 302.773C332.416 310.599 322.587 317.377 312.086 322.977C309.653 324.231 307.358 325.485 305.138 326.45C302.918 327.416 300.849 328.407 298.943 329.209C297.036 330.012 295.28 330.677 293.75 331.266C292.22 331.856 290.879 332.332 289.775 332.683L287.267 333.499C286.976 333.614 286.673 333.698 286.364 333.749C286.634 333.595 286.92 333.469 287.217 333.373L289.725 332.445C290.816 332.056 292.133 331.555 293.65 330.928C295.168 330.301 296.923 329.674 298.805 328.783C300.686 327.893 302.768 327.052 304.937 325.961C307.107 324.87 309.427 323.716 311.847 322.45C316.625 319.816 321.78 316.731 326.984 313.169C332.189 309.608 336.867 305.858 341.03 302.321C343.075 300.515 345.031 298.822 346.774 297.117C348.518 295.411 350.148 293.869 351.59 292.389C353.032 290.909 354.299 289.542 355.428 288.338C356.556 287.134 357.484 286.081 358.237 285.203L359.993 283.209C360.197 282.978 360.419 282.764 360.657 282.569V282.569Z" fill="#263238"/>
<path d="M284.834 423.381C284.646 423.381 284.495 403.24 284.495 378.396C284.495 353.552 284.646 333.398 284.834 333.398C285.022 333.398 285.16 353.539 285.16 378.396C285.16 403.252 285.009 423.381 284.834 423.381Z" fill="#263238"/>
<path d="M287.593 525.992C287.405 525.992 287.267 511.858 287.267 494.426C287.267 476.994 287.405 462.848 287.593 462.848C287.781 462.848 287.919 476.981 287.919 494.426C287.919 511.871 287.768 525.992 287.593 525.992Z" fill="#263238"/>
<path d="M358.889 191.909C357.635 194.418 362.313 196.474 365.009 197.289C367.76 197.965 370.607 198.16 373.424 197.866C377.187 197.666 381.037 197.315 384.285 195.458C387.129 193.696 389.403 191.148 390.831 188.122C392.239 185.105 393.352 181.96 394.155 178.729C394.155 178.729 364.52 180.66 358.889 191.909Z" fill="#1D6ACB"/>
<g opacity="0.4">
<path opacity="0.4" d="M358.889 191.909C357.635 194.418 362.313 196.474 365.009 197.289C367.76 197.965 370.607 198.16 373.424 197.866C377.187 197.666 381.037 197.315 384.285 195.458C387.129 193.696 389.403 191.148 390.831 188.122C392.239 185.105 393.352 181.96 394.155 178.729C394.155 178.729 364.52 180.66 358.889 191.909Z" fill="black"/>
</g>
<path d="M442.589 183.883C447.474 187.348 453.329 189.183 459.318 189.125C462.19 189.285 465.021 188.393 467.282 186.617C468.248 185.727 468.975 184.598 469.966 183.745C470.643 183.168 471.433 182.729 472.073 182.115C472.41 181.824 472.671 181.454 472.83 181.038C472.99 180.623 473.044 180.174 472.988 179.732C472.741 178.643 472.13 177.67 471.258 176.973C467.859 175.041 463.796 175.117 459.883 175.205C455.967 175.374 452.099 176.131 448.408 177.449C445.373 178.478 442.2 179.958 440.657 182.717" fill="#1D6ACB"/>
<g opacity="0.4">
<path opacity="0.4" d="M472.988 179.732C472.545 178.674 471.765 177.792 470.768 177.224C467.37 175.292 463.796 175.117 459.883 175.205C455.967 175.374 452.099 176.131 448.408 177.449C445.373 178.478 442.2 179.958 440.657 182.717L442.589 183.883C447.474 187.348 453.329 189.183 459.318 189.125C462.19 189.285 465.021 188.393 467.282 186.617C468.248 185.727 468.975 184.598 469.966 183.745C470.643 183.168 471.433 182.729 472.073 182.115C472.41 181.824 472.671 181.454 472.83 181.038C472.99 180.623 473.044 180.174 472.988 179.732V179.732Z" fill="black"/>
</g>
<path d="M384.724 228.893L447.241 229.721C447.369 229.72 447.494 229.69 447.608 229.633C447.721 229.575 447.82 229.492 447.895 229.39C447.971 229.287 448.021 229.169 448.043 229.043C448.064 228.918 448.056 228.789 448.019 228.667L440.682 205.792C440.682 205.792 441.761 194.355 443.253 180.61C445.523 159.729 448.546 133.48 448.583 133.555C444.307 121.566 419.074 119.535 419.074 119.535L390.317 121.24L389.314 119.547L381.037 123.397C379.232 124.237 377.495 125.218 375.845 126.332C370.377 129.981 357.209 138.371 354.801 147.714C349.245 169.348 358.651 193.489 358.651 193.489L364.696 188.761C366.218 187.588 367.819 186.52 369.486 185.563L381.601 218.032C380.88 218.487 380.27 219.097 379.814 219.817C379.359 220.537 379.069 221.35 378.968 222.196C378.867 224.83 380.222 227.99 384.724 228.893" fill="#1D6ACB"/>
<g opacity="0.3">
<path opacity="0.3" d="M411.549 190.618C413.531 179.958 412.49 168.997 411.424 158.211C407.963 166.99 408.088 177.023 404.413 185.727C403.963 186.646 403.634 187.619 403.435 188.624C403.339 189.128 403.365 189.648 403.508 190.14C403.652 190.633 403.911 191.084 404.263 191.458C405.266 192.373 406.771 191.872 408.101 191.721C409.291 191.494 410.449 191.124 411.549 190.618" fill="black"/>
</g>
<g opacity="0.4">
<path opacity="0.4" d="M388.486 215.298C393.503 217.042 398.845 213.794 404.15 213.217C407.661 212.84 411.173 213.643 414.659 214.207C421.709 215.348 428.882 215.525 435.979 214.734C437.068 214.674 438.134 214.397 439.115 213.919C439.621 213.574 440.036 213.11 440.322 212.568C440.608 212.026 440.758 211.422 440.758 210.809C428.944 209.555 417.143 208.877 405.329 207.661C402.388 207.159 399.377 207.257 396.475 207.949C392.913 209.053 390.204 211.85 387.696 214.621" fill="black"/>
</g>
<path d="M471.182 175.618C466.078 164.118 448.082 132.314 448.082 132.314L434.148 149.784L437.397 184.084C437.397 184.084 444.758 175.869 465.338 175.706C466.834 175.766 468.297 176.16 469.621 176.858C470.945 177.557 472.095 178.543 472.988 179.744L471.182 175.618Z" fill="#1D6ACB"/>
<path d="M387.521 169.536C386.527 167.098 385.738 164.581 385.163 162.011C384.384 159.508 383.813 156.946 383.457 154.349C384.437 156.791 385.221 159.307 385.802 161.873C386.582 164.377 387.156 166.939 387.521 169.536V169.536Z" fill="#263238"/>
<path d="M433.095 147.464C433.549 147.784 433.969 148.15 434.349 148.555C435.457 149.625 436.496 150.764 437.459 151.966C440.702 155.93 442.982 160.592 444.119 165.586C444.709 168.346 444.84 171.185 444.507 173.988C444.194 176.559 443.705 178.816 443.379 180.723C443.053 182.629 442.852 184.184 442.752 185.263C442.749 185.823 442.69 186.382 442.576 186.931C442.487 186.371 442.462 185.803 442.501 185.237C442.556 183.701 442.698 182.168 442.927 180.647C443.191 178.729 443.63 176.446 443.918 173.925C444.208 171.185 444.06 168.417 443.479 165.723C442.356 160.823 440.177 156.227 437.096 152.254C434.801 149.169 432.995 147.564 433.095 147.464Z" fill="#263238"/>
<path d="M420.328 226.134C419.892 226.328 419.433 226.463 418.961 226.535C418.425 226.677 417.881 226.781 417.331 226.849C416.691 226.937 415.964 227.075 415.149 227.112C413.238 227.287 411.315 227.287 409.405 227.112C407.067 226.872 404.757 226.41 402.507 225.733C400.268 225.013 398.102 224.085 396.036 222.961C394.361 222.026 392.771 220.948 391.283 219.738C390.631 219.236 390.104 218.71 389.627 218.271C389.216 217.9 388.827 217.507 388.461 217.092C388.112 216.769 387.812 216.397 387.571 215.988C387.658 215.9 389 217.405 391.571 219.374C393.073 220.517 394.662 221.54 396.324 222.434C398.367 223.507 400.498 224.401 402.695 225.106C404.907 225.772 407.173 226.242 409.467 226.51C411.341 226.712 413.228 226.771 415.111 226.686C418.334 226.51 420.303 226.034 420.328 226.134Z" fill="#263238"/>
<path d="M439.629 219.011C439.924 219.578 440.091 220.203 440.118 220.842C440.318 222.37 440.203 223.924 439.779 225.407C439.349 226.923 438.475 228.277 437.271 229.294C436.356 230.059 435.653 230.298 435.616 230.235C435.578 230.172 436.168 229.758 436.958 228.981C437.972 227.923 438.709 226.63 439.102 225.219C440.105 221.908 439.391 219.023 439.629 219.011Z" fill="#263238"/>
<path d="M436.23 223.425C436.502 224.715 436.393 226.056 435.917 227.285C435.44 228.514 434.617 229.578 433.546 230.348C433.408 230.21 434.575 228.968 435.302 227.05C436.03 225.131 436.042 223.438 436.23 223.425Z" fill="#263238"/>
<path d="M425.043 182.165C424.379 183.288 423.633 184.361 422.811 185.375C422.163 186.508 421.429 187.59 420.616 188.611C420.857 187.287 421.427 186.046 422.272 184.999C422.94 183.835 423.894 182.859 425.043 182.165V182.165Z" fill="#263238"/>
<path d="M382.128 151.79C381.172 151.229 380.247 150.618 379.356 149.959C374.896 147.029 369.834 145.139 364.545 144.429C363.438 144.348 362.337 144.201 361.247 143.99C362.358 143.836 363.484 143.836 364.595 143.99C370.029 144.453 375.232 146.392 379.645 149.596C380.57 150.208 381.406 150.947 382.128 151.79Z" fill="#263238"/>
<path d="M448.081 131.9C445.837 133.708 443.74 135.691 441.811 137.832C440.035 140.117 438.445 142.541 437.058 145.081C437.206 144.227 437.499 143.404 437.923 142.648C438.831 140.767 439.969 139.007 441.309 137.406C442.654 135.808 444.196 134.388 445.899 133.179C446.548 132.63 447.286 132.198 448.081 131.9Z" fill="#263238"/>
<path d="M422.272 121.566C422.386 121.747 422.479 121.941 422.548 122.143C422.793 122.711 422.99 123.298 423.137 123.899C423.666 126.134 423.666 128.461 423.137 130.696C422.357 134.032 420.571 137.049 418.021 139.337C414.802 142.064 410.701 143.526 406.483 143.45C402.261 143.465 398.148 142.114 394.757 139.6C392.055 137.537 389.862 134.881 388.348 131.837C387.328 129.799 386.61 127.624 386.216 125.379C386.101 124.774 386.026 124.162 385.991 123.548C385.955 123.332 385.955 123.111 385.991 122.896C385.991 122.896 386.129 123.773 386.48 125.329C386.967 127.51 387.739 129.618 388.775 131.599C390.305 134.551 392.477 137.123 395.133 139.124C398.401 141.544 402.354 142.861 406.42 142.886C410.485 142.961 414.442 141.572 417.569 138.973C420.033 136.769 421.78 133.877 422.586 130.671C423.144 128.507 423.221 126.247 422.811 124.049C422.573 122.394 422.197 121.591 422.272 121.566Z" fill="#263238"/>
<g opacity="0.3">
<path opacity="0.3" d="M426.661 184.385C426.661 183.758 426.561 183.018 426.009 182.704C425.834 182.616 425.641 182.57 425.445 182.57C425.249 182.57 425.055 182.616 424.88 182.704C424.53 182.894 424.219 183.149 423.965 183.457C422.491 184.991 421.35 186.814 420.616 188.812L426.762 188.272C426.724 187.006 426.699 185.676 426.661 184.385Z" fill="black"/>
</g>
<g opacity="0.3">
<path opacity="0.3" d="M447.066 171.455C446.448 167.938 444.907 164.649 442.601 161.924C445.26 170.602 444.369 175.506 442.877 181.45L443.203 180.622C444.921 177.148 447.53 174.966 447.066 171.455Z" fill="black"/>
</g>
<path d="M434.788 462.986L431.038 519.233L406.583 518.944L402.733 460.465L434.788 462.986Z" fill="#FFBE9D"/>
<path d="M431.728 511.833V513.464C431.728 513.464 459.318 524.55 459.582 529.767L404.79 529.466L405.642 511.244C413.807 515.069 422.347 515.545 431.728 511.833Z" fill="#1D6ACB"/>
<path d="M411.198 517.088C410.678 517.245 410.233 517.587 409.947 518.048C409.661 518.51 409.553 519.06 409.643 519.596C409.777 520.131 410.113 520.593 410.581 520.886C411.049 521.178 411.612 521.278 412.151 521.164C412.709 520.997 413.185 520.629 413.487 520.13C413.788 519.632 413.893 519.039 413.782 518.467C413.583 517.926 413.181 517.483 412.661 517.232C412.142 516.982 411.545 516.944 410.997 517.126" fill="white"/>
<path d="M404.79 529.466L404.99 525.089L457.462 526.995C457.462 526.995 459.895 528.074 459.607 529.78L404.79 529.466Z" fill="#263238"/>
<path d="M431.929 513.614C431.929 513.877 430.574 513.99 429.258 514.868C427.941 515.746 427.226 516.837 426.988 516.737C426.749 516.636 427.151 515.081 428.768 514.078C430.386 513.075 431.991 513.326 431.929 513.614Z" fill="#263238"/>
<path d="M437.66 516.022C437.723 516.285 436.556 516.724 435.641 517.853C434.725 518.982 434.462 520.173 434.186 520.161C433.91 520.148 433.76 518.631 434.926 517.264C436.092 515.897 437.647 515.834 437.66 516.022Z" fill="#263238"/>
<path d="M440.883 522.92C440.632 522.92 440.268 521.665 440.971 520.173C441.673 518.681 442.915 518.141 443.027 518.355C443.14 518.568 442.363 519.358 441.773 520.574C441.184 521.791 441.159 522.894 440.883 522.92Z" fill="#263238"/>
<path d="M430.323 51.6244C431.741 48.1129 430.022 43.8614 426.975 41.5915C423.763 39.4772 419.847 38.7156 416.077 39.4721C412.357 40.2519 408.757 41.5168 405.367 43.2344C403.79 41.6446 401.803 40.5243 399.627 39.9985C397.451 39.4727 395.171 39.5621 393.043 40.2568C390.915 40.9515 389.022 42.2241 387.575 43.9324C386.128 45.6408 385.184 47.7178 384.849 49.9313C383.493 49.59 382.07 49.6244 380.732 50.0307C379.394 50.437 378.192 51.2 377.255 52.2377C376.318 53.2754 375.681 54.5487 375.413 55.921C375.144 57.2932 375.255 58.7127 375.732 60.0269L392.688 65.984L411.198 98.5909C413.934 100.925 417.425 102.184 421.021 102.133C424.617 102.082 428.071 100.725 430.739 98.314C433.408 95.9034 435.108 92.6044 435.523 89.0324C435.938 85.4604 435.039 81.8594 432.995 78.9013C434.032 77.979 434.913 76.8948 435.603 75.6908C437.082 74.8161 438.373 73.656 439.4 72.2781C440.427 70.9003 441.17 69.332 441.585 67.6645C443.228 60.4032 437.61 52.4772 430.323 51.6244Z" fill="#263238"/>
<path d="M419.099 119.535C418.046 114.23 417.318 110.593 417.331 110.63C417.343 110.668 427.364 106.743 426.636 92.7843C426.285 85.8366 423.639 74.8882 421.181 66.0091C418.974 58.0078 411.512 49.1914 403.623 51.7373L379.707 63.4005C377.312 64.1781 376.898 66.4355 377.463 68.881V70.1351L386.756 108.586L390.681 125.767C391.518 129.295 393.645 132.382 396.644 134.42C399.643 136.458 403.296 137.3 406.884 136.779C408.844 136.503 410.726 135.83 412.416 134.8C414.106 133.771 415.568 132.407 416.712 130.792C417.856 129.177 418.658 127.346 419.068 125.41C419.479 123.474 419.489 121.475 419.099 119.535V119.535Z" fill="#FFBE9D"/>
<path d="M421.093 75.2895C421.194 75.7345 421.12 76.2011 420.886 76.5931C420.653 76.9852 420.278 77.2727 419.839 77.3964C419.617 77.4583 419.386 77.4747 419.157 77.4446C418.929 77.4146 418.71 77.3387 418.512 77.2215C418.314 77.1044 418.141 76.9483 418.005 76.7629C417.869 76.5774 417.772 76.3663 417.72 76.1423C417.619 75.6989 417.694 75.234 417.927 74.844C418.161 74.454 418.535 74.1689 418.974 74.0479C419.194 73.984 419.426 73.9657 419.654 73.9942C419.882 74.0226 420.102 74.0972 420.3 74.2134C420.498 74.3295 420.671 74.4849 420.807 74.6699C420.944 74.8549 421.041 75.0657 421.093 75.2895V75.2895Z" fill="#263238"/>
<path d="M420.002 72.6182C419.826 72.8941 418.309 72.2043 416.453 72.6182C414.597 73.0321 413.418 74.236 413.167 74.0479C412.916 73.8598 413.167 73.5086 413.681 72.9568C414.371 72.2277 415.269 71.7286 416.252 71.5271C417.222 71.3179 418.234 71.4279 419.137 71.8407C419.839 72.1291 420.077 72.5053 420.002 72.6182Z" fill="#263238"/>
<path d="M402.883 79.403C402.984 79.8463 402.909 80.3113 402.676 80.7013C402.442 81.0912 402.068 81.3763 401.629 81.4973C401.413 81.5604 401.186 81.5798 400.962 81.5546C400.738 81.5293 400.521 81.4599 400.324 81.3502C400.126 81.2406 399.953 81.093 399.813 80.9159C399.674 80.7387 399.571 80.5357 399.51 80.3185C399.409 79.8735 399.483 79.4068 399.717 79.0148C399.95 78.6228 400.325 78.3353 400.764 78.2115C400.981 78.1487 401.209 78.1298 401.434 78.1558C401.659 78.1819 401.876 78.2524 402.073 78.3633C402.271 78.4742 402.444 78.6232 402.583 78.8017C402.722 78.9802 402.824 79.1846 402.883 79.403Z" fill="#263238"/>
<path d="M401.968 77.0452C401.805 77.3211 400.275 76.6188 398.419 77.0452C396.563 77.4716 395.384 78.6505 395.133 78.4749C394.882 78.2993 395.133 77.9356 395.647 77.3713C396.34 76.6487 397.237 76.1544 398.218 75.9541C399.187 75.7481 400.197 75.8535 401.103 76.2551C401.767 76.5561 402.056 76.8947 401.968 77.0452Z" fill="#263238"/>
<path d="M411.411 88.8339C412.331 88.3266 413.308 87.9309 414.321 87.655C414.785 87.5045 415.224 87.3164 415.236 86.9778C415.171 86.479 414.957 86.0115 414.622 85.6359L412.452 82.3C409.417 77.5469 407.11 73.609 407.298 73.5212C407.486 73.4334 410.107 77.1581 413.142 81.9112L415.261 85.2722C415.678 85.7866 415.904 86.4289 415.901 87.0907C415.864 87.2711 415.787 87.441 415.676 87.5884C415.566 87.7358 415.424 87.857 415.261 87.9435C415.016 88.0734 414.755 88.1703 414.484 88.2319C413.492 88.5716 412.458 88.7741 411.411 88.8339Z" fill="#263238"/>
<path d="M417.331 110.63C410.987 112.064 404.371 111.708 398.218 109.602C398.218 109.602 404.79 118.18 418.046 114.079L417.331 110.63Z" fill="#EB996E"/>
<path d="M402.281 74.3865C402.156 74.9258 400.237 74.9132 398.055 75.4525C395.873 75.9918 394.142 76.807 393.791 76.3806C393.641 76.1799 393.891 75.6532 394.556 75.1264C395.44 74.3825 396.489 73.862 397.616 73.609C398.733 73.3439 399.897 73.3439 401.015 73.609C401.905 73.772 402.369 74.1357 402.281 74.3865Z" fill="#263238"/>
<path d="M419.287 66.6988C418.986 67.2004 417.381 67.075 415.525 67.4387C413.669 67.8024 412.201 68.4295 411.763 68.0658C411.562 67.8777 411.763 67.4011 412.302 66.8117C413.13 66.1152 414.131 65.6559 415.199 65.4823C416.249 65.2707 417.337 65.3487 418.347 65.7081C419.112 66.0592 419.413 66.448 419.287 66.6988Z" fill="#263238"/>
<path d="M385.614 54.4211C385.892 55.7796 386.465 57.0604 387.293 58.1724C388.122 59.2844 389.185 60.2004 390.407 60.8552C391.629 61.51 392.981 61.8876 394.365 61.9612C395.75 62.0348 397.134 61.8026 398.419 61.281C400.4 60.4784 402.457 58.9735 404.464 59.7009C406.47 60.4282 407.298 63.2876 409.217 64.3536C412.038 65.9338 415.487 63.1998 418.635 63.4757C421.143 63.6889 423.037 65.6077 424.981 67.2381C426.925 68.8684 429.608 70.0974 431.803 68.9186C431.301 66.8242 430.556 64.7956 429.583 62.8738C428.603 60.939 426.98 59.4051 424.993 58.5345C423.89 58.0956 422.698 57.9451 421.645 57.4058C419.375 56.2521 418.359 53.6435 416.716 51.6745C415.637 50.4338 414.278 49.468 412.751 48.8573C411.225 48.2467 409.574 48.0086 407.937 48.163C405.229 48.4389 402.658 49.8059 399.924 49.693C397.905 49.6053 395.973 48.7023 393.954 48.7399C390.029 48.7399 387.082 52.2514 384.899 55.5247" fill="#263238"/>
<path d="M398.833 57.293C397.027 57.155 393.34 56.7788 392.123 55.4996C390.887 54.1173 389.31 53.084 387.549 52.5029C385.789 51.9219 383.906 51.8135 382.09 52.1888C380.288 52.7259 378.707 53.8274 377.578 55.331C376.449 56.8346 375.833 58.661 375.82 60.5411C373.625 61.0766 371.616 62.1948 370.005 63.7775C368.394 65.3602 367.24 67.3488 366.665 69.5331C366.081 71.8198 366.061 74.214 366.607 76.51C367.154 78.8059 368.249 80.9349 369.8 82.7138C370.553 83.6559 371.241 84.649 371.857 85.6861C371.006 86.741 370.259 87.8749 369.624 89.0722C366.753 95.418 374.541 97.851 374.541 97.851C374.541 102.115 378.491 102.09 381.012 102.077C383.533 102.065 384.925 108.799 386.894 108.536L384.9 87.7554C385.192 87.8689 385.502 87.9284 385.815 87.9309C390.568 88.0187 389.327 79.0142 387.797 76.6439C389.213 74.8811 390.409 72.9522 391.358 70.9001C392.219 67.763 392.279 64.4601 391.534 61.2936C393.126 61.0929 399.61 57.3432 398.833 57.293Z" fill="#263238"/>
<path d="M385.527 88.859C385.365 88.1987 385.038 87.5901 384.577 87.0901C384.117 86.5901 383.537 86.2149 382.892 85.9995C382.247 85.7842 381.558 85.7356 380.889 85.8584C380.221 85.9813 379.594 86.2714 379.068 86.7019C377.814 87.7804 377.149 89.5864 377.902 92.6088C379.933 100.685 387.621 96.9856 387.571 96.7599C387.521 96.5341 386.404 92.1949 385.527 88.859Z" fill="#FFBE9D"/>
<path d="M384.335 94.3143C384.335 94.3143 384.222 94.4523 384.009 94.6153C383.712 94.8427 383.339 94.9461 382.968 94.9038C382.04 94.8035 380.974 93.6497 380.573 92.1824C380.381 91.4968 380.343 90.7776 380.46 90.0755C380.473 89.8027 380.551 89.5371 380.689 89.3012C380.826 89.0654 381.019 88.8663 381.25 88.721C381.402 88.6389 381.578 88.6128 381.748 88.6472C381.918 88.6815 382.07 88.7742 382.178 88.9091C382.341 89.0972 382.328 89.2728 382.379 89.2854C382.429 89.2979 382.517 89.0972 382.379 88.7837C382.282 88.5978 382.128 88.4481 381.94 88.3573C381.674 88.2499 381.377 88.2499 381.112 88.3573C380.797 88.5069 380.525 88.7336 380.321 89.0164C380.117 89.2993 379.988 89.629 379.946 89.9751C379.783 90.7649 379.813 91.5823 380.033 92.3579C380.173 93.0862 380.525 93.7569 381.045 94.2857C381.565 94.8145 382.23 95.1779 382.956 95.3302C383.192 95.3398 383.427 95.2963 383.644 95.203C383.861 95.1096 384.054 94.9688 384.21 94.7909C384.373 94.515 384.373 94.3269 384.335 94.3143Z" fill="#EB996E"/>
<path d="M428.831 77.5845C428.831 77.5845 429.571 77.0202 430.599 75.766C432.018 73.959 432.889 71.7827 433.107 69.4955C433.274 67.9341 433.12 66.3553 432.656 64.8553C432.12 63.1346 431.128 61.5915 429.784 60.3906C428.233 59.0358 426.354 58.1101 424.335 57.7053C422.315 57.3005 420.225 57.4307 418.271 58.0831C417.895 58.2085 417.544 58.3966 417.193 58.5471C416.842 58.6976 416.528 58.9233 416.202 59.1114L415.7 59.3873V58.8355C415.69 57.864 415.329 56.929 414.685 56.2019C414.024 55.4962 413.214 54.9477 412.314 54.5966C410.611 53.8868 408.724 53.7461 406.934 54.1953C403.473 54.9854 400.538 56.5656 397.767 56.8917C395.593 57.2694 393.357 56.8222 391.496 55.6376C391.005 55.2997 390.58 54.8746 390.242 54.3834C390.041 54.0448 389.941 53.8567 389.966 53.8442C390.42 54.4635 390.976 55.0019 391.609 55.4369C393.44 56.4938 395.591 56.8545 397.666 56.4527C399.11 56.181 400.522 55.7607 401.88 55.1986C403.474 54.5615 405.108 54.0294 406.771 53.6059C407.698 53.3815 408.652 53.2845 409.605 53.3174C410.611 53.3706 411.601 53.5998 412.527 53.9947C413.486 54.4044 414.343 55.0211 415.036 55.8006C415.777 56.6496 416.195 57.7335 416.214 58.8606L415.713 58.5847L416.754 57.9827C417.143 57.8322 417.506 57.6316 417.908 57.4936C419.967 56.7885 422.175 56.641 424.31 57.0661C426.444 57.4912 428.428 58.4738 430.06 59.9141C431.47 61.191 432.503 62.8308 433.045 64.6546C433.608 66.5876 433.683 68.6298 433.265 70.5991C432.847 72.5685 431.949 74.4039 430.649 75.9416C430.236 76.413 429.769 76.8339 429.257 77.1957C429.131 77.3421 428.988 77.4727 428.831 77.5845Z" fill="#455A64"/>
<path d="M427.201 49.229C426.377 48.811 425.499 48.5113 424.592 48.3386C423.555 48.1969 422.499 48.2955 421.507 48.627C420.221 49.0203 419.104 49.8327 418.334 50.9346L418.02 51.3735L417.832 50.8719C417.177 49.3303 416.123 47.9911 414.779 46.9925C413.434 45.9939 411.847 45.372 410.182 45.1908C407.567 45.0924 404.99 45.8401 402.833 47.3228C400.996 48.5204 399.042 49.5289 397.002 50.3326C395.595 50.8648 394.079 51.0456 392.587 50.8594C392.189 50.7859 391.799 50.6768 391.421 50.5333C391.17 50.4204 391.032 50.3577 391.044 50.3326C391.057 50.3076 391.609 50.4957 392.625 50.596C394.067 50.6861 395.512 50.4504 396.851 49.9062C398.834 49.0416 400.735 48.0006 402.532 46.796C403.642 46.1069 404.818 45.5312 406.044 45.0779C407.391 44.5868 408.83 44.4025 410.257 44.5386C412.036 44.7328 413.729 45.4057 415.156 46.4856C416.582 47.5655 417.689 49.0121 418.359 50.6712H417.87C418.732 49.4927 419.964 48.6363 421.369 48.2383C422.437 47.9288 423.562 47.8729 424.655 48.0752C425.347 48.2066 426.009 48.4615 426.611 48.8277C426.826 48.9327 427.024 49.0679 427.201 49.229V49.229Z" fill="#455A64"/>
<path d="M410.684 92.546C410.391 92.3011 410.05 92.1209 409.682 92.0171C409.315 91.9134 408.93 91.8885 408.552 91.9441C408.11 92.0384 407.693 92.2244 407.328 92.4901C406.963 92.7559 406.658 93.0954 406.433 93.4866C406.433 93.4866 406.37 93.5493 406.357 93.587C406.185 93.8734 406.106 94.2066 406.132 94.5401C406.186 94.9034 406.329 95.2477 406.548 95.5429C406.766 95.8381 407.054 96.0751 407.386 96.2331C407.916 96.5019 408.516 96.6003 409.104 96.515C409.692 96.4297 410.24 96.1648 410.671 95.7566C411.081 95.3234 411.311 94.7502 411.313 94.1538C411.316 93.5574 411.091 92.9824 410.684 92.546V92.546Z" fill="#1D6ACB"/>
<path d="M411.311 96.4463C411.211 96.4463 411.098 96.0701 410.759 95.5559C410.351 94.8666 409.742 94.319 409.013 93.9871C408.284 93.6552 407.471 93.5549 406.683 93.6998C406.069 93.7876 405.692 93.9632 405.655 93.8754C405.617 93.7876 405.906 93.4866 406.583 93.2484C407.469 92.9631 408.43 93.0167 409.279 93.3989C410.136 93.7804 410.814 94.4762 411.173 95.3427C411.436 95.9949 411.399 96.4338 411.311 96.4463Z" fill="#263238"/>
<path d="M385.715 98.0014C385.715 98.0014 386.078 98.6285 385.602 99.5816C385.332 100.152 384.857 100.6 384.272 100.836C383.907 100.966 383.517 101.011 383.131 100.965C382.746 100.919 382.377 100.785 382.052 100.572C381.722 100.372 381.443 100.098 381.237 99.7712C381.03 99.4449 380.901 99.0753 380.861 98.6912C380.823 98.0717 381.005 97.4588 381.375 96.9605C382.027 96.1328 382.755 96.1077 382.755 96.183C382.755 96.2582 382.203 96.4714 381.764 97.2239C381.51 97.6454 381.404 98.1398 381.463 98.6285C381.51 98.9147 381.618 99.1874 381.781 99.4277C381.943 99.668 382.156 99.8703 382.404 100.021C382.648 100.177 382.924 100.28 383.211 100.324C383.498 100.367 383.792 100.349 384.072 100.271C384.535 100.106 384.934 99.7986 385.213 99.3935C385.702 98.616 385.614 98.0014 385.715 98.0014Z" fill="#1D6ACB"/>
<path d="M381.488 97.5123C381.551 97.5123 381.488 97.9387 380.899 98.2146C380.609 98.335 380.291 98.3699 379.982 98.3153C379.674 98.2607 379.387 98.1189 379.156 97.9066C378.925 97.6942 378.76 97.4203 378.68 97.1171C378.6 96.8139 378.608 96.4941 378.704 96.1955C378.827 95.8564 379.061 95.569 379.369 95.3803C379.883 95.0668 380.272 95.1922 380.259 95.2675C380.247 95.3427 379.958 95.4305 379.645 95.744C379.49 95.9368 379.396 96.1708 379.374 96.4167C379.353 96.6626 379.404 96.9095 379.522 97.1264C379.64 97.3434 379.819 97.5207 380.037 97.6362C380.255 97.7517 380.503 97.8002 380.748 97.7757C381.175 97.6879 381.4 97.4622 381.488 97.5123Z" fill="#1D6ACB"/>
<path d="M395.271 208.89C395.271 208.89 426.323 210.696 444.683 210.859C458.892 210.997 465.238 207.222 468.072 198.08C470.455 190.417 465.338 175.706 465.338 175.706C455.719 175.706 449.787 177.086 443.604 179.983L445.247 186.705L395.183 191.019L395.271 208.89Z" fill="#FFBE9D"/>
<path d="M455.681 193.878C454.335 192.127 452.762 190.563 451.004 189.226C449.117 188.071 447.084 187.177 444.959 186.567C445.628 186.47 446.311 186.531 446.953 186.742C448.531 187.115 450.027 187.774 451.367 188.686C452.71 189.601 453.871 190.758 454.791 192.097C455.493 193.126 455.757 193.841 455.681 193.878Z" fill="#EB996E"/>
<path d="M383.909 179.933C383.909 179.933 374.302 182.24 367.241 186.956L374.766 207.347C377.274 214.044 384.937 217.38 391.07 213.869C400.513 208.464 403.849 192.712 403.849 192.712L414.22 147.714L397.027 136.942L383.971 179.933" fill="#FFBE9D"/>
<path d="M396.964 136.942L397.666 122.143L393.816 107.094C393.603 106.266 393.503 105.225 394.18 104.723C394.516 104.466 394.93 104.333 395.353 104.346C395.776 104.36 396.182 104.52 396.5 104.799C397.541 105.877 402.557 119.033 402.557 119.033C402.557 119.033 410.17 114.468 411.524 114.242C412.879 114.016 414.572 118.117 414.685 118.431C414.734 119.35 414.734 120.271 414.685 121.19C414.685 121.19 419.387 121.328 419.814 121.968C420.156 123.274 420.337 124.618 420.353 125.968C420.353 125.968 422.347 126.608 422.661 128.113C422.974 129.618 423.626 132.101 422.661 132.653C421.695 133.204 419.739 134.283 419.739 134.283C419.739 134.283 418.949 141.958 418.735 142.66C418.522 143.363 414.12 147.677 414.12 147.677L396.964 136.942Z" fill="#FFBE9D"/>
<path d="M380.961 214.17C380.961 214.17 381.425 214.446 382.404 214.759C383.834 215.208 385.347 215.328 386.831 215.11C389.214 214.771 391.445 213.742 393.252 212.151C395.639 209.985 397.655 207.443 399.221 204.626C400.143 202.97 400.92 201.237 401.541 199.447C402.194 197.476 402.734 195.471 403.159 193.439C404.137 189.213 405.203 184.661 406.332 179.82C408.59 170.151 411.123 159.34 413.857 147.689V147.602H413.919C414.785 146.749 415.65 145.883 416.516 144.98C416.942 144.529 417.368 144.078 417.77 143.613C417.97 143.375 418.183 143.137 418.346 142.899C418.473 142.663 418.546 142.401 418.56 142.134C418.898 139.625 419.162 137.029 419.438 134.408V134.245L419.588 134.17L421.983 132.828C422.159 132.715 422.435 132.59 422.548 132.49C422.668 132.381 422.747 132.235 422.774 132.076C422.832 131.66 422.832 131.238 422.774 130.822C422.652 129.902 422.463 128.992 422.209 128.1C421.783 127.32 421.066 126.739 420.215 126.482L420.002 126.407V126.194C420.002 125.466 419.927 124.714 419.839 123.974C419.805 123.604 419.75 123.235 419.676 122.87C419.647 122.71 419.596 122.554 419.525 122.406C419.525 122.319 419.525 122.406 419.45 122.331C419.382 122.295 419.311 122.266 419.237 122.243C417.729 121.915 416.19 121.742 414.647 121.729H414.321V121.403C414.321 120.626 414.321 119.76 414.321 118.895C414.269 118.6 414.167 118.316 414.02 118.055C413.894 117.754 413.744 117.465 413.593 117.164C413.3 116.583 412.956 116.029 412.565 115.509C412.388 115.266 412.172 115.054 411.925 114.882C411.835 114.805 411.723 114.757 411.605 114.743C411.486 114.73 411.367 114.752 411.261 114.807C410.654 115.039 410.063 115.311 409.492 115.622C407.16 116.876 404.877 118.13 402.645 119.484L402.319 119.685L402.181 119.334C401.002 116.362 399.823 113.427 398.669 110.555C398.093 109.113 397.528 107.671 396.951 106.254C396.862 105.936 396.686 105.65 396.442 105.428C396.198 105.206 395.896 105.058 395.572 104.999C395.272 104.9 394.947 104.905 394.651 105.015C394.355 105.124 394.105 105.331 393.941 105.601C393.785 105.87 393.719 106.183 393.753 106.492C393.753 106.768 393.929 107.194 394.004 107.533C394.205 108.26 394.393 108.975 394.581 109.69C394.957 111.132 395.321 112.549 395.697 113.954C396.433 116.78 397.156 119.539 397.867 122.231V122.319C397.616 127.469 397.378 132.402 397.152 137.117V137.092L385.727 174.264L382.504 184.61C382.128 185.777 381.839 186.692 381.639 187.332C381.438 187.971 381.313 188.247 381.313 188.247C381.313 188.247 381.375 187.921 381.551 187.307L382.341 184.56C383.068 182.14 384.109 178.641 385.426 174.176C388.135 165.197 391.985 152.38 396.638 136.929V136.992C396.855 132.293 397.077 127.36 397.303 122.193V122.281C396.588 119.585 395.848 116.826 395.108 114.016L393.979 109.752C393.791 109.038 393.603 108.31 393.402 107.595C393.294 107.22 393.206 106.839 393.139 106.454C393.093 106.019 393.185 105.58 393.402 105.2C393.634 104.809 393.993 104.508 394.418 104.347C394.839 104.224 395.284 104.21 395.712 104.307C396.14 104.403 396.536 104.607 396.864 104.899C397.178 105.194 397.412 105.566 397.541 105.978L399.259 110.279C400.425 113.164 401.592 116.098 402.783 119.058L402.319 118.895C404.564 117.566 406.821 116.236 409.204 114.995C409.806 114.68 410.426 114.399 411.06 114.154C411.258 114.072 411.474 114.042 411.687 114.067C411.902 114.098 412.107 114.175 412.289 114.292C412.591 114.509 412.858 114.771 413.079 115.07C413.499 115.619 413.864 116.207 414.17 116.826C414.333 117.139 414.484 117.44 414.622 117.754C414.8 118.086 414.919 118.447 414.973 118.82C414.973 119.71 414.973 120.538 414.973 121.328L414.659 120.989C416.272 121 417.878 121.185 419.45 121.541C419.558 121.579 419.663 121.625 419.764 121.679C419.901 121.754 420.015 121.867 420.09 122.005C420.187 122.209 420.259 122.424 420.303 122.645C420.378 123.046 420.428 123.422 420.478 123.811C420.554 124.576 420.604 125.329 420.642 126.081L420.416 125.78C420.929 125.93 421.405 126.184 421.817 126.524C422.229 126.865 422.567 127.286 422.811 127.762C423.086 128.715 423.287 129.687 423.413 130.671C423.5 131.173 423.5 131.686 423.413 132.189C423.359 132.493 423.199 132.768 422.962 132.966C422.756 133.104 422.542 133.229 422.322 133.342L419.939 134.584L420.102 134.346C419.814 136.967 419.55 139.538 419.199 142.083L419.124 142.573C419.095 142.771 419.013 142.957 418.886 143.112C418.701 143.386 418.496 143.646 418.271 143.889C417.845 144.366 417.418 144.83 417.017 145.281C416.152 146.184 415.286 147.05 414.409 147.903L414.496 147.752C411.737 159.39 409.179 170.201 406.884 179.87C405.743 184.698 404.652 189.251 403.648 193.464C403.219 195.511 402.666 197.53 401.993 199.509C401.348 201.317 400.55 203.066 399.61 204.739C398.008 207.592 395.944 210.16 393.503 212.339C391.642 213.94 389.353 214.961 386.918 215.273C385.403 215.477 383.861 215.322 382.416 214.822C382.049 214.687 381.692 214.523 381.35 214.333L380.961 214.17Z" fill="#EB996E"/>
<path d="M414.697 121.228C414.697 121.315 414.271 121.366 413.606 121.391C412.762 121.407 411.922 121.508 411.098 121.692C410.303 121.887 409.569 122.28 408.966 122.833C408.514 123.259 408.314 123.623 408.213 123.585C408.113 123.548 408.213 123.096 408.627 122.519C409.211 121.789 410.024 121.277 410.935 121.065C411.813 120.848 412.724 120.806 413.618 120.939C414.296 121.027 414.697 121.14 414.697 121.228Z" fill="#EB996E"/>
<path d="M411.06 121.366C410.897 121.303 410.885 120.914 411.06 120.5C411.236 120.086 411.487 119.798 411.65 119.861C411.813 119.923 411.838 120.312 411.65 120.726C411.461 121.14 411.186 121.428 411.06 121.366Z" fill="#EB996E"/>
<path d="M420.566 125.918C419.349 126.295 418.078 126.468 416.804 126.432C416.403 126.419 416.005 126.502 415.642 126.674C415.28 126.847 414.965 127.103 414.722 127.423C414.396 127.937 414.509 128.363 414.409 128.389C414.308 128.414 414.007 127.975 414.321 127.222C414.494 126.799 414.808 126.448 415.211 126.231C415.676 125.977 416.188 125.823 416.716 125.78C417.997 125.584 419.303 125.631 420.566 125.918V125.918Z" fill="#EB996E"/>
<path d="M419.739 130.433C419.914 130.433 420.015 131.361 419.964 132.502C419.914 133.643 419.726 134.546 419.551 134.546C419.375 134.546 419.262 133.606 419.312 132.464C419.362 131.323 419.551 130.42 419.739 130.433Z" fill="#EB996E"/>
<path d="M424.943 164.206L426.059 160.368C426.11 160.193 426.206 160.033 426.338 159.906C426.469 159.779 426.631 159.688 426.808 159.642C426.986 159.597 427.172 159.598 427.348 159.646C427.525 159.694 427.686 159.788 427.815 159.917L429.282 161.409L430.185 157.785C430.238 157.576 430.355 157.388 430.518 157.246C430.682 157.105 430.885 157.018 431.1 156.996C431.314 156.974 431.531 157.019 431.72 157.124C431.908 157.229 432.06 157.39 432.154 157.584L434.198 161.873L424.943 164.206Z" fill="white"/>
<path d="M434.224 163.516C432.821 164.194 431.331 164.675 429.797 164.946C428.313 165.431 426.767 165.701 425.207 165.749C428.094 164.589 431.129 163.837 434.224 163.516V163.516Z" fill="white"/>
<path d="M359.642 142.109C359.642 142.109 359.178 142.585 358.525 143.601C357.65 145.048 357.074 146.655 356.832 148.329C356.475 150.821 356.399 153.345 356.607 155.854C356.745 158.7 356.97 161.811 357.322 165.071C357.916 170.64 358.799 176.174 359.968 181.651C360.407 183.758 360.808 185.413 361.084 186.667C361.209 187.194 361.322 187.633 361.41 188.009C361.498 188.385 361.51 188.486 361.51 188.486C361.51 188.486 361.448 188.335 361.36 188.034C361.272 187.733 361.134 187.206 360.996 186.692C360.683 185.526 360.256 183.845 359.742 181.738C358.523 176.264 357.614 170.724 357.021 165.147C356.669 161.886 356.456 158.763 356.331 155.916C356.141 153.406 356.233 150.882 356.607 148.392C356.876 146.696 357.491 145.074 358.413 143.626C358.752 143.067 359.166 142.557 359.642 142.109V142.109Z" fill="white"/>
<path d="M386.041 125.028L385.752 125.178L384.924 125.579C384.21 125.918 383.169 126.42 381.927 127.109C378.691 128.914 375.547 130.882 372.509 133.004C368.922 135.512 365.749 137.794 363.429 139.45L360.682 141.394L359.918 141.908C359.832 141.976 359.74 142.035 359.642 142.083C359.713 141.999 359.798 141.927 359.892 141.87L360.62 141.318L363.316 139.299C365.611 137.606 368.772 135.249 372.358 132.79C375.402 130.659 378.568 128.708 381.839 126.946C383.094 126.282 384.147 125.805 384.887 125.492L385.727 125.14C385.978 125.053 385.978 125.015 386.041 125.028Z" fill="white"/>
<path d="M445.849 133.192C445.771 133.148 445.699 133.093 445.636 133.029L445.072 132.54C444.373 131.95 443.64 131.401 442.877 130.897C440.331 129.274 437.63 127.908 434.813 126.821C432.005 125.709 429.137 124.754 426.222 123.962C425.094 123.648 424.191 123.422 423.551 123.272L422.836 123.084C422.749 123.066 422.665 123.036 422.585 122.996H422.849L423.576 123.134C424.216 123.259 425.131 123.46 426.26 123.748C429.202 124.491 432.093 125.425 434.913 126.545C437.746 127.632 440.451 129.028 442.977 130.709C444.029 131.421 444.993 132.254 445.849 133.192V133.192Z" fill="white"/>
<path d="M386.392 228.918C386.222 228.888 386.057 228.833 385.903 228.755C385.467 228.564 385.048 228.337 384.649 228.078C383.973 227.673 383.384 227.139 382.915 226.506C382.446 225.874 382.106 225.155 381.915 224.391C381.57 222.849 381.742 221.236 382.404 219.801C382.595 219.355 382.839 218.934 383.131 218.547C383.332 218.283 383.47 218.158 383.482 218.17C383.14 218.705 382.834 219.263 382.567 219.838C381.984 221.247 381.848 222.802 382.178 224.29C382.537 225.76 383.432 227.044 384.686 227.89C385.727 228.642 386.417 228.868 386.392 228.918Z" fill="white"/>
<path d="M382.404 215.336C382.671 215.834 382.869 216.365 382.993 216.916C383.189 217.444 383.308 217.997 383.344 218.559C383.059 218.073 382.856 217.543 382.742 216.992C382.537 216.463 382.422 215.903 382.404 215.336Z" fill="white"/>
<path d="M399.359 496.521L437.61 496.332L436.92 364.086L436.556 229.558L384.724 228.893L375.406 246.451C371.593 253.509 369.163 261.231 368.245 269.2C367.618 275.295 372.183 295.11 373.763 300.127L388.022 345.35L399.359 496.521Z" fill="#263238"/>
<path d="M447.781 229.721L489.818 344.309C492.309 351.692 493.136 359.534 492.241 367.275C491.345 375.015 488.749 382.461 484.639 389.081L435.829 484.393L408.389 450.056L449.223 364.776L413.23 306.397L419.287 229.896L436.243 229.62L447.781 229.721Z" fill="#263238"/>
<path d="M433.07 268.109C433.07 268.109 433.07 268.31 433.07 268.699C433.07 269.087 433.133 269.689 433.183 270.429C433.271 271.972 433.383 274.192 433.534 277.063C433.822 282.87 434.224 291.21 434.788 301.506C435.352 311.802 435.829 324.08 436.456 337.75C436.757 344.572 437.083 351.733 437.409 359.158C437.647 362.92 437.547 366.682 437.585 370.445C437.622 374.207 437.585 378.17 437.585 382.108C437.585 413.624 437.685 442.155 437.723 462.835C437.723 473.144 437.723 481.496 437.723 487.303C437.723 490.175 437.723 492.407 437.723 493.962C437.723 494.69 437.723 495.216 437.723 495.693C437.723 496.169 437.723 496.282 437.723 496.282C437.723 496.282 437.723 496.082 437.723 495.693V493.962C437.723 492.407 437.723 490.2 437.647 487.303C437.647 481.496 437.547 473.156 437.472 462.848C437.384 442.167 437.271 413.636 437.146 382.12C437.146 378.183 437.146 374.295 437.146 370.457C437.146 366.62 437.221 362.832 436.983 359.17C436.669 351.758 436.356 344.597 436.067 337.775C435.49 324.13 434.964 311.853 434.537 301.519C434.111 291.185 433.797 282.883 433.559 277.076C433.459 274.217 433.383 271.984 433.333 270.429C433.333 269.689 433.333 269.175 433.333 268.699C433.333 268.222 433.07 268.109 433.07 268.109Z" fill="#455A64"/>
<path d="M432.104 231.978C432.251 232.382 432.339 232.804 432.367 233.232C432.505 234.035 432.656 235.201 432.831 236.656C433.158 239.553 433.509 243.579 433.709 248.031C433.91 252.483 433.923 256.521 433.86 259.443C433.86 260.898 433.772 262.089 433.709 262.905C433.722 263.328 433.671 263.751 433.559 264.159C433.401 262.592 433.346 261.017 433.396 259.443C433.396 256.521 433.258 252.508 433.057 248.056C432.857 243.604 432.581 239.603 432.367 236.769C432.189 235.178 432.101 233.579 432.104 231.978V231.978Z" fill="#455A64"/>
<path d="M423.677 234.562C423.739 234.649 423.025 234.976 422.824 235.991C422.768 236.267 422.783 236.552 422.869 236.82C422.954 237.088 423.107 237.33 423.313 237.521C423.561 237.752 423.87 237.907 424.204 237.967C424.537 238.027 424.881 237.99 425.194 237.86C425.495 237.705 425.746 237.469 425.918 237.179C426.091 236.888 426.179 236.555 426.172 236.217C426.161 235.936 426.078 235.663 425.93 235.424C425.783 235.185 425.577 234.987 425.332 234.85C424.822 234.603 424.253 234.503 423.689 234.562C423.689 234.562 423.815 234.399 424.141 234.298C424.611 234.183 425.106 234.232 425.545 234.436C425.895 234.582 426.198 234.822 426.42 235.13C426.641 235.438 426.773 235.801 426.799 236.179C426.849 236.646 426.751 237.117 426.519 237.526C426.287 237.934 425.933 238.259 425.507 238.456C425.081 238.652 424.603 238.71 424.142 238.621C423.681 238.533 423.259 238.301 422.937 237.96C422.67 237.695 422.481 237.362 422.391 236.997C422.3 236.633 422.311 236.25 422.423 235.891C422.548 235.422 422.832 235.01 423.225 234.725C423.476 234.549 423.664 234.524 423.677 234.562Z" fill="#455A64"/>
<path d="M403.611 232.292C403.795 232.687 403.91 233.111 403.949 233.546C404.151 234.672 404.189 235.82 404.062 236.957C403.882 238.649 403.393 240.294 402.62 241.81C401.686 243.696 400.303 245.324 398.593 246.551C396.883 247.778 394.899 248.566 392.813 248.846C391.143 249.095 389.442 249.031 387.796 248.658C386.683 248.416 385.61 248.015 384.611 247.466C384.233 247.288 383.886 247.051 383.583 246.764C384.969 247.388 386.414 247.871 387.897 248.206C389.68 248.577 391.522 248.574 393.304 248.198C395.087 247.821 396.772 247.079 398.253 246.019C399.734 244.958 400.98 243.602 401.91 242.036C402.841 240.47 403.437 238.727 403.661 236.919C403.808 235.379 403.791 233.828 403.611 232.292Z" fill="#455A64"/>
<path d="M452.822 243.278C452.004 243.372 451.175 243.273 450.402 242.989C448.507 242.393 446.806 241.302 445.473 239.829C444.128 238.363 443.205 236.56 442.802 234.612C442.604 233.817 442.604 232.986 442.802 232.191C442.915 232.191 442.927 233.107 443.303 234.511C443.812 236.326 444.736 237.998 446.003 239.393C447.27 240.789 448.845 241.87 450.602 242.55C451.907 243.065 452.835 243.152 452.822 243.278Z" fill="#455A64"/>
<path d="M467.759 366.808C467.13 367.525 466.378 368.124 465.539 368.576C464.658 369.135 463.699 369.557 462.692 369.83C461.426 370.166 460.089 370.131 458.842 369.73C456.652 368.904 454.775 367.413 453.474 365.466C452.877 364.734 452.384 363.924 452.007 363.058C452.684 363.704 453.297 364.414 453.838 365.177C455.17 366.943 456.968 368.303 459.03 369.103C460.083 369.384 461.182 369.447 462.26 369.29C463.338 369.133 464.372 368.757 465.301 368.187C466.093 367.681 466.914 367.22 467.759 366.808V366.808Z" fill="#455A64"/>
<path d="M458.177 374.119C456.695 372.584 455.372 370.903 454.227 369.103C452.908 367.426 451.757 365.624 450.791 363.723C452.283 365.252 453.611 366.933 454.754 368.739C456.083 370.406 457.231 372.209 458.177 374.119V374.119Z" fill="#455A64"/>
<path d="M393.917 272.536C393.741 272.599 393.302 271.884 392.913 270.918C392.524 269.953 392.361 269.137 392.524 269.062C392.688 268.987 393.139 269.714 393.515 270.68C393.891 271.646 394.08 272.536 393.917 272.536Z" fill="#FAFAFA"/>
<path d="M418.196 276.023C418.008 276.023 417.87 275.408 417.87 274.643C417.87 273.878 418.008 273.251 418.196 273.251C418.384 273.251 418.522 273.878 418.522 274.643C418.522 275.408 418.372 276.023 418.196 276.023Z" fill="#FAFAFA"/>
<path d="M408.213 289.216C408.038 289.216 407.837 288.463 407.775 287.498C407.712 286.532 407.775 285.755 407.975 285.742C408.176 285.729 408.364 286.494 408.427 287.46C408.489 288.426 408.389 289.203 408.213 289.216Z" fill="#FAFAFA"/>
<path d="M389.979 298.873C389.828 298.985 389.314 298.521 388.637 298.045C387.959 297.568 387.383 297.205 387.383 297.029C387.383 296.853 388.21 296.954 388.975 297.506C389.74 298.057 390.129 298.873 389.979 298.873Z" fill="#FAFAFA"/>
<path d="M422.122 311.175C421.971 311.075 422.122 310.536 422.548 309.921C422.974 309.307 423.363 308.956 423.514 309.056C423.664 309.156 423.514 309.708 423.087 310.31C422.661 310.912 422.272 311.276 422.122 311.175Z" fill="#FAFAFA"/>
<path d="M402.281 314.649C402.106 314.649 401.955 313.608 401.955 312.342C401.955 311.075 402.106 310.022 402.281 310.022C402.457 310.022 402.607 311.062 402.607 312.342C402.607 313.621 402.419 314.649 402.281 314.649Z" fill="#FAFAFA"/>
<path d="M395.785 328.72C395.685 328.858 395.033 328.57 394.33 328.056C393.628 327.542 393.076 327.015 393.239 326.864C393.402 326.714 394.004 327.015 394.707 327.529C395.409 328.043 395.898 328.57 395.785 328.72Z" fill="#FAFAFA"/>
<path d="M415.876 333.611C415.951 333.774 415.55 334.113 414.973 334.376C414.396 334.64 413.869 334.702 413.794 334.539C413.719 334.376 414.133 334.038 414.71 333.774C415.287 333.511 415.813 333.448 415.876 333.611Z" fill="#FAFAFA"/>
<path d="M402.281 356.562C402.131 356.637 401.479 355.671 400.839 354.392C400.2 353.113 399.811 352.009 399.974 351.884C400.137 351.758 400.789 352.774 401.416 354.053C402.043 355.333 402.394 356.424 402.281 356.562Z" fill="#FAFAFA"/>
<path d="M424.442 354.43C424.279 354.342 424.567 353.502 425.069 352.536C425.57 351.57 426.135 350.868 426.323 350.956C426.511 351.043 426.197 351.884 425.683 352.849C425.169 353.815 424.592 354.517 424.442 354.43Z" fill="#FAFAFA"/>
<path d="M414.722 373.856C414.534 373.856 414.559 372.84 414.358 371.661C414.158 370.482 413.857 369.542 414.032 369.454C414.208 369.366 414.81 370.256 415.011 371.561C415.211 372.865 414.898 373.893 414.722 373.856Z" fill="#FAFAFA"/>
<path d="M404.313 384.955C404.188 385.08 403.561 384.604 402.921 383.901C402.281 383.199 401.868 382.534 402.006 382.409C402.143 382.283 402.758 382.76 403.398 383.462C404.037 384.165 404.451 384.829 404.313 384.955Z" fill="#FAFAFA"/>
<path d="M429.571 389.169C429.446 389.043 429.91 388.366 430.612 387.651C431.314 386.936 431.966 386.472 432.104 386.598C432.242 386.723 431.766 387.413 431.076 388.115C430.386 388.817 429.709 389.294 429.571 389.169Z" fill="#FAFAFA"/>
<path d="M415.048 405.786C414.873 405.786 414.873 404.795 415.048 403.641C415.224 402.487 415.5 401.584 415.688 401.609C415.876 401.634 415.863 402.588 415.688 403.741C415.512 404.895 415.224 405.811 415.048 405.786Z" fill="#FAFAFA"/>
<path d="M405.279 413.85C405.116 413.937 404.564 413.285 404.025 412.395C403.485 411.504 403.209 410.714 403.36 410.626C403.51 410.539 404.062 411.178 404.614 412.069C405.166 412.959 405.429 413.749 405.279 413.85Z" fill="#FAFAFA"/>
<path d="M428.818 424.02C428.931 424.171 428.292 424.81 427.389 425.45C426.486 426.09 425.696 426.491 425.583 426.34C425.47 426.19 426.122 425.55 427.012 424.911C427.903 424.271 428.718 423.882 428.818 424.02Z" fill="#FAFAFA"/>
<path d="M409.204 437.226C409.029 437.163 409.204 436.16 409.367 434.906C409.53 433.652 409.43 432.624 409.618 432.598C409.806 432.573 410.132 433.627 410.007 434.969C409.881 436.311 409.367 437.301 409.204 437.226Z" fill="#FAFAFA"/>
<path d="M417.042 456.188C416.892 456.301 416.365 455.875 415.851 455.235C415.337 454.596 415.048 453.981 415.186 453.868C415.324 453.755 415.851 454.182 416.365 454.821C416.879 455.461 417.18 456.075 417.042 456.188Z" fill="#FAFAFA"/>
<path d="M408.477 468.905C408.326 469.005 407.636 468.265 406.934 467.237C406.232 466.209 405.793 465.306 405.931 465.205C406.069 465.105 406.771 465.845 407.473 466.873C408.176 467.902 408.627 468.805 408.477 468.905Z" fill="#FAFAFA"/>
<path d="M432.067 452.94C431.904 452.877 431.916 452.413 432.067 451.912C432.217 451.41 432.556 451.034 432.731 451.097C432.907 451.159 432.882 451.623 432.731 452.137C432.581 452.652 432.242 453.015 432.067 452.94Z" fill="#FAFAFA"/>
<path d="M421.658 483.227C421.495 483.139 421.808 482.249 422.059 481.133C422.31 480.016 422.397 479.076 422.586 479.063C422.774 479.051 422.962 480.067 422.698 481.271C422.435 482.474 421.808 483.327 421.658 483.227Z" fill="#FAFAFA"/>
<path d="M428.43 289.416C428.267 289.492 427.865 288.99 427.539 288.288C427.213 287.585 427.075 286.958 427.238 286.883C427.401 286.808 427.803 287.31 428.129 288.012C428.455 288.714 428.618 289.341 428.43 289.416Z" fill="#FAFAFA"/>
<path d="M411.06 250.363C411.161 250.514 410.283 251.216 409.342 252.22C408.401 253.223 407.762 254.151 407.599 254.063C407.436 253.975 407.862 252.809 408.853 251.781C409.844 250.752 410.935 250.2 411.06 250.363Z" fill="#FAFAFA"/>
<path d="M426.523 249.962C426.335 249.962 426.047 249.247 425.608 248.394C425.169 247.542 424.768 246.839 424.906 246.714C425.044 246.589 425.721 247.14 426.16 248.094C426.599 249.047 426.686 249.862 426.523 249.962Z" fill="#FAFAFA"/>
<path d="M378.24 262.641C378.077 262.566 378.24 261.738 378.629 260.785C379.018 259.832 379.444 259.092 379.62 259.167C379.795 259.243 379.62 260.058 379.231 261.023C378.842 261.989 378.453 262.704 378.24 262.641Z" fill="#FAFAFA"/>
<path d="M379.808 281.578C379.682 281.716 378.967 281.315 378.202 280.675C377.437 280.036 376.948 279.421 377.023 279.271C377.099 279.12 377.864 279.534 378.629 280.174C379.394 280.813 379.92 281.44 379.808 281.578Z" fill="#FAFAFA"/>
<path d="M411.487 235.327C411.324 235.327 410.972 234.925 410.722 234.286C410.471 233.646 410.395 233.032 410.559 233.032C410.722 233.032 411.073 233.433 411.324 234.073C411.574 234.712 411.65 235.264 411.487 235.327Z" fill="#FAFAFA"/>
<path d="M441.824 244.582C441.648 244.582 441.661 243.792 441.824 242.902C441.987 242.011 442.313 241.309 442.488 241.346C442.664 241.384 442.651 242.149 442.488 243.039C442.325 243.93 441.999 244.62 441.824 244.582Z" fill="#FAFAFA"/>
<path d="M448.947 258.916C448.784 258.841 449.01 257.913 449.461 256.822C449.913 255.731 450.402 254.916 450.565 254.979C450.728 255.041 450.565 255.982 450.063 257.073C449.561 258.164 449.123 258.979 448.947 258.916Z" fill="#FAFAFA"/>
<path d="M443.868 270.479C443.705 270.555 443.103 269.689 442.526 268.548C441.949 267.407 441.623 266.391 441.786 266.316C441.949 266.24 442.538 267.106 443.115 268.247C443.692 269.388 444.031 270.392 443.868 270.479Z" fill="#FAFAFA"/>
<path d="M454.728 282.042C454.565 281.98 454.728 281.252 455.004 280.425C455.28 279.597 455.719 278.97 455.895 279.032C456.07 279.095 455.895 279.823 455.619 280.65C455.343 281.478 454.954 282.105 454.728 282.042Z" fill="#FAFAFA"/>
<path d="M445.022 293.367C444.871 293.467 444.482 293.129 444.169 292.627C443.855 292.125 443.705 291.624 443.868 291.523C444.031 291.423 444.395 291.762 444.721 292.276C445.047 292.79 445.172 293.279 445.022 293.367Z" fill="#FAFAFA"/>
<path d="M447.091 316.744C446.965 316.856 446.175 316.242 445.348 315.339C444.52 314.436 443.956 313.621 444.094 313.495C444.231 313.37 445.009 313.997 445.837 314.9C446.664 315.803 447.229 316.618 447.091 316.744Z" fill="#FAFAFA"/>
<path d="M459.82 303.312C459.682 303.425 458.992 302.798 458.29 301.895C457.588 300.992 457.136 300.189 457.274 300.076C457.412 299.964 458.102 300.603 458.804 301.494C459.507 302.384 459.971 303.212 459.82 303.312Z" fill="#FAFAFA"/>
<path d="M466.805 321.835C466.642 321.76 466.931 320.819 467.445 319.741C467.959 318.662 468.498 317.835 468.699 317.91C468.9 317.985 468.586 318.938 468.072 320.017C467.558 321.095 466.968 321.923 466.805 321.835Z" fill="#FAFAFA"/>
<path d="M451.957 337.085C451.794 337.173 451.217 336.483 450.414 335.743C449.612 335.003 448.872 334.489 448.947 334.301C449.022 334.113 449.975 334.452 450.853 335.267C451.731 336.082 452.107 336.998 451.957 337.085Z" fill="#FAFAFA"/>
<path d="M452.885 352.799C452.885 352.975 452.258 353.125 451.493 353.125C450.728 353.125 450.113 352.975 450.113 352.799C450.113 352.624 450.728 352.473 451.493 352.473C452.258 352.473 452.885 352.624 452.885 352.799Z" fill="#FAFAFA"/>
<path d="M468.147 348.41C467.984 348.322 468.31 347.532 468.549 346.554C468.787 345.576 468.887 344.723 469.076 344.71C469.264 344.698 469.464 345.613 469.188 346.704C468.912 347.795 468.285 348.51 468.147 348.41Z" fill="#FAFAFA"/>
<path d="M483.31 353.69C483.146 353.752 482.682 352.862 482.281 351.721C481.88 350.58 481.692 349.601 481.855 349.551C482.018 349.501 482.494 350.366 482.896 351.508C483.297 352.649 483.485 353.627 483.31 353.69Z" fill="#FAFAFA"/>
<path d="M480.889 375.26C480.739 375.173 481.127 374.119 481.754 372.903C482.381 371.686 483.009 370.771 483.197 370.858C483.385 370.946 482.971 372 482.331 373.204C481.692 374.408 481.052 375.373 480.889 375.26Z" fill="#FAFAFA"/>
<path d="M467.056 387.914C466.893 387.977 466.379 387.112 465.903 385.971C465.426 384.829 465.188 383.851 465.363 383.776C465.539 383.701 466.041 384.579 466.505 385.72C466.969 386.861 467.219 387.914 467.056 387.914Z" fill="#FAFAFA"/>
<path d="M451.731 392.818C451.731 392.994 451.204 393.144 450.565 393.144C449.925 393.144 449.411 392.994 449.411 392.818C449.411 392.642 449.938 392.492 450.565 392.492C451.192 392.492 451.731 392.642 451.731 392.818Z" fill="#FAFAFA"/>
<path d="M460.51 412.997C460.347 412.997 459.996 412.307 459.732 411.354C459.469 410.401 459.419 409.573 459.594 409.535C459.77 409.498 460.109 410.225 460.372 411.178C460.635 412.131 460.685 412.896 460.51 412.997Z" fill="#FAFAFA"/>
<path d="M449.411 406.224C449.261 406.137 449.411 405.547 449.825 404.908C450.239 404.268 450.653 403.829 450.803 403.917C450.954 404.005 450.803 404.607 450.389 405.246C449.975 405.886 449.574 406.325 449.411 406.224Z" fill="#FAFAFA"/>
<path d="M449.185 428.435C449.01 428.435 448.759 427.595 448.633 426.503C448.508 425.412 448.546 424.522 448.721 424.497C448.897 424.472 449.148 425.337 449.273 426.428C449.398 427.519 449.361 428.41 449.185 428.435Z" fill="#FAFAFA"/>
</svg>
