<svg width="200" height="187" viewBox="0 0 200 187" fill="none" xmlns="http://www.w3.org/2000/svg">
<path d="M182.81 23.3212C195.049 47.7086 191.176 78.4863 175.883 101.077C160.59 123.667 135.139 138.3 108.382 143.622C89.28 147.427 68.734 146.652 51.2823 138.011C33.8306 129.37 20.1104 111.978 19.0607 92.5275C18.6618 85.1929 20.2204 77.3999 25.1208 71.899C32.9505 63.1433 46.3132 62.8316 58.0531 63.1892C69.793 63.5467 83.1465 63.2763 91.0128 54.5527C97.0546 47.8507 97.944 38.1279 101.13 29.6839C106.544 15.3265 119.608 4.11379 134.621 0.941584C136.705 0.502986 138.818 0.216488 140.943 0.0843564C157.446 -0.947068 173.119 7.55187 181.783 21.6297L182.81 23.3212Z" fill="#E0E0E0"/>
<path d="M194.366 185.855C194.366 185.919 150.845 185.974 97.1831 185.974C43.5215 185.974 0 185.919 0 185.855C0 185.791 43.5123 185.736 97.206 185.736C150.9 185.736 194.366 185.791 194.366 185.855Z" fill="#263238"/>
<path d="M181.852 60.7367C181.747 60.6924 181.638 60.6586 181.526 60.6358C181.199 60.5621 180.859 60.5621 180.531 60.6358C180.001 60.7724 179.507 61.0261 179.087 61.3784C178.516 61.8727 178.022 62.4489 177.62 63.0883C176.681 64.5277 175.943 66.5172 175.081 68.8368C174.084 71.4855 173.221 74.1829 172.495 76.9186C172.36 77.1709 172.18 77.3962 171.964 77.5833C171.852 77.685 171.719 77.7615 171.575 77.8073C171.432 77.8532 171.279 77.8675 171.129 77.8491C170.835 77.7742 170.569 77.6149 170.364 77.3907C170.148 77.1936 169.947 76.9827 169.745 76.7673C169.347 76.3296 168.923 75.9163 168.475 75.5296C168.042 75.1133 167.467 74.8787 166.866 74.8741C166.566 74.9253 166.28 75.0391 166.026 75.2081C165.772 75.3771 165.557 75.5975 165.395 75.8551C165.069 76.4119 164.894 77.0437 164.886 77.6887C164.808 78.9997 165.188 80.3246 165.418 81.6952C165.647 83.0659 165.936 84.4732 166.201 85.908C166.339 86.6277 166.472 87.352 166.609 88.0854L166.816 89.1948C166.879 89.3885 166.899 89.5935 166.876 89.796C166.853 89.9984 166.787 90.1936 166.683 90.3683C166.614 90.4603 166.519 90.5293 166.41 90.5661C166.301 90.6029 166.184 90.6059 166.073 90.5746C165.875 90.517 165.69 90.4221 165.528 90.295L164.611 89.5982C163.987 89.1267 163.338 88.689 162.667 88.2871C161.995 87.8692 161.262 87.5598 160.494 87.3703C160.114 87.2809 159.719 87.2809 159.339 87.3703C158.961 87.466 158.627 87.6895 158.395 88.0029C157.954 88.6833 157.737 89.485 157.776 90.295C157.777 91.129 157.858 91.9611 158.019 92.7796C158.349 94.4621 158.817 96.1148 159.417 97.7212C159.591 98.1319 159.725 98.5587 159.816 98.9956C159.838 99.1194 159.834 99.2463 159.805 99.3685C159.776 99.4907 159.722 99.6057 159.646 99.7062C159.605 99.7538 159.561 99.7983 159.513 99.8391C159.461 99.8858 159.4 99.9217 159.334 99.9445C159.195 99.9655 159.052 99.9327 158.936 99.8528C158.555 99.6085 158.2 99.3259 157.877 99.0094L156.896 98.0925C156.253 97.4706 155.555 96.909 154.81 96.4148C154.439 96.1707 154.032 95.9852 153.604 95.8647C153.401 95.8016 153.187 95.7825 152.976 95.8086C152.765 95.8347 152.562 95.9054 152.38 96.0159C152.026 96.273 151.78 96.6517 151.688 97.0795C151.578 97.5171 151.522 97.9667 151.523 98.418C151.527 99.3453 151.643 100.269 151.867 101.168C152.32 102.997 152.989 104.765 153.861 106.436C154.729 108.148 155.72 109.795 156.827 111.364C157.381 112.159 157.978 112.925 158.615 113.656C159.229 114.417 159.852 115.173 160.476 115.948V115.975L160.366 115.929L163.281 115.508C164.247 115.392 165.207 115.227 166.156 115.012C168.026 114.592 169.864 114.039 171.656 113.358C173.425 112.704 175.109 111.844 176.676 110.795C177.445 110.286 178.149 109.684 178.771 109.003C179.078 108.669 179.341 108.298 179.555 107.898C179.774 107.52 179.845 107.074 179.757 106.646C179.698 106.442 179.596 106.252 179.457 106.09C179.319 105.928 179.147 105.797 178.954 105.707C178.556 105.512 178.131 105.376 177.694 105.303C176.81 105.17 175.915 105.116 175.021 105.143H173.683C173.222 105.161 172.762 105.132 172.307 105.056C172.167 105.038 172.038 104.965 171.95 104.854C171.916 104.792 171.896 104.723 171.89 104.652C171.883 104.59 171.883 104.527 171.89 104.464C171.904 104.34 171.943 104.22 172.003 104.111C172.064 104.001 172.145 103.905 172.243 103.827C172.604 103.566 172.989 103.34 173.394 103.153C174.919 102.369 176.378 101.46 177.753 100.435C178.419 99.9385 179.033 99.3765 179.587 98.7573C180.159 98.1848 180.538 97.4473 180.669 96.6486C180.707 96.2596 180.61 95.8694 180.394 95.5438C180.175 95.2208 179.883 94.9538 179.541 94.7645C178.85 94.3844 178.102 94.1167 177.327 93.9714C176.561 93.817 175.786 93.7053 175.007 93.6368L173.852 93.5268C173.646 93.515 173.445 93.4603 173.261 93.3663C173.158 93.3135 173.074 93.2309 173.02 93.1295C172.965 93.0281 172.942 92.9126 172.954 92.7979C172.996 92.5993 173.079 92.4119 173.199 92.2476C173.318 92.0833 173.47 91.946 173.646 91.8444L174.563 91.166L176.328 89.8228L179.738 87.2328C180.834 86.3756 182.003 85.6513 182.828 84.6245C183.25 84.1445 183.541 83.5632 183.671 82.9375C183.725 82.6368 183.714 82.3282 183.64 82.0319C183.565 81.7357 183.429 81.4585 183.24 81.2185C183.04 80.9973 182.781 80.8382 182.493 80.76C182.206 80.6745 181.908 80.6253 181.609 80.6134C181.018 80.5979 180.427 80.6193 179.839 80.6775C179.546 80.6775 179.252 80.7188 178.964 80.7234C178.663 80.7459 178.362 80.6806 178.097 80.5354C177.971 80.4498 177.864 80.3379 177.785 80.2074C177.706 80.0768 177.656 79.9307 177.639 79.779C177.605 79.4941 177.622 79.2054 177.689 78.9264C179.001 76.4406 180.187 73.8901 181.242 71.2847C182.159 68.9926 182.952 67.0215 183.236 65.3254C183.375 64.585 183.406 63.8284 183.328 63.0791C183.268 62.5345 183.085 62.0107 182.791 61.5481C182.614 61.265 182.372 61.0278 182.085 60.8559C181.988 60.7962 181.885 60.7455 181.778 60.7046C181.889 60.7344 181.996 60.7792 182.094 60.8375C182.389 61.0061 182.641 61.2416 182.828 61.5251C183.127 61.9916 183.317 62.5197 183.383 63.07C183.472 63.8256 183.449 64.5903 183.314 65.3391C183.039 67.0398 182.26 69.0064 181.347 71.2984C180.315 73.9337 179.149 76.5148 177.854 79.0318C177.791 79.2896 177.775 79.5569 177.808 79.8203C177.821 79.95 177.861 80.0756 177.926 80.1886C177.99 80.3016 178.079 80.3996 178.184 80.4758C178.423 80.6024 178.694 80.6581 178.964 80.6363C179.248 80.6363 179.537 80.6088 179.83 80.5858C180.425 80.5258 181.024 80.5028 181.622 80.5171C181.933 80.5294 182.241 80.5802 182.539 80.6684C182.854 80.7523 183.14 80.9221 183.364 81.1589C183.564 81.4158 183.708 81.7115 183.787 82.0273C183.866 82.343 183.878 82.6718 183.823 82.9925C183.689 83.6493 183.386 84.2595 182.943 84.762C182.094 85.8163 180.916 86.5498 179.83 87.4116L176.424 90.0062L174.664 91.3447L173.77 92.0278C173.619 92.1287 173.482 92.2489 173.362 92.3853C173.251 92.5163 173.179 92.6747 173.151 92.8438C173.143 92.92 173.158 92.9968 173.195 93.064C173.232 93.1312 173.289 93.1855 173.357 93.2197C173.519 93.2981 173.695 93.3433 173.875 93.3526L175.03 93.4626C175.815 93.5294 176.596 93.6411 177.368 93.7972C178.17 93.9451 178.944 94.2189 179.66 94.6086C180.026 94.8188 180.339 95.1087 180.577 95.4567C180.816 95.8213 180.926 96.2555 180.889 96.6898C180.753 97.5349 180.357 98.3167 179.757 98.9269C179.187 99.5566 178.558 100.129 177.877 100.637C176.492 101.672 175.025 102.592 173.49 103.387C173.1 103.564 172.729 103.779 172.381 104.029C172.305 104.087 172.241 104.16 172.194 104.244C172.147 104.327 172.117 104.42 172.106 104.515C172.101 104.561 172.101 104.607 172.106 104.652C172.106 104.689 172.106 104.776 172.138 104.772C172.197 104.824 172.27 104.858 172.349 104.868C172.779 104.937 173.215 104.965 173.651 104.95H174.989C175.897 104.917 176.805 104.971 177.703 105.111C178.166 105.183 178.614 105.327 179.032 105.537C179.253 105.643 179.45 105.794 179.608 105.982C179.766 106.169 179.882 106.388 179.949 106.624C180.053 107.105 179.975 107.608 179.729 108.035C179.508 108.452 179.233 108.839 178.913 109.186C178.279 109.883 177.561 110.498 176.777 111.02C175.197 112.083 173.494 112.952 171.707 113.61C169.901 114.299 168.047 114.856 166.16 115.278C165.208 115.494 164.246 115.659 163.277 115.773L160.357 116.2H160.288L160.247 116.145H160.224L158.363 113.853C157.726 113.12 157.128 112.355 156.57 111.561C155.455 109.981 154.456 108.321 153.581 106.596C152.705 104.908 152.033 103.121 151.578 101.274C151.346 100.361 151.228 99.4237 151.225 98.4822C151.226 98.0093 151.284 97.5382 151.399 97.0795C151.507 96.5991 151.788 96.175 152.188 95.8876C152.397 95.7585 152.63 95.6754 152.874 95.6438C153.117 95.6121 153.365 95.6328 153.6 95.7042C154.048 95.8313 154.475 96.0261 154.865 96.2818C155.623 96.7829 156.332 97.3538 156.983 97.9871L157.964 98.9039C158.276 99.2068 158.617 99.4786 158.981 99.7153C159.047 99.7624 159.125 99.7881 159.206 99.7887C159.206 99.7887 159.275 99.7474 159.307 99.7245L159.408 99.6236C159.463 99.5463 159.502 99.4584 159.523 99.3654C159.543 99.2724 159.545 99.1763 159.527 99.0827C159.44 98.6628 159.311 98.2528 159.142 97.8588C158.539 96.2404 158.07 94.5754 157.739 92.8804C157.576 92.0484 157.495 91.2024 157.496 90.3546C157.46 89.4976 157.694 88.6508 158.165 87.9342C158.427 87.5862 158.799 87.3373 159.22 87.2282C159.631 87.1321 160.06 87.1321 160.471 87.2282C161.259 87.4145 162.012 87.7239 162.704 88.145C163.383 88.5483 164.038 88.9906 164.666 89.4698L165.583 90.1666C165.719 90.2772 165.874 90.3626 166.041 90.4188C166.115 90.4404 166.194 90.4388 166.267 90.4142C166.34 90.3896 166.403 90.3432 166.449 90.2812C166.539 90.1447 166.592 89.9864 166.6 89.8228C166.605 89.6407 166.585 89.4587 166.541 89.2819C166.472 88.9106 166.408 88.5439 166.339 88.1771C166.201 87.4437 166.068 86.7148 165.935 85.9997C165.674 84.5603 165.413 83.1575 165.161 81.7869C164.909 80.4162 164.556 79.0868 164.634 77.7345C164.647 77.0644 164.833 76.4091 165.175 75.8321C165.351 75.553 165.585 75.3146 165.861 75.1328C166.137 74.951 166.448 74.83 166.774 74.7778C167.099 74.7511 167.425 74.8162 167.714 74.9657C167.996 75.1022 168.259 75.2731 168.498 75.4746C168.951 75.8663 169.38 76.2858 169.782 76.7306C169.977 76.9445 170.179 77.1508 170.387 77.3495C170.573 77.5471 170.811 77.6884 171.074 77.7575C171.204 77.7719 171.335 77.7586 171.459 77.7183C171.583 77.678 171.698 77.6116 171.794 77.5237C171.995 77.3505 172.162 77.1424 172.289 76.9094C173.023 74.1691 173.899 71.4686 174.911 68.8184C175.782 66.5035 176.534 64.5094 177.492 63.07C177.902 62.427 178.405 61.8491 178.986 61.3555C179.414 61.0012 179.918 60.7502 180.458 60.6221C180.79 60.5438 181.135 60.5438 181.466 60.6221C181.6 60.6381 181.731 60.6769 181.852 60.7367Z" fill="#263238"/>
<path d="M179.445 66.9711C179.437 67.0234 179.422 67.0744 179.399 67.1223L179.243 67.5532C179.092 67.9429 178.881 68.4976 178.615 69.1989C178.056 70.6429 177.263 72.7104 176.282 75.2545L168.668 95.2596C165.706 103.053 162.992 110.144 160.985 115.242C159.985 117.79 159.151 119.849 158.583 121.27C158.298 121.967 158.074 122.512 157.913 122.897C157.835 123.076 157.78 123.213 157.735 123.323L157.666 123.461C157.674 123.41 157.69 123.361 157.712 123.314C157.748 123.204 157.803 123.062 157.867 122.883C158.019 122.489 158.23 121.939 158.495 121.233C159.055 119.789 159.848 117.726 160.829 115.182L168.443 95.1862C171.404 87.3703 174.114 80.3062 176.126 75.2087C177.125 72.6599 177.96 70.5971 178.528 69.1806C178.812 68.4838 179.037 67.9337 179.197 67.5487C179.275 67.3745 179.33 67.2323 179.376 67.1269L179.445 66.9711Z" fill="#263238"/>
<path d="M179.692 82.8091C179.33 83.0686 178.947 83.2971 178.546 83.4922L175.741 85.0508C174.641 85.6605 173.641 86.206 172.903 86.5773C172.515 86.7975 172.105 86.9757 171.679 87.109C172.045 86.8543 172.428 86.626 172.825 86.426L175.622 84.8445C176.722 84.2348 177.726 83.703 178.469 83.3409C178.859 83.125 179.268 82.9469 179.692 82.8091Z" fill="#263238"/>
<path d="M171.308 86.8157C171.249 86.8432 170.157 84.762 168.874 82.1674C167.59 79.5728 166.582 77.4457 166.651 77.4136C166.719 77.3816 167.801 79.4673 169.089 82.0619C170.378 84.6565 171.368 86.7836 171.308 86.8157Z" fill="#263238"/>
<path d="M167.301 99.0231C166.935 98.7524 166.597 98.4452 166.293 98.1063C165.697 97.5104 164.918 96.6623 164.07 95.6813C163.222 94.7003 162.534 93.7743 162.048 93.0867C161.762 92.7318 161.515 92.3476 161.31 91.9407C161.625 92.2679 161.916 92.6172 162.181 92.9859C162.704 93.646 163.423 94.549 164.253 95.5255C165.083 96.5019 165.853 97.3591 166.412 97.9871C166.734 98.3096 167.031 98.6559 167.301 99.0231Z" fill="#263238"/>
<path d="M175.686 97.052C175.294 97.2085 174.889 97.3282 174.476 97.4095C173.724 97.5975 172.679 97.8404 171.524 98.0971C170.368 98.3539 169.314 98.5556 168.553 98.7206C168.144 98.8235 167.727 98.8865 167.306 98.9085C167.698 98.7534 168.103 98.6352 168.516 98.5556C169.268 98.3676 170.313 98.0971 171.473 97.8634C172.633 97.6296 173.678 97.4049 174.439 97.2445C174.848 97.142 175.265 97.0776 175.686 97.052Z" fill="#263238"/>
<path d="M173.518 108.283C173.009 108.459 172.488 108.599 171.959 108.7C170.987 108.925 169.667 109.223 168.163 109.534C166.66 109.846 165.326 110.121 164.349 110.305C163.826 110.43 163.295 110.514 162.759 110.557C163.267 110.379 163.788 110.24 164.317 110.14C165.285 109.915 166.609 109.617 168.113 109.305C169.616 108.994 170.946 108.719 171.922 108.535C172.447 108.41 172.98 108.326 173.518 108.283Z" fill="#263238"/>
<path d="M162.997 110.428C162.869 110.34 162.754 110.235 162.653 110.117C162.442 109.906 162.149 109.594 161.787 109.2C161.067 108.411 160.1 107.297 159.082 106.028C158.065 104.758 157.189 103.566 156.579 102.69C156.272 102.255 156.034 101.897 155.873 101.645C155.778 101.521 155.701 101.384 155.644 101.237C155.759 101.342 155.861 101.461 155.947 101.59L156.717 102.594C157.359 103.442 158.253 104.611 159.27 105.876C160.288 107.142 161.228 108.274 161.915 109.085C162.305 109.509 162.666 109.957 162.997 110.428Z" fill="#263238"/>
<path d="M158.413 141.137C150.455 134.72 149.3 123.75 150.299 114.027C150.469 112.404 150.405 110.676 151.275 109.301C152.146 107.925 154.026 107.077 155.433 107.861C156.602 108.512 157.029 109.956 157.624 111.162C158.422 112.773 159.658 114.127 161.191 115.067C162.19 115.677 163.451 116.094 164.51 115.599C165.968 114.921 166.266 112.995 166.366 111.377L166.93 102.328C167.031 100.705 167.141 99.0552 167.751 97.5562C168.36 96.0572 169.584 94.7049 171.138 94.3748C172.692 94.0448 174.549 95.0716 174.764 96.6669C174.78 97.3405 174.749 98.0144 174.673 98.6839C174.673 99.3578 174.934 100.123 175.558 100.353C176.181 100.582 176.869 100.174 177.391 99.7337C179.174 98.2163 180.449 96.1901 181.654 94.1686C182.86 92.147 184.029 90.0749 185.67 88.3972C187.311 86.7194 189.498 85.4496 191.826 85.4771C194.155 85.5046 196.521 87.1044 196.952 89.4194C197.382 91.7344 195.893 93.9669 194.316 95.7134C191.974 98.31 189.269 100.554 186.284 102.374C185.702 102.637 185.219 103.081 184.909 103.639C184.483 104.694 185.432 105.835 186.472 106.266C187.65 106.747 188.971 106.724 190.222 106.949C191.474 107.174 192.803 107.834 193.197 109.058C193.747 110.758 192.244 112.395 190.804 113.44C187.935 115.525 184.731 117.104 181.329 118.107C180.105 118.46 178.826 118.753 177.808 119.523C176.791 120.293 176.112 121.71 176.616 122.888C177.121 124.066 178.583 124.538 179.825 124.392C181.068 124.245 182.25 123.644 183.47 123.278C185.762 122.59 188.613 122.943 189.887 124.96C190.735 126.289 190.699 128.054 190.121 129.544C189.477 130.991 188.55 132.294 187.394 133.376C183.58 137.369 178.774 140.276 173.467 141.802C168.186 143.237 163.382 143.393 158.376 141.165" fill="#1D6ACB"/>
<g opacity="0.1">
<path opacity="0.1" d="M158.413 141.137C150.455 134.72 149.3 123.75 150.299 114.027C150.469 112.404 150.405 110.676 151.275 109.301C152.146 107.925 154.026 107.077 155.433 107.861C156.602 108.512 157.029 109.956 157.624 111.162C158.422 112.773 159.658 114.127 161.191 115.067C162.19 115.677 163.451 116.094 164.51 115.599C165.968 114.921 166.266 112.995 166.366 111.377L166.93 102.328C167.031 100.705 167.141 99.0552 167.751 97.5562C168.36 96.0572 169.584 94.7049 171.138 94.3748C172.692 94.0448 174.549 95.0716 174.764 96.6669C174.78 97.3405 174.749 98.0144 174.673 98.6839C174.673 99.3578 174.934 100.123 175.558 100.353C176.181 100.582 176.869 100.174 177.391 99.7337C179.174 98.2163 180.449 96.1901 181.654 94.1686C182.86 92.147 184.029 90.0749 185.67 88.3972C187.311 86.7194 189.498 85.4496 191.826 85.4771C194.155 85.5046 196.521 87.1044 196.952 89.4194C197.382 91.7344 195.893 93.9669 194.316 95.7134C191.974 98.31 189.269 100.554 186.284 102.374C185.702 102.637 185.219 103.081 184.909 103.639C184.483 104.694 185.432 105.835 186.472 106.266C187.65 106.747 188.971 106.724 190.222 106.949C191.474 107.174 192.803 107.834 193.197 109.058C193.747 110.758 192.244 112.395 190.804 113.44C187.935 115.525 184.731 117.104 181.329 118.107C180.105 118.46 178.826 118.753 177.808 119.523C176.791 120.293 176.112 121.71 176.616 122.888C177.121 124.066 178.583 124.538 179.825 124.392C181.068 124.245 182.25 123.644 183.47 123.278C185.762 122.59 188.613 122.943 189.887 124.96C190.735 126.289 190.699 128.054 190.121 129.544C189.477 130.991 188.55 132.294 187.394 133.376C183.58 137.369 178.774 140.276 173.467 141.802C168.186 143.237 163.382 143.393 158.376 141.165" fill="black"/>
</g>
<path d="M157.79 148.362C158.553 143.875 159.745 139.471 161.347 135.21C163.33 130.012 165.609 124.933 168.173 119.995L170.167 116.099C170.827 114.82 171.478 113.555 172.193 112.354C173.569 110.055 175.071 107.833 176.69 105.698C178.226 103.648 179.752 101.76 181.196 100.004C182.64 98.2484 184.024 96.644 185.345 95.2321C187.418 92.9939 189.665 90.9231 192.065 89.0389C192.913 88.3742 193.587 87.8792 194.05 87.5491L194.577 87.1778C194.635 87.1336 194.696 87.0937 194.76 87.0586C194.712 87.1134 194.657 87.1613 194.595 87.2007L194.087 87.5995C193.628 87.9433 192.973 88.4522 192.138 89.1352C189.772 91.0472 187.554 93.1342 185.5 95.3788C184.194 96.7952 182.823 98.4088 181.375 100.165C179.926 101.92 178.418 103.832 176.896 105.867C175.286 107.995 173.795 110.211 172.431 112.505C171.721 113.701 171.056 114.957 170.419 116.236L168.425 120.133C165.868 125.06 163.586 130.126 161.59 135.306C159.982 139.549 158.775 143.932 157.982 148.399" fill="#263238"/>
<path d="M172.28 112.34C172.215 112.111 172.177 111.876 172.165 111.639C172.115 111.18 172.055 110.529 171.996 109.713C171.881 108.09 171.794 105.835 171.707 103.355C171.62 100.875 171.5 98.6243 171.358 97.0015C171.29 96.1947 171.23 95.5392 171.18 95.0854C171.138 94.8509 171.125 94.6125 171.138 94.3748C171.213 94.5999 171.265 94.8317 171.294 95.0671C171.377 95.5255 171.473 96.1718 171.569 96.9832C171.766 98.6014 171.918 100.852 172.028 103.341C172.138 105.831 172.179 108.008 172.229 109.704C172.261 110.47 172.284 111.111 172.307 111.629C172.321 111.867 172.312 112.105 172.28 112.34Z" fill="#263238"/>
<path d="M193.348 109.878C193.071 109.922 192.79 109.937 192.509 109.924C191.973 109.924 191.198 109.924 190.217 109.988C188.301 110.066 185.633 110.259 182.741 110.607C179.848 110.956 177.208 111.382 175.319 111.749C174.375 111.923 173.614 112.088 173.087 112.207C172.816 112.279 172.54 112.326 172.261 112.349C172.519 112.24 172.786 112.154 173.059 112.092C173.577 111.946 174.333 111.753 175.278 111.547C177.157 111.13 179.784 110.667 182.704 110.314C185.196 110.01 187.703 109.834 190.213 109.787C191.176 109.787 191.955 109.787 192.505 109.814C192.787 109.81 193.07 109.832 193.348 109.878Z" fill="#263238"/>
<path d="M161.631 134.834C161.577 134.754 161.535 134.666 161.507 134.573L161.2 133.794C160.939 133.12 160.586 132.13 160.169 130.906C159.33 128.453 158.275 125.029 157.162 121.238C156.048 117.447 155.03 114.013 154.241 111.547C153.856 110.346 153.536 109.36 153.302 108.627L153.05 107.834C153.014 107.743 152.991 107.647 152.981 107.55C153.033 107.631 153.075 107.719 153.105 107.811C153.187 108.022 153.288 108.269 153.407 108.59C153.668 109.264 154.021 110.254 154.443 111.478C155.282 113.931 156.336 117.355 157.446 121.151C158.555 124.946 159.582 128.371 160.37 130.837C160.755 132.038 161.072 133.023 161.287 133.757L161.539 134.55C161.583 134.64 161.614 134.736 161.631 134.834Z" fill="#263238"/>
<path d="M189.887 127.82C189.799 127.868 189.703 127.9 189.603 127.917L188.783 128.132L185.757 128.889C183.199 129.526 179.683 130.447 175.796 131.474C171.909 132.501 168.379 133.39 165.807 133.977C164.524 134.27 163.483 134.5 162.759 134.642L161.924 134.802C161.828 134.826 161.73 134.837 161.631 134.834C161.72 134.792 161.814 134.761 161.911 134.742L162.736 134.527L165.761 133.771C168.315 133.133 171.835 132.207 175.723 131.181C179.61 130.154 183.14 129.264 185.707 128.678C186.99 128.384 188.035 128.16 188.755 128.018L189.589 127.857C189.687 127.833 189.787 127.821 189.887 127.82Z" fill="#263238"/>
<path d="M160.265 14.5931H49.0958V166.923H160.265V14.5931Z" fill="#455A64"/>
<path d="M155.869 157.865H135.281H58.3556V20.7495H155.869V140.807V157.865Z" fill="#E0E0E0"/>
<path d="M154.328 155.321H133.925H57.6909V18.9388H154.328V138.355V155.321Z" fill="#EBEBEB"/>
<path d="M143.946 144.708L132.815 153.771H55.8894V19.2826H153.403V137.039L143.946 144.708Z" fill="#FAFAFA"/>
<path d="M143.946 144.695C143.946 144.695 144.143 144.525 144.541 144.2L146.325 142.742L153.38 136.998V137.025C153.38 117.68 153.343 74.6815 153.311 19.2688L153.416 19.3789H56.7513H55.9032L56.0224 19.2597C56.0224 69.8224 56.0224 116.466 55.9949 153.748L55.9032 153.652L132.829 153.707H132.802L141.163 146.927L143.258 145.236C143.716 144.86 143.959 144.676 143.959 144.676L143.272 145.249L141.177 146.987L132.843 153.799L55.8895 153.863H55.7932V153.767C55.7932 116.484 55.7932 69.8407 55.7703 19.278V19.1588H56.7375H153.403H153.513V19.2643C153.481 74.6953 153.453 117.676 153.444 137.021L146.361 142.737L144.569 144.236L143.946 144.695Z" fill="#263238"/>
<path d="M91.4895 9.88518H118.146C119.866 9.88518 121.516 10.5686 122.733 11.785C123.949 13.0015 124.633 14.6514 124.633 16.3717V23.5642H84.7234V16.6467C84.7246 14.853 85.438 13.1332 86.7068 11.8653C87.9755 10.5974 89.6958 9.88518 91.4895 9.88518Z" fill="#1D6ACB"/>
<path d="M94.5013 9.88518L93.0436 2.50476H116.024L114.745 9.88518H94.5013Z" fill="#1D6ACB"/>
<path d="M82.5138 57.1382H66.089V40.7087H82.5138V57.1382ZM66.5474 56.6797H82.0554V41.1671H66.5474V56.6797Z" fill="#1D6ACB"/>
<path d="M140.572 44.6786C140.572 44.7427 129.134 44.7977 115.034 44.7977C100.933 44.7977 89.491 44.7427 89.491 44.6786C89.491 44.6144 100.924 44.5594 115.034 44.5594C129.143 44.5594 140.572 44.6098 140.572 44.6786Z" fill="#263238"/>
<path d="M140.572 48.0891C140.572 48.1579 129.134 48.2083 115.034 48.2083C100.933 48.2083 89.491 48.1579 89.491 48.0891C89.491 48.0204 100.924 47.9699 115.034 47.9699C129.143 47.9699 140.572 48.0249 140.572 48.0891Z" fill="#263238"/>
<path d="M140.572 51.5043C140.572 51.5685 129.134 51.6235 115.034 51.6235C100.933 51.6235 89.491 51.5685 89.491 51.5043C89.491 51.4401 100.924 51.3851 115.034 51.3851C129.143 51.3851 140.572 51.4401 140.572 51.5043Z" fill="#263238"/>
<path d="M140.572 54.9194C140.572 54.9836 129.134 55.0386 115.034 55.0386C100.933 55.0386 89.491 54.9836 89.491 54.9194C89.491 54.8553 100.924 54.8002 115.034 54.8002C129.143 54.8002 140.572 54.8461 140.572 54.9194Z" fill="#263238"/>
<path d="M82.5138 82.4562H66.089V66.0267H82.5138V82.4562ZM66.5474 81.9978H82.0554V66.4851H66.5474V81.9978Z" fill="#1D6ACB"/>
<path d="M69.353 74.5807L71.5351 72.2382L75.1703 75.1445L83.4904 67.0673L85.4845 69.419L75.0098 79.7515L69.353 74.5807Z" fill="#1D6ACB"/>
<path d="M140.572 69.9966C140.572 70.0607 129.134 70.1158 115.034 70.1158C100.933 70.1158 89.491 70.0607 89.491 69.9966C89.491 69.9324 100.924 69.8774 115.034 69.8774C129.143 69.8774 140.572 69.9324 140.572 69.9966Z" fill="#263238"/>
<path d="M140.572 73.4117C140.572 73.4759 129.134 73.5309 115.034 73.5309C100.933 73.5309 89.491 73.4759 89.491 73.4117C89.491 73.3475 100.924 73.2925 115.034 73.2925C129.143 73.2925 140.572 73.343 140.572 73.4117Z" fill="#263238"/>
<path d="M140.572 76.8223C140.572 76.8911 129.134 76.9415 115.034 76.9415C100.933 76.9415 89.491 76.8911 89.491 76.8223C89.491 76.7535 100.924 76.7031 115.034 76.7031C129.143 76.7031 140.572 76.7581 140.572 76.8223Z" fill="#263238"/>
<path d="M140.572 80.2375C140.572 80.3016 129.134 80.3566 115.034 80.3566C100.933 80.3566 89.491 80.3016 89.491 80.2375C89.491 80.1733 100.924 80.1183 115.034 80.1183C129.143 80.1183 140.572 80.1733 140.572 80.2375Z" fill="#263238"/>
<path d="M82.5138 106.958H66.089V90.5288H82.5138V106.958ZM66.5474 106.5H82.0554V90.9872H66.5474V106.5Z" fill="#1D6ACB"/>
<path d="M69.353 99.0827L71.5351 96.7403L75.1703 99.6466L83.4904 91.5694L85.4845 93.921L75.0098 104.254L69.353 99.0827Z" fill="#1D6ACB"/>
<path d="M140.572 94.4986C140.572 94.5628 129.134 94.6178 115.034 94.6178C100.933 94.6178 89.491 94.5628 89.491 94.4986C89.491 94.4344 100.924 94.3794 115.034 94.3794C129.143 94.3794 140.572 94.4299 140.572 94.4986Z" fill="#263238"/>
<path d="M140.572 97.9092C140.572 97.978 129.134 98.0284 115.034 98.0284C100.933 98.0284 89.491 97.978 89.491 97.9092C89.491 97.8404 100.924 97.79 115.034 97.79C129.143 97.79 140.572 97.845 140.572 97.9092Z" fill="#263238"/>
<path d="M140.572 101.324C140.572 101.393 129.134 101.444 115.034 101.444C100.933 101.444 89.491 101.393 89.491 101.324C89.491 101.256 100.924 101.205 115.034 101.205C129.143 101.205 140.572 101.26 140.572 101.324Z" fill="#263238"/>
<path d="M140.572 104.74C140.572 104.804 129.134 104.859 115.034 104.859C100.933 104.859 89.491 104.804 89.491 104.74C89.491 104.675 100.924 104.62 115.034 104.62C129.143 104.62 140.572 104.675 140.572 104.74Z" fill="#263238"/>
<path d="M82.5138 130.617H66.089V114.187H82.5138V130.617ZM66.5474 130.158H82.0554V114.646H66.5474V130.158Z" fill="#1D6ACB"/>
<path d="M69.353 122.741L71.5351 120.399L75.1703 123.305L83.4904 115.228L85.4845 117.575L75.0098 127.908L69.353 122.741Z" fill="#1D6ACB"/>
<path d="M140.572 118.153C140.572 118.221 129.134 118.272 115.034 118.272C100.933 118.272 89.491 118.221 89.491 118.153C89.491 118.084 100.924 118.033 115.034 118.033C129.143 118.033 140.572 118.107 140.572 118.153Z" fill="#263238"/>
<path d="M140.572 121.568C140.572 121.632 129.134 121.687 115.034 121.687C100.933 121.687 89.491 121.632 89.491 121.568C89.491 121.504 100.924 121.449 115.034 121.449C129.143 121.449 140.572 121.504 140.572 121.568Z" fill="#263238"/>
<path d="M140.572 124.983C140.572 125.047 129.134 125.102 115.034 125.102C100.933 125.102 89.491 125.047 89.491 124.983C89.491 124.919 100.924 124.864 115.034 124.864C129.143 124.864 140.572 124.914 140.572 124.983Z" fill="#263238"/>
<path d="M140.572 128.393C140.572 128.462 129.134 128.513 115.034 128.513C100.933 128.513 89.491 128.462 89.491 128.393C89.491 128.325 100.924 128.274 115.034 128.274C129.143 128.274 140.572 128.329 140.572 128.393Z" fill="#263238"/>
<path d="M135.873 131.506L125.183 153.647H132.815L135.873 131.506Z" fill="#E0E0E0"/>
<path d="M132.815 153.771L135.873 131.63L153.403 137.039L132.815 153.771Z" fill="#FAFAFA"/>
<path d="M132.815 153.771L138.71 148.917L153.329 136.947L153.37 137.149L146.6 135.068L135.859 131.735L136.001 131.644C135.084 138.061 134.301 143.585 133.746 147.5C133.191 151.309 132.907 153.276 132.829 153.771C132.827 153.738 132.827 153.704 132.829 153.67L132.87 153.368C132.907 153.079 132.957 152.676 133.026 152.162C133.168 151.085 133.37 149.54 133.627 147.578C134.158 143.631 134.901 138.08 135.767 131.593V131.465L135.891 131.502L146.659 134.82L153.425 136.911L153.636 136.975L153.467 137.112C147.549 141.885 142.373 146.056 138.669 149.031L134.346 152.501L133.191 153.418L132.898 153.652L132.815 153.771Z" fill="#263238"/>
<g opacity="0.3">
<path opacity="0.3" d="M114.433 2.50476L113.168 9.88518H114.745L116.024 2.50476H114.011" fill="black"/>
</g>
<path d="M47.1246 80.3429C47.6773 80.3846 48.2327 80.3145 48.7577 80.1368C49.2827 79.9591 49.7665 79.6774 50.1803 79.3086C50.594 78.9398 50.9292 78.4914 51.1658 77.9902C51.4024 77.489 51.5356 76.9452 51.5575 76.3914C51.6446 74.1452 51.7225 71.8761 51.7225 71.8761C51.7225 71.8761 55.1239 71.5597 55.3898 68.2088C55.6557 64.8578 55.5227 57.074 55.5227 57.074C53.6581 56.1332 51.5761 55.7078 49.4919 55.8416C47.4078 55.9753 45.3972 56.6635 43.6682 57.8349L43.8745 69.6803V76.0568C43.8791 78.1746 44.993 80.1825 47.1246 80.3429Z" fill="#FFBE9D"/>
<path d="M52.0158 64.0831C51.7674 63.726 51.3934 63.4757 50.9685 63.3822C50.5437 63.2888 50.0992 63.359 49.7238 63.5788C49.3428 63.8435 49.0682 64.2349 48.949 64.6833C48.8298 65.1316 48.8737 65.6077 49.0728 66.0267C49.2464 66.3377 49.4827 66.6091 49.7669 66.8237C50.051 67.0384 50.3766 67.1916 50.7231 67.2736C51.0303 67.3404 51.3027 67.5169 51.4892 67.7701C51.6756 68.0232 51.7635 68.3356 51.7362 68.6488C51.5951 69.5336 51.1817 70.3524 50.5535 70.9913C49.5151 72.048 48.1331 72.6983 46.657 72.825C45.2222 72.9946 43.5811 72.6966 42.7468 71.5185C42.1371 70.6613 42.0958 69.5382 42.0729 68.4884C42.021 66.0069 41.969 63.5253 41.9171 61.0438C41.8631 60.1494 41.92 59.2517 42.0867 58.3713C42.2622 57.4832 42.7665 56.6941 43.4986 56.1617C44.3191 55.6208 45.3551 55.575 46.2857 55.277C47.4547 54.8965 48.4448 54.1264 49.5358 53.5671C50.6269 53.0079 51.9608 52.6732 53.0564 53.2233C53.8449 53.6176 54.3721 54.4014 55.133 54.8369C56.2241 55.4558 57.7047 55.2953 58.2319 56.9181C58.4175 57.473 58.4175 58.0731 58.2319 58.628C57.4939 60.8054 54.7984 61.6856 52.8547 60.7458C52.8181 61.1126 53.1802 61.9331 52.7906 63.0975C52.6668 63.4734 52.6255 64.0372 52.0434 64.051" fill="#263238"/>
<path d="M42.7239 57.1382C43.2581 56.0735 43.6231 54.9321 43.8058 53.7551C43.8922 53.1655 43.8416 52.564 43.658 51.9972C43.4743 51.4303 43.1626 50.9135 42.7468 50.4866C42.1332 49.9538 41.3403 49.6736 40.5281 49.7027C39.7566 49.7467 39.0175 50.0279 38.412 50.5079C37.8064 50.9879 37.3639 51.6433 37.145 52.3844C36.9562 53.1316 36.9854 53.9173 37.2291 54.6485C37.4728 55.3796 37.9209 56.0257 38.5203 56.5101C39.1332 56.9809 39.8595 57.2813 40.6259 57.3812C41.3922 57.481 42.1713 57.3766 42.8843 57.0786" fill="#263238"/>
<path d="M43.384 55.9234C43.3592 56.3349 43.1821 56.7225 42.8872 57.0106C42.5923 57.2987 42.2007 57.4668 41.7887 57.482C41.7887 57.4132 42.2838 57.2803 42.7055 56.8402C43.1273 56.4001 43.3198 55.905 43.384 55.9234Z" fill="#1D6ACB"/>
<path d="M42.2793 56.7485C42.0166 57.0239 41.7059 57.2491 41.3625 57.4132C40.9955 57.6224 40.5836 57.7403 40.1614 57.757C39.8934 57.7715 39.6258 57.7216 39.381 57.6115C39.1362 57.5015 38.9212 57.3345 38.7541 57.1244C38.6062 56.9033 38.5076 56.6529 38.4649 56.3904C38.4222 56.1278 38.4364 55.8591 38.5066 55.6025C38.613 55.1952 38.8052 54.8154 39.0704 54.4885C39.2899 54.1787 39.5595 53.9076 39.8681 53.6863C39.664 54.0032 39.4437 54.3092 39.2079 54.6031C38.9778 54.9224 38.8127 55.2837 38.722 55.6666C38.6648 55.8924 38.6553 56.1276 38.6939 56.3573C38.7326 56.5869 38.8187 56.806 38.9467 57.0006C39.0932 57.1796 39.279 57.3223 39.4897 57.4177C39.7004 57.5131 39.9303 57.5586 40.1614 57.5507C40.5532 57.5444 40.9385 57.4504 41.2891 57.2757C41.8851 56.9685 42.2564 56.7118 42.2793 56.7485Z" fill="#263238"/>
<path d="M36.5582 60.5487C36.6273 60.6651 36.6813 60.7899 36.7187 60.92C36.8375 61.2635 37.0058 61.5878 37.2183 61.8827C37.3597 62.0959 37.5576 62.2655 37.7901 62.3724C38.0225 62.4793 38.2801 62.5193 38.534 62.4878C38.8378 62.402 39.1144 62.2392 39.3369 62.0151C39.5593 61.791 39.7202 61.5133 39.8038 61.2088C39.9685 60.5677 40.0834 59.9148 40.1476 59.256C40.2123 58.691 40.4347 58.1557 40.7894 57.7112C41.0434 57.4187 41.3893 57.2215 41.7704 57.1519C41.9082 57.1182 42.0532 57.1311 42.1829 57.1886C42.1829 57.1886 42.0317 57.1886 41.7887 57.2436C41.4444 57.3388 41.1394 57.5411 40.9177 57.8212C40.6054 58.252 40.4138 58.7584 40.363 59.2881C40.3101 59.9628 40.1982 60.6316 40.0284 61.2868C39.9338 61.6307 39.7493 61.9432 39.4939 62.1921C39.2385 62.4411 38.9214 62.6175 38.5752 62.7033C38.2587 62.7538 37.9344 62.6922 37.6584 62.5291C37.4295 62.3901 37.2326 62.2042 37.0808 61.9835C36.8706 61.6682 36.7156 61.3194 36.6224 60.9521C36.5754 60.823 36.5536 60.6861 36.5582 60.5487Z" fill="#263238"/>
<path d="M34.9034 88.8281C34.9034 88.8281 33.1844 101.398 34.9034 102.993C36.6225 104.588 38.2682 104.056 38.2682 104.056L41.5366 101.306L42.1784 88.8097L34.9034 88.8281Z" fill="#FFBE9D"/>
<path d="M70.4072 53.5442L72.5893 51.2017L76.2245 54.1081L84.5446 46.0309L86.5387 48.3825L76.064 58.7151L70.4072 53.5442Z" fill="#1D6ACB"/>
<path d="M80.6574 54.1814L77.4943 56.2122C77.3522 54.9607 76.3987 53.723 76.4446 54.351C76.4904 54.979 76.4446 58.2383 76.4446 58.2383L70.8107 70.1066C70.0452 71.9861 68.4911 73.1688 67.3314 73.4484L62.0551 75.0162L64.1133 81.9794L71.4479 79.5498C72.3841 79.2397 73.2345 78.7144 73.9311 78.0163C74.6276 77.3181 75.1509 76.4665 75.459 75.5296L80.5015 60.1637C80.8363 59.1739 81.1059 58.1632 81.3083 57.1382C81.5283 55.85 80.6574 54.1814 80.6574 54.1814Z" fill="#FFBE9D"/>
<path d="M54.7434 183.99L54.6609 180.474L48.069 180.579L48.1286 185.727L48.5411 185.75C50.3748 185.819 57.8056 185.984 59.0158 185.599C60.3635 185.163 54.7434 183.99 54.7434 183.99Z" fill="#1D6ACB"/>
<g opacity="0.5">
<path opacity="0.5" d="M50.5214 185.64C50.4103 185.091 50.1021 184.602 49.655 184.265C49.2147 183.922 48.6614 183.758 48.1056 183.806L48.1331 185.64H50.5214Z" fill="white"/>
</g>
<g opacity="0.4">
<path opacity="0.4" d="M57.471 184.663C57.471 184.663 59.4421 185.195 59.2038 185.525C58.9654 185.855 51.4383 185.984 48.1102 185.727V185.58L56.8934 185.521C56.8934 185.521 57.1088 184.686 57.471 184.663Z" fill="white"/>
</g>
<path d="M48.0323 185.576H48.1469H48.4724L49.6734 185.608C50.6865 185.631 52.0847 185.64 53.6295 185.608C55.1743 185.576 56.5771 185.534 57.5856 185.484L58.7866 185.415L59.1121 185.392H59.2221H59.1075H58.782L57.5856 185.438C56.5725 185.47 55.1743 185.516 53.6295 185.539C52.0847 185.562 50.6865 185.539 49.6734 185.539H48.477H48.0186L48.0323 185.576Z" fill="#263238"/>
<path d="M56.9208 185.622C56.9685 185.422 57.0409 185.23 57.1363 185.048C57.2517 184.881 57.3855 184.728 57.5351 184.59C57.34 184.682 57.1771 184.83 57.0675 185.016C56.9579 185.201 56.9068 185.416 56.9208 185.631V185.622Z" fill="#263238"/>
<path d="M54.9588 184.663C54.9588 184.663 55.0688 184.563 55.1651 184.411C55.2614 184.26 55.3164 184.122 55.298 184.113C55.2797 184.104 55.188 184.214 55.0963 184.365C55.0047 184.517 54.9405 184.654 54.9588 184.663Z" fill="#263238"/>
<path d="M54.4226 184.393C54.4226 184.393 54.5372 184.338 54.6518 184.232C54.7664 184.127 54.8398 184.031 54.826 184.017C54.8122 184.003 54.7068 184.072 54.5968 184.173C54.4868 184.274 54.4043 184.375 54.4226 184.393Z" fill="#263238"/>
<path d="M54.0741 183.774C54.184 183.814 54.302 183.827 54.4179 183.811C54.5342 183.824 54.652 183.81 54.7617 183.77C54.6507 183.734 54.5338 183.722 54.4179 183.733C54.3017 183.72 54.184 183.734 54.0741 183.774Z" fill="#263238"/>
<path d="M53.9504 183.339C54.0662 183.41 54.1997 183.446 54.3355 183.444C54.4714 183.464 54.6101 183.443 54.7343 183.384C54.6032 183.372 54.4712 183.372 54.3401 183.384C54.2119 183.357 54.0815 183.342 53.9504 183.339Z" fill="#263238"/>
<path d="M55.1788 184.086C55.3182 184.111 55.4612 184.111 55.6006 184.086C55.7563 184.065 55.9098 184.03 56.059 183.98C56.1481 183.953 56.2341 183.916 56.3157 183.87C56.3415 183.857 56.3642 183.838 56.3824 183.815C56.4005 183.792 56.4137 183.766 56.4211 183.737C56.4265 183.706 56.423 183.673 56.4108 183.643C56.3987 183.613 56.3784 183.587 56.3524 183.568C56.189 183.492 56.0047 183.475 55.8302 183.519C55.6557 183.564 55.5018 183.666 55.3943 183.811C55.3326 183.896 55.2875 183.993 55.2613 184.095C55.2533 184.133 55.2533 184.172 55.2613 184.21C55.3052 184.08 55.3686 183.958 55.4493 183.847C55.5438 183.735 55.6676 183.651 55.8069 183.605C55.9735 183.547 56.1562 183.557 56.3157 183.632C56.3799 183.682 56.357 183.76 56.2836 183.806C56.2077 183.849 56.1278 183.884 56.0452 183.912C55.8958 183.963 55.7425 184.003 55.5868 184.031C55.3347 184.072 55.1788 184.072 55.1788 184.086Z" fill="#263238"/>
<path d="M55.2843 184.118C55.3359 184.029 55.3522 183.925 55.3301 183.825C55.3128 183.714 55.2705 183.609 55.2064 183.517C55.1701 183.455 55.1187 183.403 55.057 183.367C54.9953 183.33 54.9252 183.309 54.8534 183.307C54.8319 183.311 54.8116 183.319 54.7935 183.332C54.7753 183.344 54.7599 183.36 54.7479 183.378C54.736 183.397 54.7278 183.417 54.7239 183.439C54.7199 183.46 54.7203 183.482 54.725 183.504C54.7352 183.571 54.7603 183.635 54.7984 183.692C54.8541 183.786 54.9236 183.871 55.0047 183.944C55.0701 184.02 55.1536 184.078 55.2476 184.113C55.2476 184.113 55.1651 184.04 55.0459 183.907C54.9773 183.829 54.9159 183.744 54.8626 183.655C54.803 183.568 54.7617 183.407 54.8626 183.384C54.9634 183.362 55.078 183.476 55.1422 183.559C55.2036 183.64 55.2473 183.734 55.2705 183.834C55.2832 183.928 55.2878 184.023 55.2843 184.118Z" fill="#263238"/>
<path d="M48.1423 183.77C48.1423 183.77 48.3303 183.77 48.6283 183.77C49.0169 183.806 49.3872 183.952 49.6963 184.191C50.0054 184.429 50.2406 184.751 50.3748 185.117C50.4802 185.397 50.494 185.576 50.5077 185.576C50.5168 185.532 50.5168 185.487 50.5077 185.443C50.4928 185.323 50.4667 185.205 50.4298 185.09C50.3027 184.707 50.0634 184.371 49.7429 184.126C49.4225 183.88 49.0357 183.737 48.6328 183.715C48.5125 183.701 48.391 183.701 48.2707 183.715C48.2247 183.724 48.181 183.743 48.1423 183.77Z" fill="#263238"/>
<path d="M48.7841 181.019C48.7431 181.469 48.7308 181.92 48.7474 182.371C48.7328 182.83 48.7465 183.289 48.7886 183.747C48.8303 183.289 48.8426 182.83 48.8253 182.371C48.8364 181.92 48.8226 181.469 48.7841 181.019Z" fill="#263238"/>
<path d="M51.3374 184.984C51.6554 185.05 51.9803 185.076 52.3046 185.062C52.6282 185.076 52.9522 185.045 53.2673 184.971C53.2673 184.948 52.8089 184.971 52.3046 184.971C51.8004 184.971 51.342 184.961 51.3374 184.984Z" fill="#263238"/>
<path d="M50.0493 184.998C50.0493 184.998 50.086 185.09 50.1272 185.191C50.1685 185.291 50.2006 185.374 50.2235 185.374C50.2464 185.374 50.2556 185.269 50.2006 185.154C50.1456 185.039 50.0631 184.984 50.0493 184.998Z" fill="#263238"/>
<path d="M49.5496 184.402C49.5496 184.402 49.5771 184.485 49.6504 184.553C49.7238 184.622 49.7879 184.663 49.8017 184.65C49.8154 184.636 49.7742 184.563 49.7054 184.498C49.6367 184.434 49.5679 184.384 49.5496 184.402Z" fill="#263238"/>
<path d="M48.8483 184.118C48.8483 184.118 48.9446 184.118 49.0408 184.168C49.1371 184.219 49.2059 184.251 49.2242 184.237C49.2425 184.223 49.1875 184.132 49.0638 184.095C48.94 184.058 48.8437 184.118 48.8483 184.118Z" fill="#263238"/>
<path d="M48.3531 184.012C48.3531 184.012 48.3807 184.067 48.4357 184.086C48.4907 184.104 48.5411 184.109 48.5503 184.086C48.5594 184.063 48.5182 184.031 48.4632 184.012C48.4082 183.994 48.3577 183.99 48.3531 184.012Z" fill="#263238"/>
<path d="M31.4745 182.866L33.7115 180.148L28.6415 175.926L25.3318 179.868L25.6252 180.153C26.9591 181.395 32.5013 186.373 33.6657 186.868C34.9722 187.423 31.4745 182.866 31.4745 182.866Z" fill="#1D6ACB"/>
<g opacity="0.5">
<path opacity="0.5" d="M27.2158 181.367C27.4963 180.878 27.5861 180.301 27.468 179.749C27.3556 179.204 27.0412 178.721 26.5878 178.397L25.3822 179.804L27.2158 181.367Z" fill="white"/>
</g>
<g opacity="0.4">
<path opacity="0.4" d="M33.1202 185.168C33.1202 185.168 34.2662 186.859 33.872 186.951C33.4777 187.043 27.6743 182.22 25.3318 179.868L25.4326 179.763L32.13 185.447C32.13 185.447 32.813 184.934 33.1202 185.168Z" fill="white"/>
</g>
<path d="M25.3547 179.694L25.4327 179.777L25.671 180.001L26.5604 180.808C27.3121 181.482 28.3665 182.403 29.5538 183.394C30.7411 184.384 31.8458 185.259 32.6343 185.883L33.5878 186.612L33.8491 186.804L33.9454 186.868L33.8583 186.79L33.6061 186.584L32.6893 185.837C31.8963 185.204 30.8098 184.324 29.6225 183.334C28.4353 182.344 27.3763 181.432 26.6154 180.767L25.6985 179.978L25.451 179.763L25.3547 179.694Z" fill="#263238"/>
<path d="M32.0613 185.525C32.2283 185.404 32.4101 185.303 32.6022 185.227C32.8004 185.177 33.0031 185.146 33.2073 185.136C33.0031 185.061 32.7789 185.061 32.5747 185.136C32.362 185.199 32.1796 185.337 32.0613 185.525Z" fill="#263238"/>
<path d="M31.1995 183.517C31.1995 183.54 31.3507 183.517 31.5203 183.458C31.69 183.398 31.8275 183.343 31.8183 183.32C31.8091 183.297 31.667 183.32 31.4974 183.38C31.3894 183.404 31.2878 183.451 31.1995 183.517Z" fill="#263238"/>
<path d="M30.9702 182.958C30.9702 182.958 31.094 182.995 31.2498 182.99C31.4057 182.986 31.5249 182.963 31.5249 182.94C31.5249 182.917 31.3965 182.903 31.2453 182.908C31.1509 182.903 31.0568 182.92 30.9702 182.958Z" fill="#263238"/>
<path d="M31.1078 182.284C31.1078 182.284 31.1995 182.413 31.3462 182.536C31.4289 182.62 31.5269 182.687 31.635 182.734C31.635 182.734 31.5433 182.601 31.3966 182.477C31.2499 182.353 31.1261 182.248 31.1078 182.284Z" fill="#263238"/>
<path d="M31.3003 181.853C31.3502 181.979 31.4263 182.093 31.5235 182.187C31.6207 182.281 31.7368 182.353 31.8641 182.399C31.7753 182.303 31.6804 182.212 31.5799 182.128C31.4286 181.982 31.3415 181.826 31.3003 181.853Z" fill="#263238"/>
<path d="M31.7404 183.201C31.8313 183.311 31.9416 183.402 32.0659 183.472C32.1959 183.556 32.3341 183.626 32.4784 183.682C32.5637 183.721 32.6528 183.75 32.7443 183.77C32.802 183.779 32.8612 183.766 32.9093 183.733C32.9346 183.713 32.9537 183.687 32.9643 183.657C32.9748 183.627 32.9765 183.594 32.9689 183.563C32.8982 183.396 32.771 183.258 32.6094 183.174C32.4478 183.09 32.262 183.066 32.0842 183.105C31.9795 183.125 31.8808 183.169 31.7954 183.233C31.7633 183.254 31.7353 183.28 31.7129 183.311C31.8303 183.24 31.959 183.189 32.0934 183.16C32.2389 183.135 32.3885 183.152 32.5243 183.21C32.6877 183.274 32.8195 183.399 32.891 183.559C32.891 183.641 32.8406 183.687 32.7535 183.673C32.6689 183.654 32.5861 183.628 32.5059 183.595C32.3647 183.543 32.2282 183.479 32.098 183.403C31.8733 183.316 31.7496 183.201 31.7404 183.201Z" fill="#263238"/>
<path d="M31.7999 183.307C31.7999 183.307 31.9191 183.27 32.0291 183.114C32.0882 183.019 32.1257 182.913 32.1391 182.802C32.1496 182.731 32.143 182.658 32.1199 182.589C32.0968 182.521 32.0579 182.459 32.0062 182.408C31.9666 182.387 31.9203 182.382 31.8774 182.395C31.8344 182.408 31.7983 182.437 31.777 182.477C31.7421 182.534 31.7202 182.598 31.7128 182.665C31.6994 182.773 31.6994 182.882 31.7128 182.99C31.7128 183.091 31.738 183.19 31.7861 183.279C31.7861 183.279 31.7861 183.164 31.7861 182.99C31.7849 182.886 31.7941 182.781 31.8136 182.678C31.8136 182.573 31.8962 182.426 31.9924 182.477C32.0887 182.527 32.0933 182.688 32.0933 182.793C32.0851 182.894 32.0554 182.993 32.0062 183.082C31.946 183.164 31.8768 183.24 31.7999 183.307Z" fill="#263238"/>
<path d="M26.6154 178.397C26.6154 178.397 26.7712 178.502 26.9775 178.718C27.246 179.002 27.4315 179.354 27.5138 179.736C27.5898 180.119 27.558 180.515 27.4222 180.882C27.3167 181.166 27.2021 181.317 27.2159 181.34C27.2503 181.31 27.2797 181.274 27.303 181.235C27.3713 181.136 27.4282 181.03 27.4726 180.918C27.6311 180.545 27.6726 180.133 27.5918 179.736C27.509 179.339 27.3094 178.977 27.0188 178.695C26.9321 178.61 26.8369 178.535 26.7345 178.47C26.6999 178.438 26.6594 178.414 26.6154 178.397Z" fill="#263238"/>
<path d="M28.8982 176.724C28.5726 177.04 28.2664 177.375 27.9814 177.728C27.6788 178.064 27.3942 178.416 27.1288 178.782C27.4565 178.47 27.7628 178.136 28.0456 177.783C28.3477 177.444 28.6323 177.091 28.8982 176.724Z" fill="#263238"/>
<path d="M28.2473 181.4C28.4432 181.657 28.6712 181.888 28.9258 182.087C29.1638 182.308 29.4305 182.497 29.7188 182.646C29.7188 182.646 29.3842 182.371 28.9808 182.028C28.5774 181.684 28.2657 181.367 28.2473 181.4Z" fill="#263238"/>
<path d="M27.2571 180.57C27.2571 180.57 27.2251 180.662 27.1975 180.767C27.17 180.872 27.1288 180.95 27.1471 180.964C27.1655 180.978 27.2388 180.909 27.2755 180.785C27.3122 180.662 27.2801 180.565 27.2571 180.57Z" fill="#263238"/>
<path d="M27.2708 179.79C27.2479 179.79 27.2387 179.873 27.2479 179.969C27.2571 180.066 27.28 180.143 27.3029 180.143C27.3258 180.143 27.335 180.061 27.3029 179.965C27.2708 179.868 27.2937 179.79 27.2708 179.79Z" fill="#263238"/>
<path d="M26.9133 179.13C26.9133 179.153 26.9729 179.208 27.0234 179.295C27.0738 179.383 27.0967 179.47 27.1196 179.47C27.1425 179.47 27.1563 179.364 27.0921 179.254C27.0279 179.144 26.9225 179.112 26.9133 179.13Z" fill="#263238"/>
<path d="M26.6154 178.713C26.6154 178.713 26.6154 178.777 26.6154 178.828C26.6154 178.878 26.6841 178.91 26.7025 178.901C26.7208 178.892 26.7025 178.837 26.7025 178.787C26.7025 178.736 26.6337 178.704 26.6154 178.713Z" fill="#263238"/>
<path d="M45.1947 109.209C45.1947 109.209 42.9989 118.496 43.6224 120.335C44.2458 122.173 48.2661 123.232 48.2661 123.232L48.1286 148.669L25.8865 176.174L34.092 182.885C34.092 182.885 58.1769 155.339 60.2994 150.338C62.4218 145.336 58.9241 108.783 58.9241 108.783L45.1947 109.209Z" fill="#263238"/>
<path d="M56.5541 105.423L57.6405 182.674L46.3315 182.743L40.6518 119.812C39.4508 118.666 37.7593 116.704 37.9931 112.326L38.2681 107.242L56.5541 105.423Z" fill="#263238"/>
<path d="M44.6355 152.969C44.652 152.928 44.6736 152.89 44.6997 152.854C44.7593 152.772 44.828 152.666 44.9151 152.538L45.754 151.351L48.8254 147.097V147.156C48.5778 144.475 48.2799 141.224 47.959 137.718C47.5464 133.133 47.2163 128.962 47.0192 125.941C46.9184 124.433 46.8542 123.213 46.8175 122.37C46.8175 121.967 46.79 121.641 46.7854 121.394C46.7714 121.281 46.7714 121.167 46.7854 121.054C46.8076 121.166 46.8214 121.28 46.8267 121.394C46.8267 121.637 46.8725 121.962 46.9046 122.365C46.9734 123.232 47.0651 124.442 47.1843 125.932C47.4226 128.944 47.7802 133.101 48.1928 137.695C48.4999 141.215 48.8116 144.461 49.0179 147.156V147.188V147.216L45.8778 151.415L44.9931 152.575L44.7547 152.873C44.6584 152.946 44.6355 152.973 44.6355 152.969Z" fill="#455A64"/>
<path d="M48.101 121.054C47.089 121.001 46.0848 120.847 45.103 120.596C44.1042 120.427 43.1246 120.16 42.1783 119.798C43.1804 119.927 44.1739 120.115 45.1534 120.362C46.1483 120.537 47.1325 120.768 48.101 121.054Z" fill="#455A64"/>
<path d="M55.8482 147.445C54.8721 147.04 53.8447 146.772 52.7952 146.647C51.7378 146.605 50.6797 146.708 49.6505 146.955C49.9193 146.785 50.218 146.668 50.5307 146.611C51.278 146.416 52.0528 146.348 52.8227 146.409C53.5878 146.471 54.3374 146.658 55.0414 146.964C55.337 147.075 55.6103 147.238 55.8482 147.445Z" fill="#455A64"/>
<path d="M59.8409 151.011C59.8914 151.053 56.71 155.325 52.731 160.551C48.752 165.777 45.4835 169.99 45.4331 169.953C45.3827 169.916 48.564 165.639 52.543 160.409C56.522 155.178 59.7905 150.97 59.8409 151.011Z" fill="#455A64"/>
<path d="M58.3099 111.157C58.1795 111.492 57.9589 111.784 57.6727 112.001C57.3451 112.288 56.9617 112.504 56.5466 112.635C56.1316 112.767 55.6937 112.812 55.2607 112.766C54.8276 112.72 54.4086 112.586 54.0301 112.37C53.6516 112.155 53.3217 111.864 53.0611 111.515C52.8185 111.247 52.6592 110.914 52.6027 110.557C52.7791 110.85 52.9719 111.133 53.1803 111.405C53.7042 112.04 54.4566 112.444 55.2754 112.529C56.0942 112.615 56.914 112.376 57.5581 111.863C57.8208 111.641 58.0718 111.406 58.3099 111.157Z" fill="#455A64"/>
<path d="M42.8476 71.4085C40.9841 69.6379 39.8853 67.2099 39.7851 64.6413C39.6849 62.0727 40.5913 59.5665 42.3112 57.6562" fill="#263238"/>
<path d="M36.4895 78.6147C36.4895 78.6147 34.0324 81.3927 33.5236 92.014C33.5236 92.014 40.5235 93.3434 40.6518 92.9629C40.7802 92.5825 36.4895 78.6147 36.4895 78.6147Z" fill="#1D6ACB"/>
<g opacity="0.3">
<path opacity="0.3" d="M36.4895 78.6147C36.4895 78.6147 34.0324 81.3927 33.5236 92.014C33.5236 92.014 40.5235 93.3434 40.6518 92.9629C40.7802 92.5825 36.4895 78.6147 36.4895 78.6147Z" fill="black"/>
</g>
<path d="M37.6264 109.553H59.1212L58.7728 106.193C58.7728 106.193 56.3158 93.4213 56.3341 93.2517L56.7192 92.4403C57.2214 91.3868 57.49 90.2371 57.5066 89.0701C57.5233 87.9031 57.2875 86.7462 56.8154 85.6788L67.3589 82.0803L64.7826 73.398C60.006 74.2002 52.786 75.1033 52.786 75.1033L51.7133 75.1904C51.7133 75.1904 44.2596 75.58 44.0991 75.5983C40.9819 75.9788 37.3559 76.2172 36.0311 79.5544C35.3206 81.3376 35.9944 84.0148 37.1542 86.7744L39.9047 95.255C41.0049 99.917 39.2491 99.6924 38.2819 104.387C38.126 105.092 37.6126 108.902 37.6264 109.553Z" fill="#1D6ACB"/>
<g opacity="0.3">
<path opacity="0.3" d="M37.6264 109.553H59.1212L58.7728 106.193C58.7728 106.193 56.3158 93.4213 56.3341 93.2517L56.7192 92.4403C57.2214 91.3868 57.49 90.2371 57.5066 89.0701C57.5233 87.9031 57.2875 86.7462 56.8154 85.6788L67.3589 82.0803L64.7826 73.398C60.006 74.2002 52.786 75.1033 52.786 75.1033L51.7133 75.1904C51.7133 75.1904 44.2596 75.58 44.0991 75.5983C40.9819 75.9788 37.3559 76.2172 36.0311 79.5544C35.3206 81.3376 35.9944 84.0148 37.1542 86.7744L39.9047 95.255C41.0049 99.917 39.2491 99.6924 38.2819 104.387C38.126 105.092 37.6126 108.902 37.6264 109.553Z" fill="black"/>
</g>
<path d="M67.2396 82.2224C67.0943 82.3042 66.9406 82.3703 66.7812 82.4195C66.4787 82.5295 66.034 82.6808 65.4839 82.8779C64.3837 83.2492 62.8526 83.7397 61.1657 84.2806C59.4787 84.8216 57.9568 85.3579 56.9025 85.798C56.3615 86.018 55.9352 86.2106 55.6372 86.3389C55.4927 86.419 55.3387 86.4806 55.1788 86.5223C55.312 86.4164 55.4565 86.3257 55.6097 86.2518C55.8985 86.1005 56.3157 85.8805 56.8474 85.6421C58.2371 85.0365 59.6588 84.507 61.1061 84.056C62.7976 83.5151 64.315 83.0475 65.4472 82.7175C66.0019 82.5524 66.4557 82.4241 66.7675 82.337C66.9195 82.2793 67.0781 82.2408 67.2396 82.2224Z" fill="#263238"/>
<path d="M65.9928 77.597C65.9928 77.6612 59.6346 77.7162 51.782 77.7162C43.9294 77.7162 37.5713 77.6612 37.5713 77.597C37.5713 77.5328 43.9249 77.4778 51.782 77.4778C59.6392 77.4778 65.9928 77.5328 65.9928 77.597Z" fill="#FAFAFA"/>
<path d="M66.6391 81.819C66.6391 81.8832 59.5659 81.9382 50.8423 81.9382C42.1187 81.9382 35.05 81.8832 35.05 81.819C35.05 81.7548 42.1187 81.6998 50.8423 81.6998C59.5659 81.6998 66.6391 81.7548 66.6391 81.819Z" fill="#FAFAFA"/>
<path d="M36.8424 86.6231C36.4127 86.7397 35.9658 86.78 35.5222 86.7423C35.08 86.7799 34.6347 86.7395 34.2065 86.6231C34.6347 86.5067 35.08 86.4664 35.5222 86.5039C35.9658 86.4662 36.4127 86.5065 36.8424 86.6231Z" fill="#FAFAFA"/>
<path d="M57.4709 86.7698C57.4709 86.834 52.8456 86.889 47.1429 86.889C41.4403 86.889 36.8149 86.834 36.8149 86.7698C36.8149 86.7056 41.4357 86.6506 47.1429 86.6506C52.8501 86.6506 57.4709 86.701 57.4709 86.7698Z" fill="#FAFAFA"/>
<path d="M57.0126 91.7161C57.0126 91.7848 52.8594 91.8353 47.7435 91.8353C42.6276 91.8353 38.4698 91.7848 38.4698 91.7161C38.4698 91.6473 42.6185 91.5969 47.7435 91.5969C52.8685 91.5969 57.0126 91.6519 57.0126 91.7161Z" fill="#FAFAFA"/>
<path d="M56.8842 96.3048C56.8842 96.3689 53.1252 96.4239 48.4861 96.4239C43.847 96.4239 40.0789 96.3689 40.0789 96.3048C40.0789 96.2406 43.8424 96.1856 48.4861 96.1856C53.1298 96.1856 56.8842 96.236 56.8842 96.3048Z" fill="#FAFAFA"/>
<path d="M57.6222 100.013C57.6222 100.082 53.5973 100.132 48.6327 100.132C43.6682 100.132 39.6433 100.082 39.6433 100.013C39.6433 99.9445 43.6682 99.8941 48.6327 99.8941C53.5973 99.8941 57.6222 99.9491 57.6222 100.013Z" fill="#FAFAFA"/>
<path d="M58.7866 104.744C58.7866 104.813 54.2025 104.863 48.5594 104.863C42.9164 104.863 38.3323 104.813 38.3323 104.744C38.3323 104.675 42.9164 104.625 48.5594 104.625C54.2025 104.625 58.7866 104.68 58.7866 104.744Z" fill="#FAFAFA"/>
<path d="M39.7625 94.8562C39.676 94.7269 39.611 94.5845 39.57 94.4344L39.1116 93.2609C38.7311 92.2707 38.1948 90.9047 37.6447 89.3782C37.0946 87.8517 36.6316 86.4581 36.3428 85.4358C36.2007 84.9224 36.0907 84.519 36.0311 84.2165C35.987 84.0673 35.9608 83.9134 35.9531 83.7581C36.1652 84.2904 36.3489 84.8336 36.5032 85.3854C36.8333 86.3939 37.3146 87.7783 37.8785 89.3002C38.4423 90.8222 38.9374 92.1974 39.2537 93.2059C39.4233 93.7101 39.5516 94.1227 39.6342 94.4069C39.6959 94.5506 39.7391 94.7016 39.7625 94.8562Z" fill="#263238"/>
</svg>
