<svg width="238" height="29" viewBox="0 0 238 29" fill="none" xmlns="http://www.w3.org/2000/svg">
<path d="M25.88 25.4C25.1547 26.296 24.2693 26.9787 23.224 27.448C22.2 27.9173 21.0693 28.152 19.832 28.152C18.168 28.152 16.664 27.7893 15.32 27.064C13.976 26.36 12.44 25.1013 10.712 23.288C8.68533 23.032 6.872 22.3813 5.272 21.336C3.69333 20.2907 2.456 18.9467 1.56 17.304C0.685333 15.64 0.248 13.8053 0.248 11.8C0.248 9.60267 0.770667 7.62933 1.816 5.88C2.88267 4.10933 4.344 2.72267 6.2 1.72C8.07733 0.717333 10.1787 0.216 12.504 0.216C14.8293 0.216 16.92 0.717333 18.776 1.72C20.632 2.72267 22.0933 4.10933 23.16 5.88C24.2267 7.62933 24.76 9.60267 24.76 11.8C24.76 14.4027 24.024 16.6853 22.552 18.648C21.1013 20.6107 19.1707 21.976 16.76 22.744C17.2933 23.2987 17.8053 23.6933 18.296 23.928C18.808 24.184 19.352 24.312 19.928 24.312C21.3147 24.312 22.5307 23.7573 23.576 22.648L25.88 25.4ZM5.496 11.8C5.496 13.1867 5.79467 14.424 6.392 15.512C7.01067 16.6 7.85333 17.4533 8.92 18.072C9.98667 18.6693 11.1813 18.968 12.504 18.968C13.8267 18.968 15.0213 18.6693 16.088 18.072C17.1547 17.4533 17.9867 16.6 18.584 15.512C19.2027 14.424 19.512 13.1867 19.512 11.8C19.512 10.4133 19.2027 9.176 18.584 8.088C17.9867 7 17.1547 6.15733 16.088 5.56C15.0213 4.94133 13.8267 4.632 12.504 4.632C11.1813 4.632 9.98667 4.94133 8.92 5.56C7.85333 6.15733 7.01067 7 6.392 8.088C5.79467 9.176 5.496 10.4133 5.496 11.8ZM41.808 23.384C38.608 23.384 36.112 22.4987 34.32 20.728C32.5493 18.9573 31.664 16.4293 31.664 13.144V0.599998H36.848V12.952C36.848 16.9627 38.512 18.968 41.84 18.968C43.4613 18.968 44.6987 18.488 45.552 17.528C46.4053 16.5467 46.832 15.0213 46.832 12.952V0.599998H51.952V13.144C51.952 16.4293 51.056 18.9573 49.264 20.728C47.4933 22.4987 45.008 23.384 41.808 23.384ZM60.2748 0.599998H65.4588V23H60.2748V0.599998ZM92.1187 18.776V23H72.5347V19.64L84.8227 4.824H72.7907V0.599998H91.6388V3.96L79.3827 18.776H92.1187ZM131.29 23L131.258 9.56L124.666 20.632H122.33L115.77 9.848V23H110.906V0.599998H115.194L123.578 14.52L131.834 0.599998H136.09L136.154 23H131.29ZM159.42 18.2H149.02L147.036 23H141.724L151.708 0.599998H156.828L166.844 23H161.404L159.42 18.2ZM157.788 14.264L154.236 5.688L150.684 14.264H157.788ZM192.912 0.599998V23H188.656L177.488 9.4V23H172.368V0.599998H176.656L187.792 14.2V0.599998H192.912ZM201.412 0.599998H206.596V23H201.412V0.599998ZM229.864 18.2H219.464L217.48 23H212.168L222.152 0.599998H227.272L237.288 23H231.848L229.864 18.2ZM228.232 14.264L224.68 5.688L221.128 14.264H228.232Z" fill="#124191"/>
</svg>
