<svg width="315" height="300" viewBox="0 0 315 300" fill="none" xmlns="http://www.w3.org/2000/svg">
<path d="M264.501 82.0786C281.549 116.051 276.156 158.938 254.842 190.419C233.527 221.9 198.08 242.296 160.795 249.693C134.185 254.996 105.55 253.917 81.236 241.871C56.9223 229.826 37.7997 205.603 36.3453 178.505C35.7887 168.269 37.9598 157.4 44.7863 149.745C55.6906 137.546 74.3121 137.115 90.672 137.616C107.032 138.117 125.633 137.741 136.6 125.584C145.02 116.246 146.258 102.697 150.698 90.93C158.241 70.9237 176.445 55.3014 197.363 50.8826C200.256 50.2789 203.188 49.8835 206.138 49.6997C229.143 48.2662 250.966 60.1377 263.039 79.7474L264.501 82.0786Z" fill="#EBEBEB"/>
<path d="M315 295.44C315 295.537 244.48 295.621 157.51 295.621C70.5404 295.621 0 295.537 0 295.44C0 295.342 70.5057 295.259 157.51 295.259C244.515 295.259 315 295.335 315 295.44Z" fill="#263238"/>
<path d="M213.284 93.6718H98.7858C94.347 93.6718 90.7485 97.2702 90.7485 101.709V287.173C90.7485 291.612 94.347 295.21 98.7858 295.21H213.284C217.723 295.21 221.322 291.612 221.322 287.173V101.709C221.322 97.2702 217.723 93.6718 213.284 93.6718Z" fill="#455A64"/>
<path d="M160.036 285.837C159.966 286.812 159.612 287.746 159.018 288.524C158.425 289.301 157.617 289.889 156.694 290.214C155.771 290.539 154.774 290.587 153.824 290.353C152.874 290.119 152.013 289.613 151.347 288.897C150.68 288.18 150.238 287.285 150.073 286.321C149.908 285.356 150.028 284.365 150.419 283.468C150.81 282.571 151.454 281.808 152.272 281.272C153.091 280.736 154.048 280.45 155.026 280.451C156.404 280.503 157.705 281.099 158.644 282.109C159.583 283.118 160.083 284.459 160.036 285.837Z" fill="#263238"/>
<path d="M174.845 99.4753H137.219C136.75 99.4753 136.37 99.8554 136.37 100.324V100.853C136.37 101.322 136.75 101.702 137.219 101.702H174.845C175.313 101.702 175.694 101.322 175.694 100.853V100.324C175.694 99.8554 175.313 99.4753 174.845 99.4753Z" fill="#263238"/>
<path d="M217.536 105.237H95.2021V275.273H217.536V105.237Z" fill="#263238"/>
<path d="M185.777 257.723L186.229 257.682C186.669 257.655 187.106 257.597 187.537 257.508C188.236 257.359 188.913 257.125 189.555 256.812C190.437 256.396 191.239 255.831 191.928 255.142C192.799 254.283 193.478 253.249 193.918 252.108C194.433 250.751 194.626 249.293 194.482 247.849C194.327 246.081 193.636 244.403 192.502 243.038C191.368 241.672 189.845 240.686 188.136 240.208C187.661 240.08 187.177 239.987 186.688 239.93C186.187 239.93 185.686 239.874 185.164 239.881H181.991H175.262H160.405H126.37C124.895 239.892 123.446 240.27 122.153 240.981C120.887 241.698 119.821 242.722 119.054 243.959C118.287 245.195 117.843 246.605 117.762 248.058C117.649 249.48 117.866 250.909 118.396 252.233C118.937 253.511 119.768 254.645 120.824 255.545C121.869 256.419 123.103 257.036 124.429 257.348C125.748 257.586 127.091 257.667 128.43 257.591H132.376L160.176 257.633L178.915 257.689L184.009 257.723H185.331H185.784H185.331H184.009H178.915L160.176 257.779L132.376 257.821H126.384C126.043 257.821 125.688 257.821 125.347 257.758C125.003 257.715 124.662 257.655 124.324 257.577C122.945 257.256 121.66 256.614 120.574 255.705C119.473 254.769 118.606 253.59 118.041 252.261C117.495 250.897 117.269 249.426 117.38 247.96C117.471 246.476 117.938 245.039 118.736 243.785C119.539 242.498 120.654 241.435 121.979 240.695C123.326 239.951 124.838 239.556 126.377 239.547H160.412H175.269H185.171C185.686 239.547 186.208 239.547 186.723 239.596C187.226 239.659 187.724 239.759 188.212 239.895C189.978 240.399 191.546 241.434 192.704 242.859C193.862 244.284 194.553 246.031 194.684 247.863C194.821 249.335 194.614 250.82 194.078 252.198C193.622 253.355 192.924 254.401 192.033 255.267C191.326 255.96 190.504 256.525 189.604 256.937C188.951 257.252 188.261 257.485 187.551 257.633C187.115 257.712 186.673 257.757 186.229 257.765C185.958 257.73 185.777 257.723 185.777 257.723Z" fill="white"/>
<path d="M140.677 247.571L140.246 248.113C140.091 247.943 139.904 247.805 139.694 247.709C139.485 247.614 139.258 247.562 139.028 247.557C138.817 247.543 138.605 247.572 138.406 247.643C138.207 247.714 138.024 247.825 137.869 247.97C137.715 248.114 137.592 248.289 137.507 248.483C137.423 248.677 137.38 248.886 137.38 249.098C137.38 249.31 137.423 249.519 137.507 249.713C137.592 249.907 137.715 250.082 137.869 250.226C138.024 250.371 138.207 250.482 138.406 250.553C138.605 250.624 138.817 250.654 139.028 250.639C139.485 250.63 139.921 250.445 140.246 250.124L140.684 250.612C140.227 251.051 139.62 251.3 138.986 251.307C138.685 251.324 138.383 251.28 138.099 251.176C137.816 251.072 137.556 250.912 137.337 250.704C137.118 250.497 136.943 250.247 136.823 249.969C136.704 249.692 136.642 249.393 136.642 249.091C136.642 248.789 136.704 248.49 136.823 248.213C136.943 247.936 137.118 247.686 137.337 247.478C137.556 247.271 137.816 247.11 138.099 247.006C138.383 246.903 138.685 246.858 138.986 246.875C139.619 246.877 140.226 247.127 140.677 247.571Z" fill="white"/>
<path d="M145.597 249.109C145.619 249.572 145.502 250.032 145.261 250.429C145.019 250.825 144.664 251.14 144.242 251.334C143.82 251.527 143.35 251.589 142.892 251.512C142.434 251.435 142.009 251.223 141.673 250.903C141.337 250.583 141.104 250.169 141.005 249.716C140.906 249.262 140.945 248.789 141.117 248.358C141.289 247.927 141.587 247.557 141.971 247.296C142.355 247.036 142.809 246.896 143.273 246.896C143.572 246.884 143.87 246.933 144.15 247.039C144.429 247.145 144.685 247.306 144.902 247.512C145.118 247.718 145.291 247.966 145.411 248.24C145.53 248.514 145.594 248.809 145.597 249.109ZM141.7 249.109C141.704 249.524 141.872 249.922 142.168 250.214C142.464 250.506 142.864 250.669 143.28 250.667C143.587 250.663 143.887 250.568 144.14 250.394C144.394 250.221 144.59 249.976 144.705 249.691C144.82 249.406 144.848 249.093 144.785 248.792C144.723 248.491 144.573 248.215 144.354 247.999C144.135 247.783 143.857 247.637 143.555 247.578C143.254 247.52 142.941 247.552 142.658 247.671C142.374 247.789 142.132 247.989 141.962 248.245C141.791 248.501 141.7 248.801 141.7 249.109Z" fill="white"/>
<path d="M149.494 251.301L147.156 248.155V251.301H146.418V246.917H147.114L149.466 250.069V246.917H150.162V251.301H149.494Z" fill="white"/>
<path d="M152.117 247.578V248.844H154.108V249.505H152.117V251.301H151.373V246.917H154.323V247.578H152.117Z" fill="white"/>
<path d="M154.977 251.301V246.917H155.715V251.301H154.977Z" fill="white"/>
<path d="M158.819 249.951H157.58V251.273H156.87V246.889H158.645C159.765 246.889 160.412 247.431 160.412 248.385C160.431 248.683 160.353 248.98 160.19 249.23C160.027 249.481 159.788 249.672 159.508 249.777L160.489 251.245H159.647L158.819 249.951ZM158.617 249.296C159.313 249.296 159.682 249.004 159.682 248.413C159.682 247.821 159.299 247.557 158.617 247.557H157.58V249.296H158.617Z" fill="white"/>
<path d="M165.346 251.301V248.023L163.954 250.806H163.467L162.075 248.023V251.301H161.379V246.917H162.298L163.745 249.825L165.186 246.917H166.063V251.301H165.346Z" fill="white"/>
<path d="M167.928 247.578V248.761H170.071V249.456H167.928V250.646H170.398V251.307H167.169V246.923H170.301V247.585L167.928 247.578Z" fill="white"/>
<path d="M173.098 246.917C173.679 246.917 174.237 247.147 174.648 247.559C175.059 247.97 175.29 248.527 175.29 249.109C175.29 249.69 175.059 250.247 174.648 250.659C174.237 251.07 173.679 251.301 173.098 251.301H171.316V246.917H173.098ZM172.04 250.646H173.112C173.312 250.651 173.512 250.615 173.698 250.54C173.884 250.465 174.052 250.352 174.193 250.21C174.334 250.067 174.444 249.897 174.517 249.71C174.589 249.523 174.623 249.323 174.615 249.122C174.621 248.92 174.585 248.718 174.51 248.529C174.435 248.34 174.323 248.169 174.18 248.025C174.037 247.881 173.865 247.768 173.677 247.692C173.489 247.616 173.287 247.58 173.084 247.585H172.04V250.646Z" fill="white"/>
<path d="M109.099 164.511L201.761 163.843L204.343 226.841L108.396 225.95L109.099 164.511Z" fill="#1464C5"/>
<path d="M109.099 164.511L156.14 126.447L201.761 163.843" fill="#1464C5"/>
<g opacity="0.3">
<path opacity="0.3" d="M109.099 164.511L156.14 126.447L201.761 163.843" fill="black"/>
</g>
<path d="M108.396 225.95C108.278 225.846 115.696 217.746 124.965 207.857C134.234 197.969 141.832 190.05 141.951 190.161C142.069 190.273 134.651 198.366 125.382 208.254C116.113 218.142 108.514 226.061 108.396 225.95Z" fill="#263238"/>
<path d="M204.343 226.841C204.224 226.945 197.001 219.012 188.212 209.117C179.423 199.221 172.388 191.115 172.506 191.024C172.625 190.934 179.848 198.853 188.637 208.748C197.426 218.643 204.461 226.736 204.343 226.841Z" fill="#263238"/>
<g opacity="0.5">
<path opacity="0.5" d="M201.761 163.843L155.228 201.017L109.099 164.511" fill="black"/>
</g>
<path d="M113.768 167.956L113.629 141.005L194.788 139.015L195.672 168.506L155.228 200.53L113.768 167.956Z" fill="#EBEBEB"/>
<path d="M156.362 190.843C153.515 190.851 150.699 190.256 148.098 189.097C145.497 187.939 143.171 186.243 141.272 184.121C139.373 182 137.945 179.5 137.081 176.787C136.217 174.074 135.936 171.209 136.259 168.38C136.861 163.06 139.553 158.196 143.741 154.86C147.93 151.524 153.272 149.988 158.593 150.591C163.913 151.193 168.777 153.885 172.113 158.073C175.449 162.262 176.985 167.604 176.382 172.925C175.827 177.848 173.48 182.395 169.788 185.7C166.096 189.004 161.317 190.835 156.362 190.843ZM156.307 151.179C152.548 151.183 148.871 152.274 145.718 154.32C142.565 156.367 140.072 159.282 138.539 162.713C137.005 166.145 136.497 169.947 137.075 173.661C137.653 177.375 139.294 180.842 141.798 183.645C144.302 186.448 147.564 188.466 151.189 189.458C154.815 190.449 158.65 190.37 162.232 189.231C165.814 188.092 168.99 185.941 171.377 183.038C173.764 180.135 175.261 176.603 175.687 172.869C175.977 170.324 175.763 167.748 175.057 165.286C174.351 162.824 173.167 160.526 171.571 158.523C169.976 156.519 168.002 154.85 165.761 153.61C163.52 152.37 161.057 151.584 158.512 151.297C157.781 151.202 157.044 151.149 156.307 151.137V151.179Z" fill="#1464C5"/>
<path d="M142.598 173.453L145.973 169.32L153.864 175.019L166.689 159.905L170.558 163.308L154.059 182.319L142.598 173.453Z" fill="#1464C5"/>
<path d="M243.666 200.78C243.701 200.904 243.763 201.018 243.849 201.114C243.934 201.209 244.041 201.284 244.16 201.332C244.279 201.38 244.408 201.399 244.536 201.389C244.664 201.379 244.788 201.34 244.898 201.274C245.111 201.118 245.276 200.904 245.372 200.657C245.468 200.411 245.492 200.142 245.441 199.883C245.33 199.369 245.119 198.882 244.821 198.449C245.025 198.563 245.251 198.628 245.484 198.641C245.716 198.654 245.949 198.614 246.163 198.524C246.378 198.433 246.569 198.295 246.722 198.119C246.875 197.944 246.986 197.736 247.047 197.511C247.107 197.286 247.116 197.051 247.071 196.822C247.027 196.593 246.931 196.378 246.791 196.192C246.651 196.006 246.471 195.854 246.263 195.749C246.056 195.643 245.827 195.586 245.594 195.582C246.255 195.486 246.882 195.225 247.417 194.824C247.677 194.614 247.867 194.329 247.959 194.008C248.051 193.686 248.042 193.344 247.932 193.028C247.863 192.881 247.761 192.752 247.633 192.652C247.505 192.551 247.355 192.483 247.196 192.452C247.036 192.42 246.872 192.427 246.715 192.472C246.559 192.517 246.416 192.597 246.297 192.708C246.657 192.508 246.972 192.235 247.222 191.908C247.345 191.742 247.415 191.544 247.424 191.338C247.433 191.132 247.379 190.928 247.271 190.753C247.107 190.58 246.893 190.464 246.659 190.422C246.425 190.379 246.184 190.412 245.97 190.516C245.544 190.721 245.133 190.954 244.738 191.212C244.237 191.478 243.674 191.607 243.108 191.586C242.541 191.565 241.989 191.395 241.509 191.094L238.913 193.237L243.666 200.78Z" fill="#263238"/>
<path d="M229.798 188.999C229.078 189.237 228.441 189.676 227.963 190.264C227.484 190.852 227.184 191.565 227.098 192.318C227.054 192.592 227.066 192.871 227.132 193.14C227.197 193.409 227.316 193.662 227.48 193.884C227.713 194.123 228.005 194.296 228.327 194.384C228.649 194.472 228.988 194.472 229.31 194.385C229.95 194.207 230.545 193.897 231.057 193.474C231.463 193.24 231.818 192.926 232.101 192.552C232.383 192.178 232.586 191.75 232.699 191.296C232.723 190.833 232.601 190.374 232.352 189.984C232.102 189.593 231.737 189.291 231.308 189.117C230.877 188.955 230.418 188.884 229.959 188.91C229.499 188.937 229.051 189.059 228.642 189.271" fill="#263238"/>
<path d="M232.045 201.852C231.818 202.776 231.429 203.652 230.897 204.441C230.63 204.834 230.283 205.166 229.879 205.417C229.475 205.667 229.023 205.83 228.552 205.895C228.08 205.947 227.604 205.844 227.197 205.6C226.79 205.356 226.474 204.985 226.297 204.545C226.219 204.815 226.071 205.061 225.869 205.256C225.666 205.451 225.415 205.59 225.142 205.658C224.866 205.718 224.579 205.688 224.321 205.572C224.063 205.457 223.849 205.263 223.709 205.018C223.583 204.767 223.555 204.478 223.63 204.207C223.704 203.936 223.876 203.702 224.112 203.55C223.556 203.863 222.86 204.183 222.31 203.856C222.074 203.707 221.901 203.477 221.823 203.209C221.538 202.332 222.08 201.413 222.686 200.718C223.291 200.022 224.001 199.326 224.147 198.435C224.189 197.697 224.078 196.957 223.82 196.264C223.593 195.472 223.56 194.636 223.723 193.828C223.806 193.423 223.973 193.039 224.213 192.701C224.452 192.363 224.759 192.079 225.114 191.866C225.47 191.658 225.878 191.559 226.289 191.583C226.701 191.606 227.095 191.751 227.425 191.998L227.543 193.181L232.066 201.852" fill="#263238"/>
<path d="M242.866 215.644C242.866 215.644 244.487 232.797 243.123 235.031C241.76 237.265 225.031 260.611 225.031 260.611H225.073C224.745 260.75 224.377 260.883 224.015 261.029C223.431 261.236 222.818 261.344 222.199 261.349C221.431 261.384 220.663 261.312 219.916 261.133C219.22 260.897 218.643 261.599 219.005 262.128C219.366 262.657 221.197 263.339 223.465 263.123C225.734 262.908 223.18 265.42 222.268 266.352C221.357 267.285 218.671 270.312 218.74 270.82C218.838 271.564 219.652 271.599 220.542 270.646C221.433 269.692 224.293 267.013 224.766 267.521C225.24 268.029 220.522 272.712 220.522 272.712C220.522 272.712 219.353 273.554 219.881 274.16C220.821 275.245 225.448 269.887 225.887 269.365C226.186 269.003 226.715 269.532 226.374 269.901C226.033 270.27 221.572 274.48 222.526 275.593C223.256 276.449 226.381 271.216 227.786 270.861C229.192 270.507 225.003 274.584 225.748 275.378C226.019 275.67 226.263 275.851 228.322 273.158C229.952 270.812 231.451 268.377 232.811 265.865C235.003 263.492 256.609 240.034 256.776 235.65C256.95 231.037 257.779 215.421 257.779 215.421L242.866 215.644Z" fill="#EB996E"/>
<path d="M217.098 291.995L216.896 285.628L228.823 285.182L229.213 294.493L228.475 294.57C225.191 294.876 211.774 295.892 209.527 295.307C207.049 294.653 217.098 291.995 217.098 291.995Z" fill="#1464C5"/>
<g opacity="0.4">
<path opacity="0.4" d="M212.192 293.47C212.192 293.47 208.678 294.625 209.144 295.196C209.61 295.767 223.222 295.245 229.213 294.5L229.178 294.236L213.305 294.973C213.305 294.973 212.888 293.47 212.192 293.47Z" fill="white"/>
</g>
<path d="M229.366 294.215H229.164L228.58 294.271L226.416 294.451C224.585 294.584 222.059 294.737 219.262 294.848C216.465 294.959 213.932 294.994 212.102 295.001H209.93H209.339C209.27 295.012 209.199 295.012 209.13 295.001H209.339H209.93L212.095 294.966C213.932 294.932 216.465 294.876 219.255 294.765C222.046 294.653 224.578 294.521 226.409 294.41L228.573 294.278H229.164L229.366 294.215Z" fill="#263238"/>
<path d="M213.312 295.182C213.206 294.825 213.059 294.482 212.874 294.159C212.647 293.865 212.388 293.597 212.102 293.359C212.473 293.474 212.79 293.722 212.992 294.055C213.242 294.375 213.356 294.779 213.312 295.182Z" fill="#263238"/>
<path d="M216.764 293.234C216.764 293.234 216.555 293.06 216.374 292.788C216.243 292.638 216.148 292.459 216.096 292.266C216.131 292.266 216.305 292.44 216.492 292.705C216.68 292.969 216.799 293.213 216.764 293.234Z" fill="#263238"/>
<path d="M217.71 292.684C217.71 292.684 217.495 292.6 217.279 292.42C217.063 292.239 216.917 292.079 216.945 292.044C216.973 292.009 217.16 292.134 217.376 292.308C217.592 292.482 217.738 292.656 217.71 292.684Z" fill="#263238"/>
<path d="M218.281 291.536C218.084 291.615 217.873 291.651 217.662 291.64C217.644 291.715 217.599 291.78 217.536 291.824C217.473 291.868 217.396 291.887 217.32 291.878C217.244 291.869 217.174 291.832 217.123 291.775C217.072 291.718 217.044 291.644 217.044 291.567C217.044 291.49 217.072 291.416 217.123 291.359C217.174 291.302 217.244 291.265 217.32 291.256C217.396 291.247 217.473 291.266 217.536 291.31C217.599 291.354 217.644 291.419 217.662 291.494C217.869 291.462 218.08 291.477 218.281 291.536Z" fill="#263238"/>
<path d="M218.462 290.736C218.258 290.879 218.015 290.959 217.766 290.965C217.532 291.006 217.291 290.982 217.07 290.896C217.3 290.851 217.532 290.826 217.766 290.819C217.995 290.768 218.228 290.741 218.462 290.736Z" fill="#263238"/>
<path d="M216.318 292.211C216.065 292.255 215.806 292.255 215.553 292.211C215.276 292.187 215.001 292.138 214.732 292.065C214.569 292.023 214.41 291.965 214.259 291.891C214.164 291.84 214.092 291.755 214.057 291.654C214.043 291.598 214.046 291.54 214.064 291.486C214.083 291.431 214.116 291.384 214.161 291.348C214.447 291.19 214.779 291.138 215.1 291.2C215.421 291.262 215.709 291.435 215.915 291.689C216.04 291.834 216.133 292.005 216.186 292.19C216.202 292.259 216.202 292.33 216.186 292.399C216.098 292.166 215.971 291.949 215.811 291.758C215.623 291.558 215.381 291.418 215.115 291.355C214.964 291.31 214.806 291.295 214.649 291.312C214.493 291.329 214.341 291.377 214.203 291.452C214.085 291.55 214.14 291.689 214.28 291.765C214.417 291.835 214.562 291.891 214.711 291.932C214.972 292.013 215.24 292.071 215.511 292.106C216.026 292.197 216.318 292.183 216.318 292.211Z" fill="#263238"/>
<path d="M216.124 292.253C216.025 292.095 215.988 291.907 216.019 291.724C216.031 291.523 216.096 291.328 216.207 291.16C216.265 291.042 216.353 290.942 216.461 290.869C216.57 290.796 216.696 290.752 216.826 290.742C216.904 290.756 216.973 290.799 217.02 290.863C217.067 290.926 217.087 291.005 217.077 291.083C217.068 291.208 217.027 291.327 216.959 291.431C216.866 291.605 216.751 291.767 216.618 291.912C216.381 292.155 216.2 292.253 216.186 292.239C216.172 292.225 216.332 292.092 216.541 291.842C216.657 291.698 216.758 291.541 216.84 291.376C216.938 291.209 217 290.909 216.806 290.889C216.611 290.868 216.43 291.07 216.318 291.23C216.216 291.383 216.148 291.556 216.117 291.738C216.103 291.909 216.106 292.081 216.124 292.253Z" fill="#263238"/>
<path d="M228.997 290.958C228.997 290.958 228.656 290.958 228.12 291.021C227.422 291.133 226.767 291.433 226.228 291.891C225.696 292.355 225.304 292.957 225.093 293.63C224.926 294.152 224.926 294.493 224.899 294.493C224.886 294.412 224.886 294.33 224.899 294.25C224.912 294.031 224.947 293.814 225.003 293.602C225.19 292.894 225.587 292.259 226.143 291.78C226.698 291.302 227.385 291.003 228.113 290.923C228.331 290.899 228.55 290.899 228.768 290.923C228.846 290.921 228.923 290.933 228.997 290.958Z" fill="#263238"/>
<path d="M227.578 286.045C227.69 286.855 227.755 287.671 227.773 288.488C227.84 289.305 227.856 290.125 227.821 290.944C227.713 290.132 227.647 289.314 227.626 288.495C227.559 287.68 227.543 286.862 227.578 286.045Z" fill="#263238"/>
<path d="M223.34 293.456C222.775 293.61 222.192 293.689 221.607 293.693C221.022 293.743 220.433 293.72 219.854 293.623C219.854 293.582 220.64 293.623 221.6 293.547C222.56 293.47 223.333 293.415 223.34 293.456Z" fill="#263238"/>
<path d="M225.678 293.366C225.678 293.366 225.615 293.533 225.546 293.714C225.476 293.895 225.434 294.055 225.393 294.055C225.351 294.055 225.323 293.867 225.393 293.658C225.462 293.449 225.622 293.338 225.678 293.366Z" fill="#263238"/>
<path d="M226.513 292.232C226.513 292.232 226.471 292.385 226.353 292.517C226.235 292.649 226.116 292.733 226.082 292.705C226.047 292.677 226.13 292.552 226.249 292.42C226.367 292.287 226.485 292.204 226.513 292.232Z" fill="#263238"/>
<path d="M227.759 291.703C227.759 291.745 227.592 291.751 227.418 291.821C227.244 291.891 227.118 291.988 227.091 291.96C227.063 291.932 227.153 291.765 227.369 291.682C227.585 291.598 227.766 291.647 227.759 291.703Z" fill="#263238"/>
<path d="M228.642 291.417C228.642 291.452 228.594 291.515 228.496 291.557C228.399 291.598 228.308 291.605 228.287 291.557C228.267 291.508 228.343 291.452 228.441 291.411C228.538 291.369 228.628 291.376 228.642 291.417Z" fill="#263238"/>
<g opacity="0.3">
<path opacity="0.3" d="M228.969 290.638L217.049 290.896L217.014 289.455L229.039 289.88L228.969 290.638Z" fill="black"/>
</g>
<path d="M261.995 248.795L224.293 248.28C224.293 248.28 213.792 249.255 213.792 262.922L215.122 289.831H231.189L230.097 264.042C230.994 264.042 243.158 264.445 243.158 264.445L261.995 248.795Z" fill="#263238"/>
<path d="M215.129 289.831C215.096 289.678 215.08 289.521 215.08 289.365C215.08 289.024 215.031 288.578 215.003 288.029L214.718 283.116C214.474 278.94 214.022 273.241 213.688 266.895C213.577 263.729 213.333 260.695 213.688 257.932C213.773 257.259 213.91 256.594 214.099 255.942C214.295 255.33 214.554 254.74 214.871 254.181C215.443 253.181 216.182 252.287 217.056 251.537C217.777 250.923 218.572 250.402 219.422 249.985C220.068 249.694 220.739 249.461 221.426 249.289L222.178 249.108L222.741 249.018C222.895 248.986 223.051 248.97 223.208 248.969C223.062 249.027 222.91 249.066 222.755 249.088L222.206 249.213L221.461 249.422C220.794 249.632 220.143 249.891 219.513 250.194C218.689 250.619 217.92 251.142 217.223 251.753C216.389 252.5 215.684 253.379 215.136 254.355C214.848 254.902 214.615 255.475 214.44 256.067C214.263 256.704 214.133 257.353 214.05 258.009C213.695 260.709 213.946 263.743 214.05 266.909C214.363 273.241 214.795 278.968 214.975 283.13C215.073 285.217 215.122 286.887 215.142 288.049C215.142 288.606 215.142 289.045 215.142 289.392C215.154 289.539 215.149 289.686 215.129 289.831Z" fill="#455A64"/>
<path d="M287.089 292.002L280.728 292.426L279.9 280.527L289.19 279.831L289.294 280.527C289.712 283.798 291.201 297.228 290.686 299.434C290.102 301.953 287.089 292.002 287.089 292.002Z" fill="#1464C5"/>
<g opacity="0.4">
<path opacity="0.4" d="M288.738 296.852C288.738 296.852 290.011 300.332 290.568 299.838C291.125 299.343 290.123 285.767 289.176 279.81H288.912L290.213 295.655C290.213 295.655 288.71 296.156 288.738 296.852Z" fill="white"/>
</g>
<path d="M288.87 279.664C288.892 279.729 288.906 279.797 288.912 279.866C288.912 280.04 288.96 280.235 288.988 280.451C289.058 281.035 289.141 281.759 289.239 282.608C289.441 284.431 289.684 286.95 289.886 289.74C290.088 292.531 290.227 295.057 290.297 296.894C290.297 297.743 290.345 298.474 290.366 299.058C290.366 299.281 290.366 299.476 290.366 299.65C290.374 299.719 290.374 299.789 290.366 299.858C290.362 299.789 290.362 299.719 290.366 299.65C290.366 299.476 290.366 299.281 290.331 299.065C290.331 298.474 290.262 297.75 290.213 296.894C290.116 295.064 289.969 292.538 289.768 289.747C289.566 286.957 289.329 284.438 289.155 282.615C289.079 281.766 289.009 281.042 288.954 280.457C288.954 280.235 288.919 280.047 288.898 279.866C288.877 279.685 288.87 279.664 288.87 279.664Z" fill="#263238"/>
<path d="M290.373 295.669C290.024 295.795 289.688 295.956 289.371 296.149C289.083 296.384 288.823 296.653 288.599 296.95C288.707 296.567 288.956 296.239 289.295 296.031C289.598 295.783 289.981 295.654 290.373 295.669Z" fill="#263238"/>
<path d="M288.334 292.287C288.334 292.322 288.167 292.503 287.91 292.698C287.652 292.893 287.416 293.025 287.388 292.99C287.36 292.955 287.562 292.774 287.819 292.58C287.969 292.448 288.144 292.349 288.334 292.287Z" fill="#263238"/>
<path d="M287.757 291.362C287.757 291.362 287.673 291.584 287.506 291.807C287.339 292.03 287.172 292.183 287.144 292.155C287.116 292.127 287.221 291.932 287.395 291.717C287.569 291.501 287.722 291.341 287.757 291.362Z" fill="#263238"/>
<path d="M286.588 290.84C286.629 290.84 286.685 291.111 286.713 291.452C286.76 291.658 286.76 291.873 286.713 292.079C286.671 292.079 286.615 291.807 286.588 291.466C286.56 291.125 286.546 290.84 286.588 290.84Z" fill="#263238"/>
<path d="M285.78 290.687C285.935 290.886 286.023 291.13 286.031 291.383C286.085 291.614 286.07 291.856 285.989 292.079C285.934 291.85 285.902 291.617 285.892 291.383C285.832 291.155 285.795 290.922 285.78 290.687Z" fill="#263238"/>
<path d="M287.325 292.767C287.391 293.017 287.41 293.277 287.381 293.533C287.365 293.812 287.323 294.09 287.256 294.361C287.222 294.526 287.17 294.687 287.103 294.841C287.056 294.935 286.977 295.009 286.88 295.05C286.823 295.066 286.763 295.067 286.707 295.051C286.65 295.035 286.599 295.003 286.56 294.959C286.392 294.678 286.328 294.347 286.38 294.024C286.433 293.7 286.597 293.406 286.845 293.192C286.987 293.062 287.156 292.965 287.339 292.907C287.402 292.878 287.472 292.866 287.541 292.872C287.309 292.964 287.097 293.098 286.915 293.268C286.723 293.458 286.592 293.7 286.539 293.964C286.498 294.116 286.488 294.275 286.511 294.43C286.534 294.586 286.588 294.735 286.671 294.869C286.768 294.987 286.908 294.932 286.977 294.785C287.042 294.644 287.093 294.498 287.13 294.347C287.201 294.082 287.249 293.812 287.276 293.54C287.325 293.095 287.304 292.774 287.325 292.767Z" fill="#263238"/>
<path d="M287.381 292.962C287.227 293.07 287.039 293.118 286.852 293.095C286.652 293.083 286.456 293.026 286.281 292.928C286.163 292.871 286.06 292.785 285.983 292.678C285.907 292.571 285.858 292.446 285.843 292.315C285.855 292.238 285.896 292.168 285.959 292.12C286.021 292.072 286.099 292.05 286.177 292.058C286.302 292.064 286.424 292.1 286.532 292.162C286.709 292.248 286.873 292.358 287.019 292.489C287.163 292.597 287.28 292.738 287.36 292.9C287.36 292.9 287.214 292.761 286.956 292.566C286.805 292.456 286.645 292.36 286.476 292.28C286.302 292.19 286.01 292.134 285.989 292.329C285.968 292.524 286.191 292.705 286.351 292.809C286.507 292.907 286.683 292.969 286.866 292.99C287.038 293 287.211 292.99 287.381 292.962Z" fill="#263238"/>
<path d="M285.634 280.144C285.634 280.144 285.634 280.485 285.732 281.021C285.864 281.714 286.184 282.356 286.657 282.879C287.142 283.393 287.758 283.766 288.439 283.958C288.967 284.097 289.308 284.09 289.308 284.118C289.228 284.131 289.146 284.131 289.065 284.118C288.847 284.114 288.63 284.086 288.418 284.034C287.703 283.871 287.055 283.494 286.558 282.955C286.061 282.416 285.739 281.74 285.634 281.014C285.609 280.797 285.609 280.577 285.634 280.36C285.623 280.289 285.623 280.216 285.634 280.144Z" fill="#263238"/>
<path d="M280.77 281.738C281.576 281.599 282.389 281.506 283.206 281.46C284.018 281.363 284.837 281.317 285.655 281.32C284.85 281.464 284.036 281.557 283.22 281.599C282.407 281.695 281.589 281.742 280.77 281.738Z" fill="#263238"/>
<path d="M288.327 285.711C288.501 286.271 288.602 286.851 288.626 287.437C288.707 288.019 288.707 288.609 288.626 289.191C288.585 289.191 288.578 288.411 288.494 287.451C288.411 286.491 288.285 285.725 288.327 285.711Z" fill="#263238"/>
<path d="M288.153 283.352C288.153 283.352 288.32 283.408 288.508 283.471C288.696 283.533 288.849 283.568 288.849 283.61C288.849 283.652 288.668 283.686 288.459 283.61C288.251 283.533 288.125 283.408 288.153 283.352Z" fill="#263238"/>
<path d="M286.991 282.58C286.991 282.58 287.151 282.622 287.283 282.733C287.416 282.844 287.506 282.963 287.478 282.997C287.45 283.032 287.325 282.956 287.186 282.844C287.047 282.733 286.97 282.615 286.991 282.58Z" fill="#263238"/>
<path d="M286.4 281.362C286.441 281.362 286.455 281.522 286.525 281.696C286.595 281.87 286.706 281.988 286.678 282.016C286.65 282.044 286.483 281.968 286.393 281.752C286.302 281.536 286.365 281.355 286.4 281.362Z" fill="#263238"/>
<path d="M286.1 280.485C286.1 280.485 286.205 280.527 286.247 280.625C286.288 280.722 286.302 280.812 286.247 280.833C286.191 280.854 286.142 280.785 286.093 280.687C286.045 280.59 286.066 280.499 286.1 280.485Z" fill="#263238"/>
<g opacity="0.3">
<path opacity="0.3" d="M285.314 280.179L285.989 292.086L284.556 292.176V280.144L285.314 280.179Z" fill="black"/>
</g>
<path d="M248.099 280.235C248.099 280.235 280.227 262.692 283.867 256.979C284.958 255.306 285.626 253.393 285.813 251.405C285.999 249.417 285.699 247.413 284.938 245.566L257.904 249.178L238.677 268.433C234.502 271.752 226.938 278.69 226.938 285.53C226.938 297.235 242.073 295.321 252.935 295.349C267.785 295.384 284.451 295.447 284.451 295.447L284.493 279.49L248.099 280.235Z" fill="#263238"/>
<path d="M240.465 283.575C241.82 283.152 243.143 282.634 244.425 282.023C245.747 281.505 247.029 280.888 248.259 280.179C246.903 280.602 245.58 281.123 244.299 281.738C242.978 282.254 241.696 282.868 240.465 283.575Z" fill="#455A64"/>
<path d="M243.019 279.664C243.935 279.845 244.869 279.927 245.803 279.908C246.744 279.987 247.691 279.966 248.628 279.845C247.711 279.665 246.778 279.581 245.844 279.595C244.903 279.51 243.955 279.533 243.019 279.664Z" fill="#455A64"/>
<path d="M255.788 251.885C255.699 252.005 255.599 252.117 255.489 252.219L254.571 253.124L251.154 256.415L239.79 267.173C237.57 269.261 235.413 271.23 233.527 273.088C231.847 274.707 230.361 276.517 229.102 278.481C228.265 279.811 227.649 281.268 227.278 282.796L227.118 283.491C227.118 283.7 227.07 283.874 227.042 284.034C227.033 284.183 227.005 284.331 226.958 284.473C226.941 284.325 226.941 284.175 226.958 284.027C226.958 283.867 226.958 283.686 227 283.478C227.042 283.269 227.077 283.018 227.125 282.74C227.448 281.177 228.039 279.682 228.872 278.321C230.113 276.315 231.592 274.467 233.277 272.817C235.149 270.931 237.299 268.976 239.54 266.874L250.98 256.213L254.459 253.012L255.426 252.149C255.54 252.052 255.661 251.964 255.788 251.885Z" fill="#455A64"/>
<path d="M246.144 217.029C245.465 217.395 244.717 217.614 243.948 217.673C243.179 217.732 242.406 217.628 241.68 217.369C240.954 217.11 240.29 216.701 239.732 216.169C239.174 215.637 238.734 214.993 238.44 214.28L237.216 211.295C237.216 211.295 233.04 212.77 230.953 208.964C229.77 206.827 228.093 203.181 226.854 200.391C226.342 199.23 226.137 197.957 226.259 196.695C226.381 195.432 226.826 194.223 227.55 193.181C230.953 188.888 233.653 189.605 239.06 190.481L239.867 190.614L248.572 209.924C249.142 211.196 249.208 212.636 248.757 213.955C248.307 215.273 247.372 216.372 246.144 217.029Z" fill="#FFBE9D"/>
<path d="M229.505 202.276C229.548 202.158 229.555 202.03 229.525 201.908C229.495 201.786 229.429 201.675 229.336 201.591C229.242 201.506 229.126 201.452 229.002 201.433C228.877 201.415 228.75 201.434 228.637 201.489C228.523 201.543 228.429 201.63 228.365 201.738C228.301 201.846 228.271 201.971 228.278 202.097C228.285 202.222 228.33 202.343 228.406 202.443C228.482 202.543 228.586 202.618 228.705 202.659C228.783 202.687 228.865 202.699 228.947 202.694C229.03 202.69 229.11 202.669 229.185 202.634C229.259 202.598 229.325 202.548 229.381 202.487C229.436 202.426 229.478 202.354 229.505 202.276Z" fill="#263238"/>
<path d="M227.793 201.636C227.891 201.671 228.107 201.177 228.635 200.892C229.164 200.606 229.693 200.669 229.714 200.571C229.735 200.474 229.603 200.439 229.366 200.404C229.054 200.358 228.734 200.419 228.461 200.578C228.182 200.735 227.962 200.98 227.835 201.274C227.71 201.476 227.752 201.622 227.793 201.636Z" fill="#263238"/>
<path d="M234.084 199.152C234.021 199.26 233.991 199.385 233.999 199.51C234.007 199.635 234.051 199.755 234.127 199.855C234.203 199.955 234.307 200.03 234.426 200.07C234.545 200.111 234.673 200.115 234.794 200.083C234.915 200.051 235.024 199.983 235.107 199.889C235.189 199.795 235.242 199.678 235.259 199.554C235.275 199.43 235.254 199.303 235.199 199.191C235.143 199.078 235.056 198.985 234.947 198.922C234.875 198.88 234.796 198.852 234.714 198.841C234.631 198.83 234.548 198.835 234.467 198.856C234.387 198.878 234.312 198.915 234.246 198.966C234.18 199.016 234.125 199.08 234.084 199.152Z" fill="#263238"/>
<path d="M233.555 199.027C233.653 199.061 233.868 198.567 234.397 198.282C234.926 197.997 235.455 198.059 235.476 197.962C235.497 197.865 235.364 197.83 235.128 197.795C234.815 197.749 234.496 197.81 234.223 197.969C233.944 198.126 233.723 198.37 233.597 198.665C233.5 198.867 233.513 199.013 233.555 199.027Z" fill="#263238"/>
<path d="M233.973 204.614C233.643 204.648 233.322 204.742 233.026 204.893C232.88 204.949 232.755 204.976 232.706 204.893C232.627 204.758 232.586 204.604 232.588 204.447C232.539 204.023 232.484 203.599 232.428 203.153C232.339 202.033 232.131 200.925 231.809 199.848C231.793 200.97 231.888 202.091 232.094 203.195C232.157 203.64 232.219 204.065 232.282 204.489C232.285 204.714 232.367 204.93 232.511 205.102C232.559 205.144 232.616 205.175 232.678 205.19C232.74 205.206 232.804 205.207 232.866 205.192C232.957 205.173 233.043 205.14 233.124 205.095C233.694 204.844 234.021 204.656 233.973 204.614Z" fill="#263238"/>
<path d="M237.181 211.246C238.967 210.327 240.438 208.895 241.405 207.134C241.405 207.134 241.711 210.522 237.71 212.241L237.181 211.246Z" fill="#EB996E"/>
<path d="M241.579 194.9C241.641 194.831 244.64 193.056 245.531 196.327C246.304 199.159 243.103 199.646 243.061 199.556C243.019 199.465 241.579 194.9 241.579 194.9Z" fill="#FFBE9D"/>
<path d="M243.638 197.892C243.638 197.892 243.694 197.892 243.791 197.892C243.921 197.897 244.048 197.852 244.146 197.767C244.279 197.591 244.363 197.384 244.39 197.165C244.417 196.946 244.386 196.724 244.299 196.522C244.222 196.286 244.091 196.072 243.917 195.895C243.86 195.82 243.786 195.76 243.702 195.72C243.617 195.68 243.523 195.661 243.43 195.666C243.371 195.673 243.317 195.699 243.275 195.741C243.234 195.783 243.207 195.837 243.2 195.895C243.2 195.986 243.2 196.034 243.2 196.041C243.2 196.048 243.123 196.041 243.11 195.902C243.097 195.83 243.112 195.756 243.151 195.693C243.205 195.609 243.29 195.549 243.388 195.526C243.507 195.506 243.629 195.518 243.743 195.559C243.856 195.6 243.957 195.671 244.035 195.763C244.235 195.956 244.386 196.195 244.473 196.459C244.57 196.691 244.598 196.946 244.552 197.193C244.506 197.44 244.389 197.669 244.216 197.851C244.152 197.899 244.079 197.932 244 197.948C243.922 197.963 243.841 197.961 243.764 197.941C243.666 197.962 243.631 197.906 243.638 197.892Z" fill="#EB996E"/>
<path d="M240.187 216.549C240.187 216.549 247.668 204.023 259.233 214.565C266.783 221.455 279.1 235.664 283.498 241.231C284.486 242.477 286.024 244.377 284.945 245.546C281.647 249.108 272.656 257.097 256.018 251.113L240.236 229.165C238.918 227.33 238.203 225.13 238.192 222.87C238.181 220.611 238.873 218.404 240.173 216.556L240.187 216.549Z" fill="#1464C5"/>
<path d="M249.776 210.585L247.667 207.134L236.895 215.707L238.906 218.942L249.776 210.585Z" fill="#1464C5"/>
<g opacity="0.3">
<path opacity="0.3" d="M249.317 211.03C249.317 211.03 240.834 218.365 240.716 218.24C240.597 218.114 237.327 215.762 237.327 215.762L240.312 217.439L249.317 211.03Z" fill="black"/>
</g>
<path d="M249.866 210.543C249.674 210.617 249.491 210.715 249.324 210.836C248.99 211.044 248.51 211.357 247.932 211.761C246.763 212.561 245.197 213.723 243.471 215.004C242.295 215.874 241.189 216.674 240.243 217.328H240.382C239.373 216.785 238.531 216.333 237.939 216.034C237.636 215.856 237.317 215.706 236.986 215.588C237.256 215.813 237.55 216.006 237.863 216.166C238.433 216.514 239.254 216.994 240.25 217.558L240.319 217.592L240.389 217.551C241.356 216.911 242.476 216.124 243.652 215.254L248.057 211.942L249.393 210.94C249.567 210.828 249.726 210.695 249.866 210.543Z" fill="#263238"/>
<path d="M203.876 243.472L201.83 242.644C200.629 242.314 199.464 241.867 198.351 241.308C197.794 241.043 197.288 240.683 196.855 240.243C196.292 239.719 195.805 239.12 195.408 238.462C195.365 238.312 195.273 238.181 195.147 238.09C195.022 237.999 194.869 237.952 194.714 237.958C194.558 237.964 194.409 238.021 194.29 238.121C194.171 238.221 194.09 238.358 194.058 238.51C193.939 239.144 194.753 240.925 196.472 242.386C198.191 243.848 194.635 243.778 193.334 243.778C192.033 243.778 187.99 243.987 187.669 244.39C187.203 244.975 187.753 245.58 189.061 245.546C190.369 245.511 194.287 245.685 194.252 246.374C194.218 247.063 187.579 246.986 187.579 246.986C187.579 246.986 186.187 246.743 186.097 247.536C185.985 248.976 193.056 248.524 193.751 248.461C194.218 248.42 194.211 249.157 193.703 249.192C193.195 249.227 187.078 248.969 186.946 250.431C186.848 251.551 192.77 250.118 194.009 250.869C195.248 251.621 189.409 251.502 189.36 252.574C189.36 252.978 189.36 253.27 192.749 252.859C196.138 252.449 205.338 249.77 205.338 249.77L203.793 243.361" fill="#FFBE9D"/>
<path d="M243.847 220.919C243.847 220.919 232.845 236.089 230.299 236.68C227.752 237.272 199.388 241.732 199.388 241.732L200.78 250.987C200.78 250.987 235.984 249.999 239.394 246.889C242.803 243.778 253.102 227.961 253.102 227.961L243.847 220.919Z" fill="#FFBE9D"/>
<path d="M236.102 246.624C236.102 246.624 236.179 246.749 236.394 246.882C236.713 247.056 237.077 247.131 237.438 247.097C237.712 247.074 237.976 246.989 238.211 246.848C238.446 246.707 238.646 246.514 238.795 246.283C238.988 246.002 239.098 245.673 239.114 245.332C239.13 244.992 239.051 244.654 238.886 244.356C238.713 244.031 238.425 243.782 238.078 243.66C237.749 243.554 237.392 243.582 237.083 243.736C236.955 243.804 236.842 243.898 236.751 244.011C236.66 244.125 236.593 244.255 236.555 244.396C236.516 244.536 236.507 244.682 236.527 244.826C236.547 244.97 236.597 245.108 236.673 245.232C236.787 245.388 236.948 245.502 237.133 245.558C237.317 245.613 237.515 245.606 237.696 245.539C237.939 245.434 238.002 245.281 237.988 245.274C237.974 245.267 237.877 245.365 237.654 245.42C237.506 245.456 237.351 245.446 237.209 245.392C237.067 245.337 236.946 245.24 236.861 245.114C236.81 245.017 236.779 244.912 236.769 244.803C236.76 244.694 236.772 244.584 236.805 244.48C236.838 244.376 236.891 244.279 236.962 244.196C237.032 244.113 237.118 244.044 237.216 243.994C237.456 243.883 237.73 243.868 237.981 243.952C238.252 244.049 238.477 244.242 238.614 244.495C238.735 244.726 238.798 244.982 238.8 245.242C238.801 245.502 238.74 245.759 238.623 245.991C238.505 246.223 238.333 246.424 238.123 246.576C237.912 246.729 237.668 246.829 237.41 246.868C236.96 246.913 236.506 246.828 236.102 246.624Z" fill="#EB996E"/>
<path d="M256.408 225.539L245.97 243.458L233.931 233.493C233.931 233.493 242.281 219.84 246.213 215.609L256.408 225.539Z" fill="#1464C5"/>
<path d="M226.471 259.748C227.438 260.096 228.284 260.715 228.908 261.531C229.532 262.346 229.909 263.324 229.992 264.348C229.363 262.466 228.124 260.847 226.471 259.748Z" fill="#455A64"/>
<path d="M238.934 196.528C239.009 196.67 239.116 196.792 239.247 196.885C239.377 196.978 239.528 197.04 239.686 197.064C239.999 197.127 240.319 197.12 240.639 197.183C241.137 197.277 241.587 197.54 241.913 197.927C242.042 198.104 242.189 198.267 242.351 198.414C242.435 198.485 242.538 198.53 242.647 198.541C242.757 198.552 242.867 198.53 242.963 198.477C243.242 198.268 243.116 197.837 242.963 197.524C242.309 196.229 241.66 194.935 241.015 193.641L237.327 194.441L238.913 196.285" fill="#263238"/>
<path d="M226.889 192.124C227.313 191.616 227.947 191.198 228.448 191.637C228.911 192.122 229.213 192.74 229.31 193.404C229.414 194.064 229.635 194.701 229.965 195.283C230.203 195.631 230.531 195.907 230.914 196.083C231.297 196.259 231.721 196.328 232.14 196.283C232.559 196.237 232.958 196.078 233.294 195.824C233.631 195.569 233.891 195.228 234.049 194.837C234.507 195.627 235.095 196.333 235.789 196.925C236.14 197.214 236.557 197.411 237.003 197.497C237.449 197.583 237.91 197.557 238.343 197.419C238.552 197.34 238.743 197.219 238.905 197.064C239.066 196.909 239.195 196.723 239.284 196.517C239.372 196.311 239.418 196.09 239.419 195.866C239.42 195.642 239.376 195.42 239.289 195.213C239.762 195.606 240.352 195.831 240.966 195.853C241.271 195.862 241.571 195.782 241.831 195.623C242.09 195.463 242.298 195.231 242.428 194.956C242.482 194.814 242.508 194.664 242.502 194.512C242.496 194.361 242.46 194.212 242.394 194.075C242.329 193.938 242.237 193.816 242.123 193.716C242.009 193.617 241.876 193.541 241.732 193.494C242.071 193.718 242.471 193.833 242.877 193.824C243.283 193.816 243.678 193.684 244.007 193.446C244.326 193.193 244.545 192.836 244.626 192.437C244.706 192.038 244.642 191.624 244.446 191.268C244.226 190.934 243.882 190.702 243.491 190.621C243.1 190.54 242.692 190.617 242.358 190.836C242.837 190.598 243.244 190.235 243.534 189.785C243.67 189.556 243.712 189.283 243.651 189.024C243.59 188.764 243.431 188.538 243.207 188.394C242.629 188.129 242.01 188.665 241.377 188.783C240.347 188.971 239.505 188.046 238.677 187.392C237.905 186.845 237.026 186.466 236.098 186.28C235.171 186.095 234.214 186.106 233.291 186.313C231.442 186.747 229.737 187.653 228.343 188.943C227.411 189.758 226.513 190.941 226.889 192.117" fill="#263238"/>
<path d="M229.102 199.625C229.102 199.924 228.816 200.182 228.468 200.321C228.321 200.4 228.155 200.435 227.989 200.423C227.822 200.411 227.663 200.351 227.529 200.251C227.327 200.036 227.529 199.556 228.072 199.312C228.615 199.068 229.102 199.326 229.102 199.625Z" fill="#263238"/>
<path d="M234.585 196.981C234.522 197.28 234.154 197.468 233.785 197.642C233.416 197.816 233.019 197.955 232.755 197.795C232.689 197.731 232.646 197.647 232.634 197.556C232.621 197.466 232.639 197.373 232.685 197.294C232.814 197.005 233.048 196.776 233.339 196.654C233.626 196.515 233.955 196.492 234.258 196.591C234.488 196.682 234.599 196.835 234.585 196.981Z" fill="#263238"/>
<path d="M236.179 203.397C236.269 203.362 236.506 204.093 236.179 204.858C235.852 205.624 235.156 205.958 235.121 205.867C235.086 205.777 235.552 205.394 235.817 204.712C236.081 204.03 236.06 203.411 236.179 203.397Z" fill="#263238"/>
<path d="M244.209 192.277C244.209 192.277 244.16 192.318 244.049 192.374C243.881 192.444 243.702 192.482 243.52 192.485C243.175 192.497 242.833 192.41 242.535 192.235C242.237 192.06 241.995 191.804 241.836 191.497L242.024 191.539C241.396 192.114 240.579 192.438 239.728 192.451C239.207 192.47 238.689 192.377 238.208 192.176C237.727 191.975 237.296 191.673 236.944 191.289L237.25 191.163C237.251 191.4 237.191 191.633 237.077 191.84C236.962 192.047 236.797 192.221 236.596 192.346C236.2 192.613 235.721 192.729 235.246 192.673C234.502 192.515 233.834 192.108 233.353 191.518C232.873 190.996 232.491 190.454 232.045 190.029C231.653 189.609 231.144 189.315 230.584 189.187C230.092 189.107 229.587 189.17 229.129 189.368C228.449 189.672 227.84 190.116 227.341 190.669C227.158 190.88 226.958 191.076 226.743 191.254C226.879 191.003 227.045 190.77 227.237 190.558C227.715 189.948 228.327 189.455 229.025 189.117C229.529 188.884 230.089 188.799 230.64 188.874C231.263 188.999 231.834 189.312 232.275 189.772C232.755 190.224 233.152 190.767 233.611 191.261C234.039 191.783 234.629 192.148 235.288 192.298C236.053 192.409 236.937 191.866 236.902 191.163V190.655L237.236 191.045C237.559 191.395 237.952 191.673 238.39 191.86C238.828 192.047 239.3 192.139 239.776 192.131C240.558 192.131 241.315 191.855 241.913 191.351L242.038 191.24L242.101 191.386C242.234 191.665 242.442 191.903 242.7 192.073C242.959 192.244 243.259 192.341 243.569 192.353C243.784 192.346 243.998 192.321 244.209 192.277Z" fill="#455A64"/>
<path d="M258.154 222.77C258.119 222.77 258.154 222.352 257.994 221.629C257.809 220.599 257.423 219.615 256.86 218.734C256.039 217.424 254.837 216.397 253.415 215.79C251.666 215.067 249.714 214.998 247.918 215.595C247.004 215.915 246.15 216.385 245.392 216.987C244.677 217.555 244.024 218.196 243.444 218.901C242.47 220.118 241.586 221.404 240.799 222.749C240.103 223.883 239.533 224.837 239.108 225.428C238.906 225.741 238.733 225.971 238.614 226.124C238.496 226.277 238.433 226.36 238.419 226.354C238.585 226.004 238.776 225.667 238.99 225.345C239.394 224.649 239.929 223.723 240.577 222.61C241.342 221.233 242.215 219.918 243.186 218.678C244.376 217.114 245.975 215.91 247.807 215.199C249.684 214.571 251.726 214.652 253.548 215.428C254.77 215.973 255.832 216.821 256.635 217.891C257.437 218.962 257.953 220.219 258.133 221.545C258.173 221.833 258.189 222.124 258.182 222.415C258.196 222.534 258.186 222.654 258.154 222.77Z" fill="#263238"/>
<path d="M255.085 229.325C255.081 229.216 255.054 229.108 255.006 229.01C254.959 228.912 254.891 228.825 254.807 228.754C254.607 228.599 254.364 228.507 254.111 228.49C253.742 228.481 253.375 228.415 253.026 228.295C252.599 228.054 252.23 227.721 251.947 227.32C251.665 226.92 251.474 226.461 251.39 225.978C251.244 225.463 251.133 224.927 250.938 224.405C250.772 223.869 250.444 223.397 249.999 223.055C249.529 222.743 248.988 222.554 248.426 222.505C247.884 222.467 247.34 222.467 246.798 222.505C245.849 222.61 244.89 222.466 244.014 222.088C243.719 221.942 243.458 221.736 243.247 221.483C243.036 221.23 242.88 220.936 242.789 220.62C242.742 220.447 242.73 220.267 242.755 220.091C242.759 220.03 242.776 219.971 242.803 219.917C242.826 220.151 242.866 220.384 242.922 220.613C243.146 221.179 243.579 221.637 244.132 221.893C244.989 222.214 245.912 222.319 246.819 222.199C247.841 222.157 249.136 222.06 250.242 222.818C250.745 223.201 251.115 223.732 251.3 224.335C251.502 224.892 251.606 225.442 251.738 225.95C251.803 226.389 251.961 226.809 252.201 227.182C252.441 227.555 252.758 227.873 253.13 228.114C253.456 228.241 253.798 228.32 254.146 228.351C254.434 228.383 254.704 228.51 254.911 228.713C254.981 228.774 255.038 228.848 255.079 228.932C255.12 229.016 255.143 229.107 255.148 229.2C255.127 229.269 255.092 229.325 255.085 229.325Z" fill="#FAFAFA"/>
<path d="M250.931 235.275C250.889 235.275 250.875 235.045 250.632 234.718C250.271 234.288 249.784 233.981 249.24 233.841C248.544 233.611 247.654 233.639 246.672 233.319C246.143 233.155 245.68 232.826 245.35 232.38C245.023 231.914 244.842 231.371 244.543 230.932C243.931 230.042 242.831 229.742 241.899 229.541C241.018 229.397 240.176 229.077 239.421 228.601C238.919 228.241 238.567 227.708 238.433 227.105C238.377 226.885 238.396 226.652 238.489 226.444C238.524 226.444 238.489 226.681 238.572 227.07C238.735 227.604 239.077 228.066 239.54 228.378C240.282 228.801 241.096 229.082 241.94 229.207C242.458 229.308 242.964 229.462 243.451 229.666C243.996 229.89 244.466 230.264 244.807 230.744C245.141 231.245 245.315 231.781 245.608 232.185C245.889 232.578 246.289 232.871 246.749 233.02C247.647 233.333 248.558 233.34 249.289 233.611C249.879 233.782 250.393 234.15 250.743 234.655C250.832 234.798 250.891 234.956 250.917 235.121C250.938 235.219 250.945 235.275 250.931 235.275Z" fill="#FAFAFA"/>
<path d="M270.158 225.846C270.176 225.942 270.176 226.041 270.158 226.138C270.095 226.411 269.992 226.674 269.852 226.917C269.287 227.786 268.472 228.463 267.514 228.859C266.929 229.13 266.268 229.374 265.586 229.673C264.86 229.968 264.197 230.397 263.631 230.939C262.448 232.108 261.87 233.918 261.035 235.692C260.653 236.587 260.105 237.402 259.421 238.093C259.254 238.26 259.069 238.41 258.871 238.538C258.687 238.681 258.489 238.804 258.28 238.907C257.875 239.099 257.45 239.244 257.013 239.338C255.322 239.7 253.784 239.61 252.58 239.993C251.612 240.225 250.774 240.83 250.249 241.677C250.078 242 249.959 242.347 249.894 242.707C249.894 242.707 249.894 242.602 249.894 242.414C249.923 242.135 250.003 241.864 250.131 241.614C250.381 241.158 250.721 240.757 251.13 240.435C251.539 240.113 252.008 239.878 252.511 239.742C253.763 239.318 255.329 239.38 256.943 239.011C257.355 238.919 257.754 238.779 258.133 238.594C258.325 238.499 258.507 238.384 258.676 238.253C258.861 238.134 259.031 237.993 259.184 237.835C259.833 237.169 260.352 236.388 260.715 235.532C261.536 233.799 262.107 231.941 263.401 230.703C264.004 230.135 264.714 229.693 265.489 229.401C266.185 229.102 266.846 228.88 267.423 228.622C268.355 228.263 269.164 227.645 269.754 226.841C269.931 226.527 270.066 226.193 270.158 225.846Z" fill="#FAFAFA"/>
<path d="M277.152 234.453C277.1 234.848 276.946 235.222 276.706 235.539C276.06 236.41 275.179 237.078 274.166 237.467C272.928 238.037 271.313 238.295 269.782 239.123C268.983 239.543 268.324 240.186 267.883 240.974C267.443 241.856 267.052 242.762 266.713 243.688C265.937 245.507 264.592 247.026 262.879 248.016C261.487 248.821 259.901 249.228 258.293 249.192C257.221 249.173 256.162 248.956 255.169 248.552C254.9 248.442 254.637 248.317 254.383 248.176C254.209 248.072 254.125 248.016 254.132 248.002C254.139 247.988 254.515 248.169 255.218 248.42C256.209 248.763 257.251 248.937 258.3 248.935C259.852 248.933 261.375 248.517 262.712 247.731C264.347 246.764 265.631 245.301 266.379 243.555C266.722 242.604 267.121 241.675 267.576 240.772C268.056 239.935 268.766 239.254 269.622 238.81C271.237 237.961 272.851 237.738 274.069 237.209C275.051 236.852 275.923 236.242 276.595 235.442C276.813 235.132 276.999 234.801 277.152 234.453Z" fill="#FAFAFA"/>
<path d="M283.463 241.259C282.467 241.705 281.532 242.275 280.68 242.957C279.775 243.72 279.026 244.651 278.474 245.699C278.154 246.276 277.931 246.944 277.639 247.633C277.367 248.383 276.883 249.038 276.247 249.519C275.569 249.928 274.803 250.166 274.013 250.215C273.269 250.298 272.566 250.319 271.926 250.431C270.756 250.616 269.621 250.975 268.558 251.495C267.577 252 266.646 252.594 265.774 253.27C265.954 253.03 266.164 252.815 266.4 252.63C267.022 252.092 267.701 251.626 268.425 251.238C269.503 250.672 270.663 250.28 271.863 250.076C272.559 249.95 273.255 249.923 273.951 249.832C274.688 249.785 275.404 249.564 276.038 249.185C276.618 248.743 277.06 248.144 277.312 247.459C277.597 246.763 277.84 246.109 278.174 245.504C278.759 244.429 279.554 243.482 280.513 242.72C281.147 242.209 281.849 241.79 282.6 241.475C282.872 241.37 283.08 241.301 283.226 241.259C283.373 241.217 283.456 241.245 283.463 241.259Z" fill="#FAFAFA"/>
<path d="M255.545 228.378C256.139 228.161 256.68 227.819 257.131 227.376C257.605 226.882 257.982 226.304 258.245 225.672C258.559 224.884 258.808 224.072 258.989 223.243C259.182 222.394 259.46 221.566 259.817 220.773C260.129 220.119 260.574 219.538 261.126 219.068C261.494 218.741 261.932 218.503 262.406 218.372C262.577 218.317 262.758 218.302 262.935 218.33C262.33 218.513 261.77 218.821 261.293 219.235C260.799 219.71 260.4 220.274 260.117 220.898C259.785 221.677 259.526 222.485 259.344 223.313C259.152 224.16 258.887 224.989 258.551 225.79C258.257 226.45 257.837 227.046 257.312 227.543C256.956 227.879 256.531 228.133 256.067 228.288C255.904 228.365 255.724 228.397 255.545 228.378Z" fill="#FAFAFA"/>
<path d="M253.534 215.853C253.676 215.112 254.02 214.426 254.529 213.869C255.037 213.313 255.69 212.908 256.415 212.701C256.456 212.798 255.58 213.236 254.793 214.092C254.007 214.948 253.631 215.915 253.534 215.853Z" fill="#FAFAFA"/>
<path d="M248.649 208.727C248.336 209.305 247.97 209.852 247.556 210.362C247.15 210.951 246.713 211.517 246.248 212.06C245.952 212.391 245.592 212.658 245.19 212.847C244.747 213.019 244.273 213.098 243.798 213.076C243.356 213.044 242.912 213.044 242.469 213.076C242.076 213.134 241.697 213.261 241.349 213.452C240.752 213.785 240.283 214.306 240.013 214.934C239.782 215.532 239.685 216.174 239.728 216.813C239.639 216.653 239.591 216.474 239.588 216.291C239.534 215.798 239.598 215.3 239.776 214.837C240.032 214.135 240.524 213.545 241.168 213.167C241.548 212.94 241.969 212.791 242.407 212.728C242.869 212.681 243.334 212.67 243.798 212.694C244.21 212.731 244.624 212.67 245.008 212.517C245.391 212.363 245.733 212.121 246.004 211.81C246.54 211.246 246.965 210.648 247.354 210.181C247.739 209.657 248.172 209.17 248.649 208.727Z" fill="#FAFAFA"/>
<g opacity="0.2">
<path opacity="0.2" d="M257.89 225.017L252.608 246.415L247.988 239.979L257.89 225.017Z" fill="black"/>
</g>
<path d="M280.798 295.46C280.701 295.46 280.617 291.905 280.617 287.521C280.617 283.137 280.701 279.574 280.798 279.574C280.895 279.574 280.979 283.13 280.979 287.521C280.979 291.911 280.902 295.46 280.798 295.46Z" fill="#455A64"/>
<path d="M45.5239 256.025C46.5741 256.106 47.597 256.399 48.531 256.885C49.4651 257.372 50.2909 258.043 50.9586 258.858C52.284 260.495 53.2171 262.413 53.6865 264.466C54.7024 268.398 54.0205 273.019 52.8653 276.909C48.6344 275.357 46.0597 270.806 44.8906 268.419C43.0535 264.64 42.0237 256.7 45.5378 256.025" fill="#1464C5"/>
<path d="M58.9194 281.717C58.2902 280.723 57.935 279.58 57.8898 278.405C57.8446 277.229 58.111 276.062 58.662 275.023C59.2317 273.995 60.0001 273.092 60.9223 272.364C61.8446 271.637 62.9024 271.1 64.0341 270.785C64.5376 270.586 65.0783 270.498 65.6189 270.528C66.1595 270.558 66.6872 270.705 67.1655 270.959C67.5691 271.269 67.8821 271.682 68.0718 272.155C68.2615 272.627 68.321 273.142 68.2441 273.645C68.0775 274.65 67.6477 275.594 66.9985 276.38C64.9109 279.163 62.3849 281.46 58.9194 281.717Z" fill="#1464C5"/>
<path d="M59.3091 294.82C59.2236 294.552 59.1607 294.278 59.1212 293.999C59.0168 293.422 58.8777 292.67 58.7037 291.765C58.1721 289.3 58.0382 286.765 58.307 284.257C58.6161 281.724 59.599 279.321 61.1532 277.298C61.6276 276.698 62.1719 276.156 62.7745 275.684C62.9354 275.554 63.1052 275.435 63.2825 275.329C63.3411 275.285 63.4041 275.248 63.4704 275.218C62.6823 275.882 61.9599 276.621 61.3132 277.423C59.845 279.44 58.9113 281.796 58.5993 284.271C58.3348 286.75 58.4404 289.255 58.9124 291.703C59.0586 292.649 59.1699 293.422 59.2395 293.957C59.2897 294.242 59.313 294.531 59.3091 294.82Z" fill="#263238"/>
<path d="M46.8461 262.003C46.9115 262.104 46.9674 262.211 47.0131 262.323L47.4376 263.276C47.8064 264.098 48.3283 265.301 48.9546 266.791C50.2071 269.769 51.8772 273.909 53.6239 278.523C55.3705 283.137 56.8527 287.354 57.8826 290.422C58.3975 291.953 58.8081 293.206 59.0725 294.055C59.1978 294.465 59.3022 294.792 59.3787 295.05C59.42 295.165 59.4503 295.284 59.4692 295.405C59.411 295.298 59.3621 295.186 59.323 295.071L58.9681 294.097C58.655 293.206 58.2166 292.009 57.6877 290.485C56.6022 287.444 55.0921 283.241 53.3455 278.655C51.5989 274.069 49.9636 269.894 48.7597 266.895C48.1682 265.427 47.6881 264.216 47.368 263.346L46.9922 262.379C46.925 262.261 46.8757 262.135 46.8461 262.003Z" fill="#263238"/>
<path d="M54.3058 286.136C53.053 283.995 51.3081 282.185 49.2157 280.853C47.1233 279.522 44.7437 278.709 42.2742 278.481C41.0146 278.384 39.4907 278.579 38.941 279.699C38.3912 280.819 39.108 282.169 39.95 283.102C41.7532 285.018 44.0829 286.359 46.646 286.954C49.2091 287.55 51.891 287.374 54.3545 286.449" fill="#1464C5"/>
<path d="M44.153 281.856C44.4158 281.851 44.6786 281.865 44.9394 281.898C45.2455 281.913 45.5502 281.95 45.851 282.009C46.2059 282.079 46.6164 282.121 47.0548 282.246C47.526 282.357 47.9906 282.494 48.4466 282.656C48.9875 282.83 49.5174 283.037 50.0332 283.276C52.4267 284.348 54.52 285.992 56.129 288.063C56.475 288.51 56.7979 288.975 57.0962 289.455C57.3497 289.877 57.5819 290.311 57.7921 290.756C58.0078 291.16 58.1401 291.55 58.2792 291.877C58.4014 292.162 58.5037 292.455 58.5854 292.754C58.6778 292.999 58.7432 293.253 58.7803 293.512C58.7176 293.512 58.4254 292.447 57.6042 290.854C57.3822 290.418 57.1359 289.995 56.8666 289.587C56.5679 289.106 56.2426 288.641 55.8924 288.196C55.087 287.197 54.1746 286.289 53.1715 285.489C52.1538 284.709 51.0577 284.037 49.9009 283.485C49.3939 283.244 48.8734 283.032 48.3422 282.851C47.886 282.682 47.4215 282.535 46.9504 282.413C45.2664 281.995 44.1461 281.961 44.153 281.856Z" fill="#263238"/>
</svg>
