<svg width="164" height="20" viewBox="0 0 164 20" fill="none" xmlns="http://www.w3.org/2000/svg">
<path d="M18.48 17.65C17.9813 18.266 17.3727 18.7353 16.654 19.058C15.95 19.3807 15.1727 19.542 14.322 19.542C13.178 19.542 12.144 19.2927 11.22 18.794C10.296 18.31 9.24 17.4447 8.052 16.198C6.65867 16.022 5.412 15.5747 4.312 14.856C3.22667 14.1373 2.376 13.2133 1.76 12.084C1.15867 10.94 0.858 9.67867 0.858 8.3C0.858 6.78933 1.21733 5.43267 1.936 4.23C2.66933 3.01267 3.674 2.05933 4.95 1.37C6.24067 0.680666 7.68533 0.336 9.284 0.336C10.8827 0.336 12.32 0.680666 13.596 1.37C14.872 2.05933 15.8767 3.01267 16.61 4.23C17.3433 5.43267 17.71 6.78933 17.71 8.3C17.71 10.0893 17.204 11.6587 16.192 13.008C15.1947 14.3573 13.8673 15.296 12.21 15.824C12.5767 16.2053 12.9287 16.4767 13.266 16.638C13.618 16.814 13.992 16.902 14.388 16.902C15.3413 16.902 16.1773 16.5207 16.896 15.758L18.48 17.65ZM4.466 8.3C4.466 9.25333 4.67133 10.104 5.082 10.852C5.50733 11.6 6.08667 12.1867 6.82 12.612C7.55333 13.0227 8.37467 13.228 9.284 13.228C10.1933 13.228 11.0147 13.0227 11.748 12.612C12.4813 12.1867 13.0533 11.6 13.464 10.852C13.8893 10.104 14.102 9.25333 14.102 8.3C14.102 7.34667 13.8893 6.496 13.464 5.748C13.0533 5 12.4813 4.42067 11.748 4.01C11.0147 3.58467 10.1933 3.372 9.284 3.372C8.37467 3.372 7.55333 3.58467 6.82 4.01C6.08667 4.42067 5.50733 5 5.082 5.748C4.67133 6.496 4.466 7.34667 4.466 8.3ZM29.4305 16.264C27.2305 16.264 25.5145 15.6553 24.2825 14.438C23.0652 13.2207 22.4565 11.4827 22.4565 9.224V0.599999H26.0205V9.092C26.0205 11.8493 27.1645 13.228 29.4525 13.228C30.5672 13.228 31.4178 12.898 32.0045 12.238C32.5912 11.5633 32.8845 10.5147 32.8845 9.092V0.599999H36.4045V9.224C36.4045 11.4827 35.7885 13.2207 34.5565 14.438C33.3392 15.6553 31.6305 16.264 29.4305 16.264ZM42.1264 0.599999H45.6904V16H42.1264V0.599999ZM64.0191 13.096V16H50.5551V13.69L59.0031 3.504H50.7311V0.599999H63.6891V2.91L55.2631 13.096H64.0191ZM90.9494 16L90.9274 6.76L86.3954 14.372H84.7894L80.2794 6.958V16H76.9354V0.599999H79.8834L85.6474 10.17L91.3234 0.599999H94.2494L94.2934 16H90.9494ZM110.289 12.7H103.139L101.775 16H98.1231L104.987 0.599999H108.507L115.393 16H111.653L110.289 12.7ZM109.167 9.994L106.725 4.098L104.283 9.994H109.167ZM133.315 0.599999V16H130.389L122.711 6.65V16H119.191V0.599999H122.139L129.795 9.95V0.599999H133.315ZM139.158 0.599999H142.722V16H139.158V0.599999ZM158.719 12.7H151.569L150.205 16H146.553L153.417 0.599999H156.937L163.823 16H160.083L158.719 12.7ZM157.597 9.994L155.155 4.098L152.713 9.994H157.597Z" fill="white"/>
</svg>
